<?xml version="1.0" encoding="UTF-8"?>
<svg width="67px" height="72px" viewBox="0 0 67 72" version="1.1" xmlns="http://www.w3.org/2000/svg" xmlns:xlink="http://www.w3.org/1999/xlink">
    <!-- Generator: Sketch 49 (51002) - http://www.bohemiancoding.com/sketch -->
    <title>Group 27</title>
    <desc>Created with Sketch.</desc>
    <defs>
        <polygon id="path-1" points="4.93488761e-21 0.00010923913 4.93488761e-21 67 66.9999272 67 66.9999272 0.00010923913 0 0.00010923913"></polygon>
    </defs>
    <g id="Projeto" stroke="none" stroke-width="1" fill="none" fill-rule="evenodd">
        <g id="summit" transform="translate(-1076.000000, -1049.000000)">
            <g id="Group-27" transform="translate(1076.000000, 1049.000000)">
                <g id="Page-1" transform="translate(0.000000, 5.000000)">
                    <g id="Group-3">
                        <mask id="mask-2" fill="white">
                            <use xlink:href="#path-1"></use>
                        </mask>
                        <g id="Clip-2"></g>
                        <path d="M33.4999272,67.0001092 C14.9984598,67.0001092 -7.28260869e-05,52.0015766 -7.28260869e-05,33.5001092 C-7.28260869e-05,14.9982777 14.9984598,0.00010923913 33.4999272,0.00010923913 C52.0017587,0.00010923913 66.9999272,14.9982777 66.9999272,33.5001092 C66.9999272,52.0015766 52.0017587,67.0001092 33.4999272,67.0001092 Z" id="Fill-1" fill="#EFEFEF" mask="url(#mask-2)"></path>
                    </g>
                </g>
                <g id="contaazul-recebafacil-splash" transform="translate(4.000000, 0.000000)">
                    <g id="Group">
                        <path d="M36.1726879,36.5752852 C37.6419635,36.5752852 38.8480852,37.7882129 38.8480852,39.2657795 L38.8480852,49.4323194 C38.8480852,50.9098859 37.6419635,52.1228137 36.1726879,52.1228137 L3.94730756,52.1228137 C2.47803197,52.1228137 1.27191021,50.9098859 1.27191021,49.4323194 L1.27191021,39.2657795 C1.27191021,37.7882129 2.47803197,36.5752852 3.94730756,36.5752852 L36.1726879,36.5752852 L36.1726879,36.5752852 Z M36.1726879,35.2961977 L3.94730756,35.2961977 C1.76532366,35.2961977 0,37.0825095 0,39.2657795 L0,49.4323194 C0,51.626616 1.7762884,53.4019011 3.94730756,53.4019011 L36.1726879,53.4019011 C38.3546718,53.4019011 40.1199954,51.6155894 40.1199954,49.4323194 L40.1199954,39.2657795 C40.1199954,37.0825095 38.3546718,35.2961977 36.1726879,35.2961977 L36.1726879,35.2961977 Z" id="Shape" fill="#DDE5FB" fill-rule="nonzero"></path>
                        <path d="M48.4422355,57.9448669 L11.8967464,57.9448669 C10.164317,57.9448669 8.69504137,56.5555133 8.69504137,54.7250951 L8.69504137,3.21977186 C8.69504137,1.47756654 10.076599,0 11.8967464,0 L44.7251876,0 C46.3698991,0.0882129278 51.5452579,5.55741445 51.6329758,7.21140684 L51.6329758,54.8243346 C51.6329758,56.5555133 50.2514182,57.9448669 48.4422355,57.9448669 Z" id="Shape" fill="#DDE5FB" fill-rule="nonzero"></path>
                        <g transform="translate(13.596282, 40.798479)" id="Shape">
                            <g transform="translate(22.916313, 0.441065)" fill="#FFFFFF" fill-rule="nonzero">
                                <path d="M0.701743566,10.88327 C0.350871783,10.88327 0.098682689,10.6186312 0.098682689,10.2768061 L0.098682689,0.62851711 C0.098682689,0.275665399 0.361836526,0.0220532319 0.701743566,0.0220532319 C1.05261535,0.0220532319 1.30480444,0.286692015 1.30480444,0.62851711 L1.30480444,10.1885932 C1.39252239,10.6296578 1.12936855,10.88327 0.701743566,10.88327 Z"></path>
                            </g>
                            <path d="M33.0258066,11.3243346 L0.723673052,11.3243346 C0.372801269,11.3243346 0.120612175,11.0596958 0.120612175,10.7178707 C0.0328942297,0.727756654 0.120612175,0.551330798 0.208330121,0.374904943 C0.296048067,0.198479087 0.559201904,0.0220532319 0.723673052,0.0220532319 L33.0367713,0.0220532319 C33.3876431,0.0220532319 33.6398322,0.286692015 33.6398322,0.62851711 L33.6398322,10.6186312 C33.6398322,11.0707224 33.3766784,11.3243346 33.0258066,11.3243346 Z M1.32673393,10.0231939 L32.3459925,10.0231939 L32.3459925,1.33422053 L1.23901598,1.33422053 C1.23901598,2.81178707 1.32673393,7.06806084 1.32673393,10.0231939 Z" fill="#FFFFFF" fill-rule="nonzero"></path>
                            <g transform="translate(0.109647, 5.182510)">
                                <path d="M0.61402562,0.672623574 L32.2253803,0.672623574"></path>
                                <path d="M32.2253803,1.27908745 L0.61402562,1.27908745 C0.263153837,1.27908745 0.0109647432,1.01444867 0.0109647432,0.672623574 C0.0109647432,0.319771863 0.27411858,0.0661596958 0.61402562,0.0661596958 L32.324063,0.0661596958 C32.6749348,0.0661596958 32.9271239,0.330798479 32.9271239,0.672623574 C32.9161591,1.02547529 32.5762521,1.27908745 32.2253803,1.27908745 Z" fill="#FFFFFF" fill-rule="nonzero"></path>
                            </g>
                        </g>
                        <g opacity="0.3" transform="translate(8.662147, 39.034221)" fill="#4A82BA" fill-rule="nonzero" id="Shape">
                            <path d="M30.788999,0.0661596958 L0.0328942297,0.0661596958 L0.0328942297,15.6136882 L30.788999,15.6136882 C31.9074028,15.6136882 32.7736175,14.7425856 32.7736175,13.6178707 L32.7736175,2.06197719 C32.7845822,0.926235741 31.8306496,0.0661596958 30.788999,0.0661596958 Z"></path>
                        </g>
                        <path d="M36.1726879,52.1228137 L3.94730756,52.1228137 C2.47803197,52.1228137 1.27191021,50.9098859 1.27191021,49.4323194 L1.27191021,39.2657795 C1.27191021,37.7882129 2.47803197,36.5752852 3.94730756,36.5752852 L36.1726879,36.5752852 C37.6419635,36.5752852 38.8480852,37.7882129 38.8480852,39.2657795 L38.8480852,49.4323194 C38.8480852,50.9098859 37.6419635,52.1228137 36.1726879,52.1228137 Z" id="Shape" fill="#FFFFFF" fill-rule="nonzero"></path>
                        <g transform="translate(4.605192, 38.813688)" fill="#4A82BA" fill-rule="nonzero" id="Shape">
                            <path d="M2.88372747,0.0220532319 L2.88372747,0.0220532319 C3.48678834,0.0220532319 3.92537807,0.452091255 3.92537807,1.06958175 L3.92537807,9.84676806 C3.92537807,10.4532319 3.49775309,10.8942966 2.88372747,10.8942966 L2.79600952,10.8942966 C2.19294864,10.8942966 1.75435891,10.4642586 1.75435891,9.84676806 L1.75435891,1.06958175 C1.8530416,0.452091255 2.36838453,0.0220532319 2.88372747,0.0220532319 Z"></path>
                            <path d="M13.8594354,0.0220532319 L13.8594354,0.0220532319 C14.4624963,0.0220532319 14.901086,0.452091255 14.901086,1.06958175 L14.901086,9.84676806 C14.901086,10.4532319 14.473461,10.8942966 13.8594354,10.8942966 L13.8594354,10.8942966 C13.2563746,10.8942966 12.8177848,10.4642586 12.8177848,9.84676806 L12.8177848,1.06958175 C12.8177848,0.452091255 13.2563746,0.0220532319 13.8594354,0.0220532319 Z"></path>
                            <path d="M24.8241786,0.0220532319 L24.8241786,0.0220532319 C25.3395216,0.0220532319 25.7781113,0.452091255 25.7781113,0.981368821 L25.7781113,9.84676806 C25.7781113,10.365019 25.3504863,10.8060837 24.8241786,10.8060837 L24.8241786,10.8060837 C24.3088357,10.8060837 23.870246,10.3760456 23.870246,9.84676806 L23.870246,0.981368821 C23.7934928,0.452091255 24.2211178,0.0220532319 24.8241786,0.0220532319 Z"></path>
                            <path d="M5.82227865,0.0220532319 L5.82227865,0.0220532319 C6.24990363,0.0220532319 6.60077542,0.374904943 6.60077542,0.804942966 L6.60077542,10.1003802 C6.60077542,10.5304183 6.24990363,10.88327 5.82227865,10.88327 L5.82227865,10.88327 C5.39465366,10.88327 5.04378188,10.5304183 5.04378188,10.1003802 L5.04378188,0.804942966 C5.04378188,0.363878327 5.39465366,0.0220532319 5.82227865,0.0220532319 Z"></path>
                            <path d="M8.49767599,0.0220532319 L8.49767599,0.0220532319 C8.92530098,0.0220532319 9.27617276,0.374904943 9.27617276,0.804942966 L9.27617276,10.1003802 C9.27617276,10.5304183 8.92530098,10.88327 8.49767599,10.88327 L8.49767599,10.88327 C8.07005101,10.88327 7.71917923,10.5304183 7.71917923,10.1003802 L7.71917923,0.804942966 C7.80689717,0.363878327 8.15776895,0.0220532319 8.49767599,0.0220532319 Z"></path>
                            <path d="M16.7102687,0.0220532319 L16.7102687,0.0220532319 C17.1378936,0.0220532319 17.4887654,0.374904943 17.4887654,0.804942966 L17.4887654,10.1003802 C17.4887654,10.5304183 17.1378936,10.88327 16.7102687,10.88327 L16.7102687,10.88327 C16.2826437,10.88327 15.9317719,10.5304183 15.9317719,10.1003802 L15.9317719,0.804942966 C16.0194898,0.363878327 16.3593969,0.0220532319 16.7102687,0.0220532319 Z"></path>
                            <path d="M27.6750119,0.0220532319 L27.6750119,0.0220532319 C28.1026369,0.0220532319 28.4535086,0.374904943 28.4535086,0.804942966 L28.4535086,10.1003802 C28.4535086,10.5304183 28.1026369,10.88327 27.6750119,10.88327 L27.6750119,10.88327 C27.2473869,10.88327 26.8965151,10.5304183 26.8965151,10.1003802 L26.8965151,0.804942966 C26.9842331,0.363878327 27.3351048,0.0220532319 27.6750119,0.0220532319 Z"></path>
                            <path d="M11.2607913,0.0220532319 L11.2607913,0.0220532319 C11.4362272,0.0220532319 11.5239451,0.11026616 11.5239451,0.286692015 L11.5239451,10.5414449 C11.5239451,10.7178707 11.4362272,10.8060837 11.2607913,10.8060837 L11.2607913,10.8060837 C11.0853554,10.8060837 10.9976374,10.7178707 10.9976374,10.5414449 L10.9976374,0.286692015 C11.0086022,0.11026616 11.0963201,0.0220532319 11.2607913,0.0220532319 Z"></path>
                            <path d="M19.473384,0.0220532319 L19.473384,0.0220532319 C19.6488198,0.0220532319 19.7365378,0.11026616 19.7365378,0.286692015 L19.7365378,10.5414449 C19.7365378,10.7178707 19.6488198,10.8060837 19.473384,10.8060837 L19.473384,10.8060837 C19.2979481,10.8060837 19.2102301,10.7178707 19.2102301,10.5414449 L19.2102301,0.286692015 C19.2102301,0.11026616 19.2979481,0.0220532319 19.473384,0.0220532319 Z"></path>
                            <path d="M30.4490919,0.0220532319 L30.4490919,0.0220532319 C30.6245278,0.0220532319 30.7122458,0.11026616 30.7122458,0.286692015 L30.7122458,10.5414449 C30.7122458,10.7178707 30.6245278,10.8060837 30.4490919,10.8060837 L30.4490919,10.8060837 C30.273656,10.8060837 30.1859381,10.7178707 30.1859381,10.5414449 L30.1859381,0.286692015 C30.1859381,0.11026616 30.273656,0.0220532319 30.4490919,0.0220532319 Z"></path>
                            <path d="M0.296048067,0.0220532319 L0.296048067,0.0220532319 C0.471483958,0.0220532319 0.559201904,0.11026616 0.559201904,0.286692015 L0.559201904,10.5414449 C0.559201904,10.7178707 0.471483958,10.8060837 0.296048067,10.8060837 L0.296048067,10.8060837 C0.120612175,10.8060837 0.0328942297,10.7178707 0.0328942297,10.5414449 L0.0328942297,0.286692015 C0.0328942297,0.11026616 0.120612175,0.0220532319 0.296048067,0.0220532319 Z"></path>
                            <path d="M22.2364992,0.0220532319 L22.2364992,0.0220532319 C22.4119351,0.0220532319 22.4996531,0.11026616 22.4996531,0.286692015 L22.4996531,10.5414449 C22.4996531,10.7178707 22.4119351,10.8060837 22.2364992,10.8060837 L22.2364992,10.8060837 C22.0610634,10.8060837 21.9733454,10.7178707 21.9733454,10.5414449 L21.9733454,0.286692015 C21.9733454,0.11026616 22.0610634,0.0220532319 22.2364992,0.0220532319 Z"></path>
                        </g>
                        <path d="M30.3833035,17.5543726 C26.8416914,17.5543726 23.9908582,14.6874525 23.9908582,11.1258555 C23.9908582,10.7730038 24.254012,10.5193916 24.593919,10.5193916 C24.9447908,10.5193916 25.1969799,10.7840304 25.1969799,11.1258555 C25.1969799,13.9927757 27.5324702,16.2532319 30.2955855,16.2532319 C33.0587008,16.2532319 35.4819091,13.9045627 35.4819091,11.1258555 C35.4819091,10.7730038 35.7450629,10.5193916 36.0849699,10.5193916 C36.424877,10.5193916 36.6880308,10.7840304 36.6880308,11.1258555 C36.7757488,14.6874525 33.9249155,17.5543726 30.3833035,17.5543726 Z" id="Shape" fill="#4A82BA" fill-rule="nonzero"></path>
                        <g transform="translate(13.596282, 22.053232)" id="Shape">
                            <g transform="translate(22.916313, 0.551331)" fill="#FFFFFF" fill-rule="nonzero">
                                <path d="M0.701743566,10.8391635 C0.350871783,10.8391635 0.098682689,10.5745247 0.098682689,10.2326996 L0.098682689,0.672623574 C0.098682689,0.319771863 0.361836526,0.0661596958 0.701743566,0.0661596958 C1.05261535,0.0661596958 1.30480444,0.330798479 1.30480444,0.672623574 L1.30480444,10.2326996 C1.39252239,10.4973384 1.12936855,10.8391635 0.701743566,10.8391635 Z"></path>
                            </g>
                            <path d="M33.0258066,11.313308 L0.723673052,11.313308 C0.372801269,11.313308 0.120612175,11.0486692 0.120612175,10.7068441 C0.0328942297,0.716730038 0.120612175,0.540304183 0.208330121,0.363878327 C0.296048067,0.187452471 0.559201904,0.011026616 0.723673052,0.011026616 L33.0367713,0.011026616 C33.3876431,0.011026616 33.6398322,0.275665399 33.6398322,0.617490494 L33.6398322,10.6076046 C33.6398322,11.0486692 33.3766784,11.313308 33.0258066,11.313308 Z M1.32673393,10.0893536 L32.3459925,10.0893536 L32.3459925,1.40038023 L1.23901598,1.40038023 C1.23901598,2.87794677 1.32673393,7.05703422 1.32673393,10.0893536 Z" fill="#FFFFFF" fill-rule="nonzero"></path>
                            <g transform="translate(0.109647, 5.292776)">
                                <path d="M0.61402562,0.540304183 L32.2253803,0.540304183"></path>
                                <path d="M32.2253803,1.23498099 L0.61402562,1.23498099 C0.263153837,1.23498099 0.0109647432,0.970342205 0.0109647432,0.62851711 C0.0109647432,0.286692015 0.27411858,0.0220532319 0.61402562,0.0220532319 L32.324063,0.0220532319 C32.6749348,0.0220532319 32.9271239,0.286692015 32.9271239,0.62851711 C32.9271239,0.970342205 32.5762521,1.23498099 32.2253803,1.23498099 Z" fill="#FFFFFF" fill-rule="nonzero"></path>
                            </g>
                        </g>
                        <g opacity="0.5" transform="translate(44.626505, 0.000000)" fill="#AABFD7" fill-rule="nonzero" id="Shape">
                            <path d="M2.08330121,0.959315589 C1.48024033,0.352851711 0.789461512,0.0882129278 0.0109647432,0.0882129278 L0.0109647432,0.0882129278 C0.701743566,0.0882129278 1.30480444,0.694676806 1.30480444,1.38935361 L1.30480444,5.30380228 C1.30480444,6.17490494 1.99558327,6.78136882 2.86179798,6.60494297 L5.19728829,6.17490494 C6.23893889,5.99847909 7.00647092,6.78136882 7.00647092,7.74068441 L7.00647092,7.74068441 C7.00647092,6.61596958 6.57884593,5.39201521 5.71263122,4.60912548 L2.08330121,0.959315589 Z"></path>
                        </g>
                        <path d="M46.7098061,0.959315589 C46.1067452,0.352851711 45.4159664,0.0882129278 44.6374696,0.0882129278 L44.6374696,0.0882129278 C45.3282485,0.0882129278 45.9313093,0.694676806 45.9313093,1.38935361 L45.9313093,4.34448669 C45.9313093,5.21558935 46.6220882,5.91026616 47.4883029,5.91026616 L47.4883029,5.91026616 L49.8237932,5.91026616 C50.8654438,5.91026616 51.6329758,6.78136882 51.6329758,7.72965779 L51.6329758,7.72965779 C51.6329758,6.60494297 51.2053508,5.38098859 50.3391361,4.59809886 L46.7098061,0.959315589 Z" id="Shape" fill="#AABFD7" fill-rule="nonzero"></path>
                    </g>
                    <ellipse id="Oval" fill="#4A82BA" fill-rule="nonzero" cx="24.681637" cy="7.3878327" rx="1.04165061" ry="1.04752852"></ellipse>
                    <ellipse id="Oval" fill="#4A82BA" fill-rule="nonzero" cx="36.0849699" cy="7.3878327" rx="1.04165061" ry="1.04752852"></ellipse>
                </g>
            </g>
        </g>
    </g>
</svg>