<?xml version="1.0" encoding="UTF-8"?>
<svg width="67px" height="67px" viewBox="0 0 67 67" version="1.1" xmlns="http://www.w3.org/2000/svg" xmlns:xlink="http://www.w3.org/1999/xlink">
    <!-- Generator: Sketch 49 (51002) - http://www.bohemiancoding.com/sketch -->
    <title>Group 32</title>
    <desc>Created with Sketch.</desc>
    <defs>
        <polygon id="path-1" points="4.93488761e-21 0.00010923913 4.93488761e-21 67 66.9999272 67 66.9999272 0.00010923913 0 0.00010923913"></polygon>
    </defs>
    <g id="Projeto" stroke="none" stroke-width="1" fill="none" fill-rule="evenodd">
        <g id="summit" transform="translate(-296.000000, -1512.000000)">
            <g id="Group-32" transform="translate(296.000000, 1512.000000)">
                <g id="Page-1">
                    <g id="Group-3">
                        <mask id="mask-2" fill="white">
                            <use xlink:href="#path-1"></use>
                        </mask>
                        <g id="Clip-2"></g>
                        <path d="M66.9999272,33.5001092 C66.9999272,52.0015766 52.0017587,67.0001092 33.4999272,67.0001092 C14.9984598,67.0001092 -7.28260869e-05,52.0015766 -7.28260869e-05,33.5001092 C-7.28260869e-05,14.9982777 14.9984598,0.00010923913 33.4999272,0.00010923913 C52.0017587,0.00010923913 66.9999272,14.9982777 66.9999272,33.5001092" id="Fill-1" fill="#EFEFEF" mask="url(#mask-2)"></path>
                    </g>
                </g>
                <g id="contaazul-fluxo-de-caixa-online" transform="translate(4.000000, 11.000000)" fill-rule="nonzero">
                    <g id="Group" transform="translate(41.518519, 0.000000)">
                        <path d="M2.07592593,6.21052632 L6.61481481,0.315789474 C6.68518519,0.245614035 6.75555556,0.175438596 6.86111111,0.140350877 C6.93148148,0.105263158 8.40925926,0.140350877 8.47962963,0.140350877 C8.62037037,0.140350877 8.7962963,0.210526316 8.90185185,0.315789474 L15.0592593,6.21052632 C15.4462963,6.59649123 15.2,7.26315789 14.637037,7.26315789 L12.0333333,7.26315789 C11.4703704,7.26315789 11.0481481,7.71929825 11.0481481,8.24561404 L11.0481481,17.122807 C11.0481481,17.4736842 10.7666667,17.7192982 10.45,17.7192982 L6.68518519,17.7192982 C6.33333333,17.7192982 6.08703704,17.4385965 6.08703704,17.122807 L6.08703704,8.21052632 C6.08703704,7.64912281 5.62962963,7.22807018 5.10185185,7.22807018 L2.49814815,7.22807018 C1.97037037,7.22807018 1.68888889,6.59649123 2.07592593,6.21052632 Z" id="Shape" fill="#51A371"></path>
                        <path d="M0.492592593,6.21052632 L6.43888889,0.315789474 C6.68518519,0.0701754386 7.03703704,0.0701754386 7.28333333,0.315789474 L13.4407407,6.21052632 C13.8277778,6.59649123 13.5814815,7.26315789 13.0185185,7.26315789 L10.4148148,7.26315789 C9.85185185,7.26315789 9.42962963,7.71929825 9.42962963,8.24561404 L9.42962963,17.122807 C9.42962963,17.4736842 9.14814815,17.7192982 8.83148148,17.7192982 L5.10185185,17.7192982 C4.75,17.7192982 4.5037037,17.4385965 4.5037037,17.122807 L4.5037037,8.21052632 C4.5037037,7.64912281 4.0462963,7.22807018 3.51851852,7.22807018 L0.914814815,7.22807018 C0.351851852,7.22807018 0.105555556,6.59649123 0.492592593,6.21052632 Z" id="Shape" fill="#63C78A"></path>
                    </g>
                    <g id="Group" transform="translate(8.796296, 3.157895)">
                        <g transform="translate(0.000000, 10.526316)">
                            <g transform="translate(0.000000, 7.368421)">
                                <path d="M19.562963,10.5614035 C19.562963,14.8421053 15.2,18.3859649 9.78148148,18.3859649 C4.36296296,18.3859649 0,14.9122807 0,10.5614035 L0,8.66666667 C0.246296296,4.52631579 4.57407407,2.73684211 9.78148148,2.73684211 C14.9888889,2.73684211 19.2814815,4.31578947 19.562963,8.45614035 L19.562963,10.5614035 Z" id="Shape" fill="#E89472"></path>
                                <ellipse id="Oval" fill="#FFC18B" cx="9.78148148" cy="7.92982456" rx="9.78148148" ry="7.8245614"></ellipse>
                                <ellipse id="Oval" fill="#FFFFFF" opacity="0.2" cx="10.0277778" cy="5.12280702" rx="6.50925926" ry="4.24561404"></ellipse>
                                <path d="M9.14814815,11.4736842 C8.44444444,11.4736842 7.70555556,11.2631579 7.03703704,11.0175439 C6.50925926,10.7719298 6.22777778,10.4912281 6.22777778,10.2105263 C6.19259259,10 6.33333333,9.78947368 6.54444444,9.64912281 C6.75555556,9.50877193 7.07222222,9.40350877 7.3537037,9.40350877 C7.77592593,9.43859649 8.05740741,9.50877193 8.44444444,9.64912281 C8.90185185,9.75438596 9.32407407,9.85964912 9.81666667,9.89473684 C10.1333333,9.89473684 10.4148148,9.85964912 10.6259259,9.64912281 C10.837037,9.50877193 10.9425926,9.29824561 10.9425926,9.0877193 C10.9425926,8.84210526 10.8018519,8.63157895 10.5907407,8.49122807 C10.1685185,8.24561404 9.71111111,8.07017544 9.21851852,7.96491228 C8.19814815,7.71929825 7.45925926,7.43859649 7.07222222,7.0877193 C6.61481481,6.73684211 6.4037037,6.21052632 6.4037037,5.71929825 C6.36851852,5.12280702 6.65,4.52631579 7.10740741,4.14035088 C7.63518519,3.68421053 8.33888889,3.36842105 9.11296296,3.26315789 L9.11296296,2.70175439 C9.11296296,2.56140351 9.14814815,2.38596491 9.2537037,2.24561404 C9.35925926,2.10526316 9.5,2.03508772 9.71111111,2.10526316 C9.85185185,2.10526316 10.0277778,2.10526316 10.1685185,2.21052632 C10.2740741,2.35087719 10.3092593,2.52631579 10.3092593,2.66666667 L10.3092593,3.19298246 C10.9074074,3.19298246 11.5407407,3.33333333 12.1037037,3.61403509 C12.5611111,3.85964912 12.7722222,4.07017544 12.7722222,4.42105263 C12.7722222,4.63157895 12.6666667,4.84210526 12.4555556,4.98245614 C12.2444444,5.12280702 11.9981481,5.22807018 11.7518519,5.22807018 C11.6111111,5.22807018 11.2944444,5.19298246 10.8722222,5.12280702 C10.5555556,5.01754386 10.2740741,5.01754386 9.88703704,5.01754386 C9.64074074,5.01754386 9.32407407,5.05263158 9.07777778,5.15789474 C8.86666667,5.26315789 8.76111111,5.47368421 8.76111111,5.68421053 C8.76111111,6.03508772 9.21851852,6.24561404 10.0277778,6.49122807 C10.1685185,6.52631579 10.3444444,6.59649123 10.5555556,6.59649123 C11.3648148,6.73684211 12.0333333,7.12280702 12.6666667,7.57894737 C13.1240741,8 13.3351852,8.49122807 13.3351852,9.01754386 C13.3351852,9.68421053 13.0185185,10.2807018 12.4555556,10.8070175 C11.8925926,11.3333333 11.0833333,11.6140351 10.2388889,11.6842105 L10.2388889,12.4561404 C10.2388889,12.5964912 10.2037037,12.7719298 10.0981481,12.9122807 C9.99259259,13.0175439 9.85185185,13.122807 9.64074074,13.0526316 C9.5,13.0526316 9.32407407,13.0526316 9.18333333,12.9473684 C9.07777778,12.8070175 9.04259259,12.6315789 9.04259259,12.4912281 L9.04259259,11.5789474 C9.07777778,11.4736842 9.14814815,11.4736842 9.14814815,11.4736842 Z" id="Shape" fill="#E89472"></path>
                                <path d="M9.14814815,12 C8.44444444,12 7.70555556,11.7894737 7.03703704,11.5438596 C6.50925926,11.2982456 6.22777778,11.0175439 6.22777778,10.7368421 C6.19259259,10.5263158 6.33333333,10.3157895 6.54444444,10.1754386 C6.75555556,10.0350877 7.07222222,9.92982456 7.3537037,9.92982456 C7.77592593,9.96491228 8.05740741,10.0350877 8.44444444,10.1754386 C8.90185185,10.2807018 9.32407407,10.3859649 9.81666667,10.4210526 C10.1333333,10.4210526 10.4148148,10.3859649 10.6259259,10.1754386 C10.837037,10.0350877 10.9425926,9.8245614 10.9425926,9.61403509 C10.9425926,9.36842105 10.8018519,9.15789474 10.5907407,9.01754386 C10.1685185,8.77192982 9.71111111,8.59649123 9.21851852,8.49122807 C8.19814815,8.24561404 7.45925926,7.96491228 7.07222222,7.61403509 C6.61481481,7.26315789 6.4037037,6.73684211 6.4037037,6.24561404 C6.36851852,5.64912281 6.65,5.05263158 7.10740741,4.66666667 C7.63518519,4.21052632 8.33888889,3.89473684 9.11296296,3.78947368 L9.11296296,3.22807018 C9.11296296,3.0877193 9.14814815,2.9122807 9.2537037,2.77192982 C9.35925926,2.66666667 9.5,2.56140351 9.71111111,2.63157895 C9.85185185,2.63157895 10.0277778,2.63157895 10.1685185,2.73684211 C10.2740741,2.87719298 10.3092593,3.05263158 10.3092593,3.19298246 L10.3092593,3.71929825 C10.9074074,3.71929825 11.5407407,3.85964912 12.1037037,4.14035088 C12.5611111,4.38596491 12.7722222,4.59649123 12.7722222,4.94736842 C12.7722222,5.15789474 12.6666667,5.36842105 12.4555556,5.50877193 C12.2444444,5.64912281 11.9981481,5.75438596 11.7518519,5.75438596 C11.6111111,5.75438596 11.2944444,5.71929825 10.8722222,5.64912281 C10.5555556,5.54385965 10.2740741,5.54385965 9.88703704,5.54385965 C9.64074074,5.54385965 9.32407407,5.57894737 9.07777778,5.68421053 C8.86666667,5.78947368 8.76111111,6 8.76111111,6.21052632 C8.76111111,6.56140351 9.21851852,6.77192982 10.0277778,7.01754386 C10.1685185,7.05263158 10.3444444,7.12280702 10.5555556,7.12280702 C11.3648148,7.26315789 12.0333333,7.64912281 12.6666667,8.10526316 C13.1240741,8.52631579 13.3351852,9.01754386 13.3351852,9.54385965 C13.3351852,10.2105263 13.0185185,10.8070175 12.4555556,11.3333333 C11.8925926,11.8596491 11.0833333,12.1403509 10.2388889,12.2105263 L10.2388889,12.9824561 C10.2388889,13.122807 10.2037037,13.2982456 10.0981481,13.4385965 C9.99259259,13.5438596 9.85185185,13.6491228 9.64074074,13.5789474 C9.5,13.5789474 9.32407407,13.5789474 9.18333333,13.4736842 C9.07777778,13.3333333 9.04259259,13.1578947 9.04259259,13.0175439 L9.04259259,12.1403509 C9.07777778,12 9.14814815,12 9.14814815,12 Z" id="Shape" fill="#FFFFFF"></path>
                            </g>
                            <g transform="translate(0.000000, 3.859649)">
                                <path d="M19.562963,10.4210526 C19.562963,14.7017544 15.2,18.245614 9.78148148,18.245614 C4.36296296,18.245614 0,14.7719298 0,10.4210526 L0,8.52631579 C0.246296296,4.38596491 4.5037037,2.59649123 9.78148148,2.59649123 C15.0240741,2.59649123 19.2814815,4.1754386 19.562963,8.31578947 L19.562963,10.4210526 Z" id="Shape" fill="#E89472"></path>
                                <ellipse id="Oval" fill="#FFC18B" cx="9.78148148" cy="7.8245614" rx="9.78148148" ry="7.8245614"></ellipse>
                                <ellipse id="Oval" fill="#FFFFFF" opacity="0.2" cx="10.0277778" cy="5.01754386" rx="6.50925926" ry="4.24561404"></ellipse>
                                <path d="M9.14814815,11.3333333 C8.44444444,11.3333333 7.70555556,11.122807 7.03703704,10.877193 C6.50925926,10.6315789 6.22777778,10.3508772 6.22777778,10.0701754 C6.19259259,9.85964912 6.33333333,9.64912281 6.54444444,9.50877193 C6.75555556,9.36842105 7.07222222,9.26315789 7.3537037,9.26315789 C7.77592593,9.29824561 8.05740741,9.36842105 8.44444444,9.50877193 C8.90185185,9.61403509 9.32407407,9.71929825 9.81666667,9.75438596 C10.1333333,9.75438596 10.4148148,9.71929825 10.6259259,9.50877193 C10.837037,9.36842105 10.9425926,9.15789474 10.9425926,8.94736842 C10.9425926,8.70175439 10.8018519,8.49122807 10.5907407,8.35087719 C10.1685185,8.10526316 9.71111111,7.92982456 9.21851852,7.8245614 C8.19814815,7.57894737 7.45925926,7.29824561 7.07222222,6.94736842 C6.61481481,6.59649123 6.4037037,6.07017544 6.4037037,5.57894737 C6.36851852,4.98245614 6.65,4.38596491 7.10740741,4 C7.63518519,3.54385965 8.33888889,3.22807018 9.11296296,3.12280702 L9.11296296,2.56140351 C9.11296296,2.42105263 9.14814815,2.24561404 9.2537037,2.10526316 C9.35925926,1.96491228 9.5,1.89473684 9.71111111,1.96491228 C9.85185185,1.96491228 10.0277778,1.96491228 10.1685185,2.07017544 C10.2740741,2.21052632 10.3092593,2.38596491 10.3092593,2.52631579 L10.3092593,3.05263158 C10.9074074,3.05263158 11.5407407,3.19298246 12.1037037,3.47368421 C12.5611111,3.71929825 12.7722222,3.92982456 12.7722222,4.28070175 C12.7722222,4.49122807 12.6666667,4.70175439 12.4555556,4.84210526 C12.2444444,4.98245614 11.9981481,5.0877193 11.7518519,5.0877193 C11.6111111,5.0877193 11.2944444,5.05263158 10.8722222,4.98245614 C10.5555556,4.87719298 10.2740741,4.87719298 9.88703704,4.87719298 C9.64074074,4.87719298 9.32407407,4.9122807 9.07777778,5.01754386 C8.86666667,5.12280702 8.76111111,5.33333333 8.76111111,5.54385965 C8.76111111,5.89473684 9.21851852,6.10526316 10.0277778,6.35087719 C10.1685185,6.38596491 10.3444444,6.45614035 10.5555556,6.45614035 C11.3648148,6.59649123 12.0333333,6.98245614 12.6666667,7.43859649 C13.1240741,7.85964912 13.3351852,8.35087719 13.3351852,8.87719298 C13.3351852,9.54385965 13.0185185,10.1403509 12.4555556,10.6666667 C11.8925926,11.1929825 11.0833333,11.4736842 10.2388889,11.5438596 L10.2388889,12.3157895 C10.2388889,12.4561404 10.2037037,12.6315789 10.0981481,12.7719298 C9.99259259,12.877193 9.85185185,12.9824561 9.64074074,12.9122807 C9.5,12.9122807 9.32407407,12.9122807 9.18333333,12.8070175 C9.07777778,12.6666667 9.04259259,12.4912281 9.04259259,12.3508772 L9.04259259,11.3684211 L9.14814815,11.3684211 L9.14814815,11.3333333 Z" id="Shape" fill="#E89472"></path>
                                <path d="M9.14814815,11.8596491 C8.44444444,11.8596491 7.70555556,11.6491228 7.03703704,11.4035088 C6.50925926,11.1578947 6.22777778,10.877193 6.22777778,10.5964912 C6.19259259,10.3859649 6.33333333,10.1754386 6.54444444,10.0350877 C6.75555556,9.89473684 7.07222222,9.78947368 7.3537037,9.78947368 C7.77592593,9.8245614 8.05740741,9.89473684 8.44444444,10.0350877 C8.90185185,10.1403509 9.32407407,10.245614 9.81666667,10.2807018 C10.1333333,10.2807018 10.4148148,10.245614 10.6259259,10.0350877 C10.837037,9.89473684 10.9425926,9.68421053 10.9425926,9.47368421 C10.9425926,9.22807018 10.8018519,9.01754386 10.5907407,8.87719298 C10.1685185,8.63157895 9.71111111,8.45614035 9.21851852,8.35087719 C8.19814815,8.10526316 7.45925926,7.8245614 7.07222222,7.47368421 C6.61481481,7.12280702 6.4037037,6.59649123 6.4037037,6.10526316 C6.36851852,5.50877193 6.65,4.9122807 7.10740741,4.52631579 C7.63518519,4.07017544 8.33888889,3.75438596 9.11296296,3.64912281 L9.11296296,3.0877193 C9.11296296,2.94736842 9.14814815,2.77192982 9.2537037,2.63157895 C9.35925926,2.49122807 9.5,2.42105263 9.71111111,2.49122807 C9.85185185,2.49122807 10.0277778,2.49122807 10.1685185,2.59649123 C10.2740741,2.73684211 10.3092593,2.9122807 10.3092593,3.05263158 L10.3092593,3.57894737 C10.9074074,3.57894737 11.5407407,3.71929825 12.1037037,4 C12.5611111,4.24561404 12.7722222,4.45614035 12.7722222,4.80701754 C12.7722222,5.01754386 12.6666667,5.22807018 12.4555556,5.36842105 C12.2444444,5.50877193 11.9981481,5.61403509 11.7518519,5.61403509 C11.6111111,5.61403509 11.2944444,5.57894737 10.8722222,5.50877193 C10.5555556,5.40350877 10.2740741,5.40350877 9.88703704,5.40350877 C9.64074074,5.40350877 9.32407407,5.43859649 9.07777778,5.54385965 C8.86666667,5.64912281 8.76111111,5.85964912 8.76111111,6.07017544 C8.76111111,6.42105263 9.21851852,6.63157895 10.0277778,6.87719298 C10.1685185,6.9122807 10.3444444,6.98245614 10.5555556,6.98245614 C11.3648148,7.12280702 12.0333333,7.50877193 12.6666667,7.96491228 C13.1240741,8.38596491 13.3351852,8.87719298 13.3351852,9.40350877 C13.3351852,10.0701754 13.0185185,10.6666667 12.4555556,11.1929825 C11.8925926,11.7192982 11.0833333,12 10.2388889,12.0701754 L10.2388889,12.8421053 C10.2388889,12.9824561 10.2037037,13.1578947 10.0981481,13.2982456 C9.99259259,13.4035088 9.85185185,13.5087719 9.64074074,13.4385965 C9.5,13.4385965 9.32407407,13.4385965 9.18333333,13.3333333 C9.07777778,13.1929825 9.04259259,13.0175439 9.04259259,12.877193 L9.04259259,11.8947368 L9.14814815,11.8947368 L9.14814815,11.8596491 Z" id="Shape" fill="#FFFFFF"></path>
                            </g>
                            <g transform="translate(21.111111, 7.719298)">
                                <path d="M19.9148148,10.5964912 C19.9148148,14.877193 15.5518519,18.4210526 10.1333333,18.4210526 C4.71481481,18.4210526 0.351851852,14.9473684 0.351851852,10.5964912 L0.351851852,8.70175439 C0.598148148,4.56140351 4.85555556,2.77192982 10.1333333,2.77192982 C15.3759259,2.80701754 19.6685185,4.42105263 19.9148148,8.49122807 L19.9148148,10.5964912 Z" id="Shape" fill="#E89472"></path>
                                <ellipse id="Oval" fill="#FFC18B" cx="10.0981481" cy="8.03508772" rx="9.78148148" ry="7.8245614"></ellipse>
                                <ellipse id="Oval" fill="#FFFFFF" opacity="0.2" cx="10.3796296" cy="5.19298246" rx="6.50925926" ry="4.24561404"></ellipse>
                                <path d="M9.5,11.5438596 C8.7962963,11.5438596 8.05740741,11.3333333 7.38888889,11.0877193 C6.86111111,10.8421053 6.57962963,10.5614035 6.57962963,10.2807018 C6.54444444,10.0701754 6.68518519,9.85964912 6.8962963,9.71929825 C7.10740741,9.57894737 7.42407407,9.47368421 7.70555556,9.47368421 C8.12777778,9.50877193 8.40925926,9.57894737 8.7962963,9.71929825 C9.2537037,9.8245614 9.67592593,9.92982456 10.1685185,9.96491228 C10.4851852,9.96491228 10.7666667,9.92982456 10.9777778,9.71929825 C11.1888889,9.57894737 11.2944444,9.36842105 11.2944444,9.15789474 C11.2944444,8.9122807 11.1537037,8.70175439 10.9425926,8.56140351 C10.5203704,8.31578947 10.062963,8.14035088 9.57037037,8.03508772 C8.55,7.78947368 7.81111111,7.50877193 7.42407407,7.15789474 C6.96666667,6.80701754 6.75555556,6.28070175 6.75555556,5.78947368 C6.72037037,5.19298246 7.00185185,4.59649123 7.45925926,4.21052632 C7.98703704,3.75438596 8.69074074,3.43859649 9.46481481,3.33333333 L9.46481481,2.77192982 C9.46481481,2.63157895 9.5,2.45614035 9.60555556,2.31578947 C9.71111111,2.21052632 9.85185185,2.10526316 10.062963,2.1754386 C10.2037037,2.1754386 10.3796296,2.1754386 10.5203704,2.28070175 C10.6259259,2.42105263 10.6611111,2.59649123 10.6611111,2.73684211 L10.6611111,3.26315789 C11.2592593,3.26315789 11.8925926,3.40350877 12.4555556,3.68421053 C12.912963,3.92982456 13.1240741,4.14035088 13.1240741,4.49122807 C13.1240741,4.70175439 13.0185185,4.9122807 12.8074074,5.05263158 C12.5962963,5.19298246 12.35,5.29824561 12.1037037,5.29824561 C11.962963,5.29824561 11.6462963,5.26315789 11.2240741,5.19298246 C10.8018519,4.98245614 10.5203704,4.98245614 10.2037037,4.98245614 C9.95740741,4.98245614 9.64074074,5.01754386 9.39444444,5.12280702 C9.18333333,5.22807018 9.07777778,5.43859649 9.07777778,5.64912281 C9.07777778,6 9.53518519,6.21052632 10.3444444,6.45614035 C10.4851852,6.49122807 10.6611111,6.56140351 10.8722222,6.56140351 C11.6814815,6.70175439 12.35,7.0877193 12.9833333,7.54385965 C13.4407407,7.96491228 13.6518519,8.45614035 13.6518519,8.98245614 C13.6518519,9.64912281 13.3351852,10.245614 12.7722222,10.7719298 C12.2092593,11.2982456 11.4,11.5789474 10.5555556,11.6491228 L10.5555556,12.4210526 C10.5555556,12.5614035 10.5203704,12.7368421 10.4148148,12.877193 C10.3092593,12.9824561 10.1685185,13.0877193 9.95740741,13.0175439 C9.81666667,13.0175439 9.64074074,13.0175439 9.5,12.9122807 C9.39444444,12.7719298 9.35925926,12.5964912 9.35925926,12.4561404 L9.35925926,11.5789474 C9.39444444,11.5438596 9.5,11.5438596 9.5,11.5438596 Z" id="Shape" fill="#E89472"></path>
                                <path d="M9.5,12.0350877 C8.7962963,12.0350877 8.05740741,11.8245614 7.38888889,11.5789474 C6.86111111,11.3333333 6.57962963,11.0526316 6.57962963,10.7719298 C6.54444444,10.5614035 6.68518519,10.3508772 6.8962963,10.2105263 C7.10740741,10.0701754 7.42407407,9.96491228 7.70555556,9.96491228 C8.12777778,10 8.40925926,10.0701754 8.7962963,10.2105263 C9.2537037,10.3157895 9.67592593,10.4210526 10.1685185,10.4561404 C10.4851852,10.4561404 10.7666667,10.4210526 10.9777778,10.2105263 C11.1888889,10.0701754 11.2944444,9.85964912 11.2944444,9.64912281 C11.2944444,9.40350877 11.1537037,9.19298246 10.9425926,9.05263158 C10.5203704,8.80701754 10.062963,8.63157895 9.57037037,8.52631579 C8.55,8.28070175 7.81111111,8 7.42407407,7.64912281 C6.96666667,7.29824561 6.75555556,6.77192982 6.75555556,6.28070175 C6.72037037,5.68421053 7.00185185,5.0877193 7.45925926,4.70175439 C7.98703704,4.24561404 8.69074074,3.92982456 9.46481481,3.8245614 L9.46481481,3.26315789 C9.46481481,3.12280702 9.5,2.94736842 9.60555556,2.80701754 C9.71111111,2.70175439 9.85185185,2.59649123 10.062963,2.66666667 C10.2037037,2.66666667 10.3796296,2.66666667 10.5203704,2.77192982 C10.6259259,2.9122807 10.6611111,3.0877193 10.6611111,3.22807018 L10.6611111,3.75438596 C11.2592593,3.75438596 11.8925926,3.89473684 12.4555556,4.1754386 C12.912963,4.42105263 13.1240741,4.63157895 13.1240741,4.98245614 C13.1240741,5.19298246 13.0185185,5.40350877 12.8074074,5.54385965 C12.5962963,5.68421053 12.35,5.78947368 12.1037037,5.78947368 C11.962963,5.78947368 11.6462963,5.75438596 11.2240741,5.68421053 C10.8018519,5.47368421 10.5203704,5.47368421 10.2037037,5.47368421 C9.95740741,5.47368421 9.64074074,5.50877193 9.39444444,5.61403509 C9.18333333,5.71929825 9.07777778,5.92982456 9.07777778,6.14035088 C9.07777778,6.49122807 9.53518519,6.70175439 10.3444444,6.94736842 C10.4851852,6.98245614 10.6611111,7.05263158 10.8722222,7.05263158 C11.6814815,7.19298246 12.35,7.57894737 12.9833333,8.03508772 C13.4407407,8.45614035 13.6518519,8.94736842 13.6518519,9.47368421 C13.6518519,10.1403509 13.3351852,10.7368421 12.7722222,11.2631579 C12.2092593,11.7894737 11.4,12.0701754 10.5555556,12.1403509 L10.5555556,12.9122807 C10.5555556,13.0526316 10.5203704,13.2280702 10.4148148,13.3684211 C10.3092593,13.4736842 10.1685185,13.5789474 9.95740741,13.5087719 C9.81666667,13.5087719 9.64074074,13.5087719 9.5,13.4035088 C9.39444444,13.2631579 9.35925926,13.0877193 9.35925926,12.9473684 L9.35925926,12.0701754 C9.39444444,12.0350877 9.5,12.0350877 9.5,12.0350877 Z" id="Shape" fill="#FFFFFF"></path>
                            </g>
                            <g transform="translate(21.111111, 4.210526)">
                                <path d="M19.9148148,10.7017544 C19.9148148,14.9824561 15.5518519,18.5263158 10.1333333,18.5263158 C4.71481481,18.5263158 0.351851852,15.0526316 0.351851852,10.7017544 L0.351851852,8.80701754 C0.598148148,4.66666667 4.85555556,2.87719298 10.1333333,2.87719298 C15.3759259,2.87719298 19.6333333,4.45614035 19.9148148,8.59649123 L19.9148148,10.7017544 Z" id="Shape" fill="#E89472"></path>
                                <ellipse id="Oval" fill="#FFC18B" cx="10.0981481" cy="8.07017544" rx="9.78148148" ry="7.8245614"></ellipse>
                                <ellipse id="Oval" fill="#FFFFFF" opacity="0.2" cx="10.3796296" cy="5.22807018" rx="6.50925926" ry="4.24561404"></ellipse>
                                <path d="M9.5,11.6140351 C8.7962963,11.6140351 8.05740741,11.4035088 7.38888889,11.1578947 C6.86111111,10.9122807 6.57962963,10.6315789 6.57962963,10.3508772 C6.54444444,10.1403509 6.68518519,9.92982456 6.8962963,9.78947368 C7.10740741,9.64912281 7.42407407,9.54385965 7.70555556,9.54385965 C8.12777778,9.57894737 8.40925926,9.64912281 8.7962963,9.78947368 C9.2537037,9.89473684 9.67592593,10 10.1685185,10.0350877 C10.4851852,10.0350877 10.7666667,10 10.9777778,9.78947368 C11.1888889,9.64912281 11.2944444,9.43859649 11.2944444,9.22807018 C11.2944444,8.98245614 11.1537037,8.77192982 10.9425926,8.63157895 C10.5203704,8.38596491 10.062963,8.21052632 9.57037037,8.10526316 C8.55,7.85964912 7.81111111,7.57894737 7.42407407,7.22807018 C6.96666667,6.87719298 6.75555556,6.35087719 6.75555556,5.85964912 C6.72037037,5.26315789 7.00185185,4.66666667 7.45925926,4.28070175 C7.98703704,3.8245614 8.69074074,3.50877193 9.46481481,3.40350877 L9.46481481,2.80701754 C9.46481481,2.66666667 9.5,2.49122807 9.60555556,2.35087719 C9.71111111,2.24561404 9.85185185,2.14035088 10.062963,2.21052632 C10.2037037,2.21052632 10.3796296,2.21052632 10.5203704,2.31578947 C10.6259259,2.45614035 10.6611111,2.63157895 10.6611111,2.77192982 L10.6611111,3.29824561 C11.2592593,3.29824561 11.8925926,3.43859649 12.4555556,3.71929825 C12.912963,3.96491228 13.1240741,4.1754386 13.1240741,4.52631579 C13.1240741,4.73684211 13.0185185,4.94736842 12.8074074,5.0877193 C12.5962963,5.22807018 12.35,5.33333333 12.1037037,5.33333333 C11.962963,5.33333333 11.6462963,5.29824561 11.2240741,5.22807018 C10.9074074,5.12280702 10.6259259,5.12280702 10.2388889,5.12280702 C9.99259259,5.12280702 9.67592593,5.15789474 9.42962963,5.26315789 C9.21851852,5.36842105 9.11296296,5.57894737 9.11296296,5.78947368 C9.11296296,6.14035088 9.57037037,6.35087719 10.3796296,6.59649123 C10.5203704,6.63157895 10.6962963,6.70175439 10.9074074,6.70175439 C11.7166667,6.84210526 12.3851852,7.22807018 13.0185185,7.68421053 C13.4759259,8.10526316 13.687037,8.59649123 13.687037,9.12280702 C13.687037,9.78947368 13.3703704,10.3859649 12.8074074,10.9122807 C12.2444444,11.4385965 11.4351852,11.7192982 10.5907407,11.7894737 L10.5907407,12.5614035 C10.5907407,12.7017544 10.5555556,12.877193 10.45,13.0175439 C10.3444444,13.122807 10.2037037,13.2280702 9.99259259,13.1578947 C9.85185185,13.1578947 9.67592593,13.1578947 9.53518519,13.0526316 C9.42962963,12.9122807 9.39444444,12.7368421 9.39444444,12.5964912 L9.39444444,11.7192982 C9.39444444,11.6140351 9.5,11.6140351 9.5,11.6140351 Z" id="Shape" fill="#E89472"></path>
                                <path d="M9.5,12.1403509 C8.7962963,12.1403509 8.05740741,11.9298246 7.38888889,11.6842105 C6.86111111,11.4385965 6.57962963,11.1578947 6.57962963,10.877193 C6.54444444,10.6666667 6.68518519,10.4561404 6.8962963,10.3157895 C7.10740741,10.1754386 7.42407407,10.0701754 7.70555556,10.0701754 C8.12777778,10.1052632 8.40925926,10.1754386 8.7962963,10.3157895 C9.2537037,10.4210526 9.67592593,10.5263158 10.1685185,10.5614035 C10.4851852,10.5614035 10.7666667,10.5263158 10.9777778,10.3157895 C11.1888889,10.1754386 11.2944444,9.96491228 11.2944444,9.75438596 C11.2944444,9.50877193 11.1537037,9.29824561 10.9425926,9.15789474 C10.5203704,8.9122807 10.062963,8.73684211 9.57037037,8.63157895 C8.55,8.38596491 7.81111111,8.10526316 7.42407407,7.75438596 C6.96666667,7.40350877 6.75555556,6.87719298 6.75555556,6.38596491 C6.72037037,5.78947368 7.00185185,5.19298246 7.45925926,4.80701754 C7.98703704,4.35087719 8.69074074,4.03508772 9.46481481,3.92982456 L9.46481481,3.36842105 C9.46481481,3.22807018 9.5,3.05263158 9.60555556,2.9122807 C9.71111111,2.80701754 9.85185185,2.70175439 10.062963,2.77192982 C10.2037037,2.77192982 10.3796296,2.77192982 10.5203704,2.87719298 C10.6259259,3.01754386 10.6611111,3.19298246 10.6611111,3.33333333 L10.6611111,3.85964912 C11.2592593,3.85964912 11.8925926,4 12.4555556,4.28070175 C12.912963,4.52631579 13.1240741,4.73684211 13.1240741,5.0877193 C13.1240741,5.29824561 13.0185185,5.50877193 12.8074074,5.64912281 C12.5962963,5.78947368 12.35,5.89473684 12.1037037,5.89473684 C11.962963,5.89473684 11.6462963,5.85964912 11.2240741,5.78947368 C10.9074074,5.68421053 10.6259259,5.68421053 10.2388889,5.68421053 C9.99259259,5.68421053 9.67592593,5.71929825 9.42962963,5.8245614 C9.21851852,5.92982456 9.11296296,6.14035088 9.11296296,6.35087719 C9.11296296,6.70175439 9.57037037,6.9122807 10.3796296,7.15789474 C10.5203704,7.19298246 10.6962963,7.26315789 10.9074074,7.26315789 C11.7166667,7.40350877 12.3851852,7.78947368 13.0185185,8.24561404 C13.4759259,8.66666667 13.687037,9.15789474 13.687037,9.68421053 C13.687037,10.3508772 13.3703704,10.9473684 12.8074074,11.4736842 C12.2444444,12 11.4351852,12.2807018 10.5907407,12.3508772 L10.5907407,13.122807 C10.5907407,13.2631579 10.5555556,13.4385965 10.45,13.5789474 C10.3444444,13.6842105 10.2037037,13.7894737 9.99259259,13.7192982 C9.85185185,13.7192982 9.67592593,13.7192982 9.53518519,13.6140351 C9.42962963,13.4736842 9.39444444,13.2982456 9.39444444,13.1578947 L9.39444444,12.2807018 C9.39444444,12.1403509 9.5,12.1403509 9.5,12.1403509 Z" id="Shape" fill="#FFF0E0"></path>
                            </g>
                            <g>
                                <path d="M19.562963,10.7719298 C19.562963,15.0526316 15.2,18.5964912 9.78148148,18.5964912 C4.36296296,18.5964912 0,15.122807 0,10.7719298 L0,8.87719298 C0.246296296,4.73684211 4.57407407,2.94736842 9.78148148,2.94736842 C14.9888889,2.94736842 19.2814815,4.52631579 19.562963,8.66666667 L19.562963,10.7719298 Z" id="Shape" fill="#E89472"></path>
                                <ellipse id="Oval" fill="#FFC18B" cx="9.78148148" cy="8.14035088" rx="9.78148148" ry="7.8245614"></ellipse>
                                <ellipse id="Oval" fill="#FFFFFF" opacity="0.2" cx="10.0277778" cy="5.29824561" rx="6.50925926" ry="4.24561404"></ellipse>
                                <path d="M9.14814815,11.6842105 C8.44444444,11.6842105 7.70555556,11.4736842 7.03703704,11.2280702 C6.50925926,10.9824561 6.22777778,10.7017544 6.22777778,10.4210526 C6.19259259,10.2105263 6.33333333,10 6.54444444,9.85964912 C6.75555556,9.71929825 7.07222222,9.61403509 7.3537037,9.61403509 C7.77592593,9.64912281 8.05740741,9.71929825 8.44444444,9.85964912 C8.90185185,9.96491228 9.32407407,10.0701754 9.81666667,10.1052632 C10.1333333,10.1052632 10.4148148,10.0701754 10.6259259,9.85964912 C10.837037,9.71929825 10.9425926,9.50877193 10.9425926,9.29824561 C10.9425926,9.05263158 10.8018519,8.84210526 10.5907407,8.70175439 C10.1685185,8.45614035 9.71111111,8.28070175 9.21851852,8.1754386 C8.19814815,7.92982456 7.45925926,7.64912281 7.07222222,7.29824561 C6.61481481,6.94736842 6.4037037,6.42105263 6.4037037,5.92982456 C6.36851852,5.33333333 6.65,4.73684211 7.10740741,4.35087719 C7.63518519,3.89473684 8.33888889,3.57894737 9.11296296,3.47368421 L9.11296296,2.9122807 C9.11296296,2.77192982 9.14814815,2.59649123 9.2537037,2.45614035 C9.35925926,2.31578947 9.5,2.24561404 9.71111111,2.31578947 C9.85185185,2.31578947 10.0277778,2.31578947 10.1685185,2.42105263 C10.2740741,2.56140351 10.3092593,2.73684211 10.3092593,2.87719298 L10.3092593,3.40350877 C10.9074074,3.40350877 11.5407407,3.54385965 12.1037037,3.8245614 C12.5611111,4.07017544 12.7722222,4.28070175 12.7722222,4.63157895 C12.7722222,4.84210526 12.6666667,5.05263158 12.4555556,5.19298246 C12.2444444,5.33333333 11.9981481,5.43859649 11.7518519,5.43859649 C11.6111111,5.43859649 11.2944444,5.40350877 10.8722222,5.33333333 C10.5555556,5.22807018 10.2740741,5.22807018 9.88703704,5.22807018 C9.64074074,5.22807018 9.32407407,5.26315789 9.07777778,5.36842105 C8.86666667,5.47368421 8.76111111,5.68421053 8.76111111,5.89473684 C8.76111111,6.24561404 9.21851852,6.45614035 10.0277778,6.70175439 C10.1685185,6.73684211 10.3444444,6.80701754 10.5555556,6.80701754 C11.3648148,6.94736842 12.0333333,7.33333333 12.6666667,7.78947368 C13.1240741,8.21052632 13.3351852,8.70175439 13.3351852,9.22807018 C13.3351852,9.89473684 13.0185185,10.4912281 12.4555556,11.0175439 C11.8925926,11.5438596 11.0833333,11.8245614 10.2388889,11.8947368 L10.2388889,12.6666667 C10.2388889,12.8070175 10.2037037,12.9824561 10.0981481,13.122807 C9.99259259,13.2280702 9.85185185,13.3333333 9.64074074,13.2631579 C9.5,13.2631579 9.32407407,13.2631579 9.18333333,13.1578947 C9.07777778,13.0175439 9.04259259,12.8421053 9.04259259,12.7017544 L9.04259259,11.8245614 C9.07777778,11.6842105 9.14814815,11.6842105 9.14814815,11.6842105 Z" id="Shape" fill="#E89472"></path>
                                <path d="M9.14814815,12.1754386 C8.44444444,12.1754386 7.70555556,11.9649123 7.03703704,11.7192982 C6.50925926,11.4736842 6.22777778,11.1929825 6.22777778,10.9122807 C6.19259259,10.7017544 6.33333333,10.4912281 6.54444444,10.3508772 C6.75555556,10.2105263 7.07222222,10.1052632 7.3537037,10.1052632 C7.77592593,10.1403509 8.05740741,10.2105263 8.44444444,10.3508772 C8.90185185,10.4561404 9.32407407,10.5614035 9.81666667,10.5964912 C10.1333333,10.5964912 10.4148148,10.5614035 10.6259259,10.3508772 C10.837037,10.2105263 10.9425926,10 10.9425926,9.78947368 C10.9425926,9.54385965 10.8018519,9.33333333 10.5907407,9.19298246 C10.1685185,8.94736842 9.71111111,8.77192982 9.21851852,8.66666667 C8.19814815,8.42105263 7.45925926,8.14035088 7.07222222,7.78947368 C6.61481481,7.43859649 6.4037037,6.9122807 6.4037037,6.42105263 C6.36851852,5.8245614 6.65,5.22807018 7.10740741,4.84210526 C7.63518519,4.38596491 8.33888889,4.07017544 9.11296296,3.96491228 L9.11296296,3.40350877 C9.11296296,3.26315789 9.14814815,3.0877193 9.2537037,2.94736842 C9.35925926,2.80701754 9.5,2.73684211 9.71111111,2.80701754 C9.85185185,2.80701754 10.0277778,2.80701754 10.1685185,2.9122807 C10.2740741,3.05263158 10.3092593,3.22807018 10.3092593,3.36842105 L10.3092593,3.89473684 C10.9074074,3.89473684 11.5407407,4.03508772 12.1037037,4.31578947 C12.5611111,4.56140351 12.7722222,4.77192982 12.7722222,5.12280702 C12.7722222,5.33333333 12.6666667,5.54385965 12.4555556,5.68421053 C12.2444444,5.8245614 11.9981481,5.92982456 11.7518519,5.92982456 C11.6111111,5.92982456 11.2944444,5.89473684 10.8722222,5.8245614 C10.5555556,5.71929825 10.2740741,5.71929825 9.88703704,5.71929825 C9.64074074,5.71929825 9.32407407,5.75438596 9.07777778,5.85964912 C8.86666667,5.96491228 8.76111111,6.1754386 8.76111111,6.38596491 C8.76111111,6.73684211 9.21851852,6.94736842 10.0277778,7.19298246 C10.1685185,7.22807018 10.3444444,7.29824561 10.5555556,7.29824561 C11.3648148,7.43859649 12.0333333,7.8245614 12.6666667,8.28070175 C13.1240741,8.70175439 13.3351852,9.19298246 13.3351852,9.71929825 C13.3351852,10.3859649 13.0185185,10.9824561 12.4555556,11.5087719 C11.8925926,12.0350877 11.0833333,12.3157895 10.2388889,12.3859649 L10.2388889,13.1578947 C10.2388889,13.2982456 10.2037037,13.4736842 10.0981481,13.6140351 C9.99259259,13.7192982 9.85185185,13.8245614 9.64074074,13.754386 C9.5,13.754386 9.32407407,13.754386 9.18333333,13.6491228 C9.07777778,13.5087719 9.04259259,13.3333333 9.04259259,13.1929825 L9.04259259,12.2807018 C9.07777778,12.1754386 9.14814815,12.1754386 9.14814815,12.1754386 Z" id="Shape" fill="#FFF0E0"></path>
                            </g>
                        </g>
                        <g>
                            <g transform="translate(0.000000, 7.017544)">
                                <path d="M19.562963,10.6666667 C19.562963,14.9473684 15.2,18.4912281 9.78148148,18.4912281 C4.36296296,18.4912281 0,15.0175439 0,10.6666667 L0,8.77192982 C0.246296296,4.63157895 4.57407407,2.84210526 9.78148148,2.84210526 C14.9888889,2.84210526 19.2814815,4.42105263 19.562963,8.56140351 L19.562963,10.6666667 Z" id="Shape" fill="#E89472"></path>
                                <ellipse id="Oval" fill="#FFC18B" cx="9.78148148" cy="8.07017544" rx="9.78148148" ry="7.8245614"></ellipse>
                                <ellipse id="Oval" fill="#FFFFFF" opacity="0.2" cx="10.0277778" cy="5.26315789" rx="6.50925926" ry="4.24561404"></ellipse>
                                <path d="M9.14814815,11.5789474 C8.44444444,11.5789474 7.70555556,11.3684211 7.03703704,11.122807 C6.50925926,10.877193 6.22777778,10.5964912 6.22777778,10.3157895 C6.19259259,10.1052632 6.33333333,9.89473684 6.54444444,9.75438596 C6.75555556,9.61403509 7.07222222,9.50877193 7.3537037,9.50877193 C7.77592593,9.54385965 8.05740741,9.61403509 8.44444444,9.75438596 C8.90185185,9.85964912 9.32407407,9.96491228 9.81666667,10 C10.1333333,10 10.4148148,9.96491228 10.6259259,9.75438596 C10.837037,9.61403509 10.9425926,9.40350877 10.9425926,9.19298246 C10.9425926,8.94736842 10.8018519,8.73684211 10.5907407,8.59649123 C10.1685185,8.35087719 9.71111111,8.1754386 9.21851852,8.07017544 C8.19814815,7.8245614 7.45925926,7.54385965 7.07222222,7.19298246 C6.61481481,6.84210526 6.4037037,6.31578947 6.4037037,5.8245614 C6.36851852,5.22807018 6.65,4.63157895 7.10740741,4.24561404 C7.63518519,3.78947368 8.33888889,3.47368421 9.11296296,3.36842105 L9.11296296,2.80701754 C9.11296296,2.66666667 9.14814815,2.49122807 9.2537037,2.35087719 C9.35925926,2.21052632 9.5,2.14035088 9.71111111,2.21052632 C9.85185185,2.21052632 10.0277778,2.21052632 10.1685185,2.31578947 C10.2740741,2.45614035 10.3092593,2.63157895 10.3092593,2.77192982 L10.3092593,3.29824561 C10.9074074,3.29824561 11.5407407,3.43859649 12.1037037,3.71929825 C12.5611111,3.96491228 12.7722222,4.1754386 12.7722222,4.52631579 C12.7722222,4.73684211 12.6666667,4.94736842 12.4555556,5.0877193 C12.2444444,5.22807018 11.9981481,5.33333333 11.7518519,5.33333333 C11.6111111,5.33333333 11.2944444,5.29824561 10.8722222,5.22807018 C10.5555556,5.12280702 10.2740741,5.12280702 9.88703704,5.12280702 C9.64074074,5.12280702 9.32407407,5.15789474 9.07777778,5.26315789 C8.86666667,5.36842105 8.76111111,5.57894737 8.76111111,5.78947368 C8.76111111,6.14035088 9.21851852,6.35087719 10.0277778,6.59649123 C10.1685185,6.63157895 10.3444444,6.70175439 10.5555556,6.70175439 C11.3648148,6.84210526 12.0333333,7.22807018 12.6666667,7.68421053 C13.1240741,8.10526316 13.3351852,8.59649123 13.3351852,9.12280702 C13.3351852,9.78947368 13.0185185,10.3859649 12.4555556,10.9122807 C11.8925926,11.4385965 11.0833333,11.7192982 10.2388889,11.7894737 L10.2388889,12.5614035 C10.2388889,12.7017544 10.2037037,12.877193 10.0981481,13.0175439 C9.99259259,13.122807 9.85185185,13.2280702 9.64074074,13.1578947 C9.5,13.1578947 9.32407407,13.1578947 9.18333333,13.0526316 C9.07777778,12.9122807 9.04259259,12.7368421 9.04259259,12.5964912 L9.04259259,11.7192982 C9.07777778,11.5789474 9.14814815,11.5789474 9.14814815,11.5789474 Z" id="Shape" fill="#E89472"></path>
                                <path d="M9.14814815,12.1052632 C8.44444444,12.1052632 7.70555556,11.8947368 7.03703704,11.6491228 C6.50925926,11.4035088 6.22777778,11.122807 6.22777778,10.8421053 C6.19259259,10.6315789 6.33333333,10.4210526 6.54444444,10.2807018 C6.75555556,10.1403509 7.07222222,10.0350877 7.3537037,10.0350877 C7.77592593,10.0701754 8.05740741,10.1403509 8.44444444,10.2807018 C8.90185185,10.3859649 9.32407407,10.4912281 9.81666667,10.5263158 C10.1333333,10.5263158 10.4148148,10.4912281 10.6259259,10.2807018 C10.837037,10.1403509 10.9425926,9.92982456 10.9425926,9.71929825 C10.9425926,9.47368421 10.8018519,9.26315789 10.5907407,9.12280702 C10.1685185,8.87719298 9.71111111,8.70175439 9.21851852,8.59649123 C8.19814815,8.35087719 7.45925926,8.07017544 7.07222222,7.71929825 C6.61481481,7.36842105 6.4037037,6.84210526 6.4037037,6.35087719 C6.36851852,5.75438596 6.65,5.15789474 7.10740741,4.77192982 C7.63518519,4.31578947 8.33888889,4 9.11296296,3.89473684 L9.11296296,3.33333333 C9.11296296,3.19298246 9.14814815,3.01754386 9.2537037,2.87719298 C9.35925926,2.77192982 9.5,2.66666667 9.71111111,2.73684211 C9.85185185,2.73684211 10.0277778,2.73684211 10.1685185,2.84210526 C10.2740741,2.98245614 10.3092593,3.15789474 10.3092593,3.29824561 L10.3092593,3.8245614 C10.9074074,3.8245614 11.5407407,3.96491228 12.1037037,4.24561404 C12.5611111,4.49122807 12.7722222,4.70175439 12.7722222,5.05263158 C12.7722222,5.26315789 12.6666667,5.47368421 12.4555556,5.61403509 C12.2444444,5.75438596 11.9981481,5.85964912 11.7518519,5.85964912 C11.6111111,5.85964912 11.2944444,5.8245614 10.8722222,5.75438596 C10.5555556,5.64912281 10.2740741,5.64912281 9.88703704,5.64912281 C9.64074074,5.64912281 9.32407407,5.68421053 9.07777778,5.78947368 C8.86666667,5.89473684 8.76111111,6.10526316 8.76111111,6.31578947 C8.76111111,6.66666667 9.21851852,6.87719298 10.0277778,7.12280702 C10.1685185,7.15789474 10.3444444,7.22807018 10.5555556,7.22807018 C11.3648148,7.36842105 12.0333333,7.75438596 12.6666667,8.21052632 C13.1240741,8.63157895 13.3351852,9.12280702 13.3351852,9.64912281 C13.3351852,10.3157895 13.0185185,10.9122807 12.4555556,11.4385965 C11.8925926,11.9649123 11.0833333,12.245614 10.2388889,12.3157895 L10.2388889,13.0877193 C10.2388889,13.2280702 10.2037037,13.4035088 10.0981481,13.5438596 C9.99259259,13.6491228 9.85185185,13.754386 9.64074074,13.6842105 C9.5,13.6842105 9.32407407,13.6842105 9.18333333,13.5789474 C9.07777778,13.4385965 9.04259259,13.2631579 9.04259259,13.122807 L9.04259259,12.245614 C9.07777778,12.1052632 9.14814815,12.1052632 9.14814815,12.1052632 Z" id="Shape" fill="#FFFFFF"></path>
                            </g>
                            <g transform="translate(0.000000, 3.508772)">
                                <path d="M19.562963,10.5614035 C19.562963,14.8421053 15.2,18.3859649 9.78148148,18.3859649 C4.36296296,18.3859649 0,14.9122807 0,10.5614035 L0,8.66666667 C0.246296296,4.52631579 4.5037037,2.73684211 9.78148148,2.73684211 C15.0240741,2.73684211 19.2814815,4.31578947 19.562963,8.45614035 L19.562963,10.5614035 Z" id="Shape" fill="#E89472"></path>
                                <ellipse id="Oval" fill="#FFC18B" cx="9.78148148" cy="7.92982456" rx="9.78148148" ry="7.8245614"></ellipse>
                                <ellipse id="Oval" fill="#FFFFFF" opacity="0.2" cx="10.0277778" cy="5.12280702" rx="6.50925926" ry="4.24561404"></ellipse>
                                <path d="M9.14814815,11.4736842 C8.44444444,11.4736842 7.70555556,11.2631579 7.03703704,11.0175439 C6.50925926,10.7719298 6.22777778,10.4912281 6.22777778,10.2105263 C6.19259259,10 6.33333333,9.78947368 6.54444444,9.64912281 C6.75555556,9.50877193 7.07222222,9.40350877 7.3537037,9.40350877 C7.77592593,9.43859649 8.05740741,9.50877193 8.44444444,9.64912281 C8.90185185,9.75438596 9.32407407,9.85964912 9.81666667,9.89473684 C10.1333333,9.89473684 10.4148148,9.85964912 10.6259259,9.64912281 C10.837037,9.50877193 10.9425926,9.29824561 10.9425926,9.0877193 C10.9425926,8.84210526 10.8018519,8.63157895 10.5907407,8.49122807 C10.1685185,8.24561404 9.71111111,8.07017544 9.21851852,7.96491228 C8.19814815,7.71929825 7.45925926,7.43859649 7.07222222,7.0877193 C6.61481481,6.73684211 6.4037037,6.21052632 6.4037037,5.71929825 C6.36851852,5.12280702 6.65,4.52631579 7.10740741,4.14035088 C7.63518519,3.68421053 8.33888889,3.36842105 9.11296296,3.26315789 L9.11296296,2.70175439 C9.11296296,2.56140351 9.14814815,2.38596491 9.2537037,2.24561404 C9.35925926,2.10526316 9.5,2.03508772 9.71111111,2.10526316 C9.85185185,2.10526316 10.0277778,2.10526316 10.1685185,2.21052632 C10.2740741,2.35087719 10.3092593,2.52631579 10.3092593,2.66666667 L10.3092593,3.19298246 C10.9074074,3.19298246 11.5407407,3.33333333 12.1037037,3.61403509 C12.5611111,3.85964912 12.7722222,4.07017544 12.7722222,4.42105263 C12.7722222,4.63157895 12.6666667,4.84210526 12.4555556,4.98245614 C12.2444444,5.12280702 11.9981481,5.22807018 11.7518519,5.22807018 C11.6111111,5.22807018 11.2944444,5.19298246 10.8722222,5.12280702 C10.5555556,5.01754386 10.2740741,5.01754386 9.88703704,5.01754386 C9.64074074,5.01754386 9.32407407,5.05263158 9.07777778,5.15789474 C8.86666667,5.26315789 8.76111111,5.47368421 8.76111111,5.68421053 C8.76111111,6.03508772 9.21851852,6.24561404 10.0277778,6.49122807 C10.1685185,6.52631579 10.3444444,6.59649123 10.5555556,6.59649123 C11.3648148,6.73684211 12.0333333,7.12280702 12.6666667,7.57894737 C13.1240741,8 13.3351852,8.49122807 13.3351852,9.01754386 C13.3351852,9.68421053 13.0185185,10.2807018 12.4555556,10.8070175 C11.8925926,11.3333333 11.0833333,11.6140351 10.2388889,11.6842105 L10.2388889,12.4561404 C10.2388889,12.5964912 10.2037037,12.7719298 10.0981481,12.9122807 C9.99259259,13.0175439 9.85185185,13.122807 9.64074074,13.0526316 C9.5,13.0526316 9.32407407,13.0526316 9.18333333,12.9473684 C9.07777778,12.8070175 9.04259259,12.6315789 9.04259259,12.4912281 L9.04259259,11.5087719 L9.14814815,11.5087719 L9.14814815,11.4736842 Z" id="Shape" fill="#E89472"></path>
                                <path d="M9.14814815,11.9649123 C8.44444444,11.9649123 7.70555556,11.754386 7.03703704,11.5087719 C6.50925926,11.2631579 6.22777778,10.9824561 6.22777778,10.7017544 C6.19259259,10.4912281 6.33333333,10.2807018 6.54444444,10.1403509 C6.75555556,10 7.07222222,9.89473684 7.3537037,9.89473684 C7.77592593,9.92982456 8.05740741,10 8.44444444,10.1403509 C8.90185185,10.245614 9.32407407,10.3508772 9.81666667,10.3859649 C10.1333333,10.3859649 10.4148148,10.3508772 10.6259259,10.1403509 C10.837037,10 10.9425926,9.78947368 10.9425926,9.57894737 C10.9425926,9.33333333 10.8018519,9.12280702 10.5907407,8.98245614 C10.1685185,8.73684211 9.71111111,8.56140351 9.21851852,8.45614035 C8.19814815,8.21052632 7.45925926,7.92982456 7.07222222,7.57894737 C6.61481481,7.22807018 6.4037037,6.70175439 6.4037037,6.21052632 C6.36851852,5.61403509 6.65,5.01754386 7.10740741,4.63157895 C7.63518519,4.1754386 8.33888889,3.85964912 9.11296296,3.75438596 L9.11296296,3.19298246 C9.11296296,3.05263158 9.14814815,2.87719298 9.2537037,2.73684211 C9.35925926,2.59649123 9.5,2.52631579 9.71111111,2.59649123 C9.85185185,2.59649123 10.0277778,2.59649123 10.1685185,2.70175439 C10.2740741,2.84210526 10.3092593,3.01754386 10.3092593,3.15789474 L10.3092593,3.68421053 C10.9074074,3.68421053 11.5407407,3.8245614 12.1037037,4.10526316 C12.5611111,4.35087719 12.7722222,4.56140351 12.7722222,4.9122807 C12.7722222,5.12280702 12.6666667,5.33333333 12.4555556,5.47368421 C12.2444444,5.61403509 11.9981481,5.71929825 11.7518519,5.71929825 C11.6111111,5.71929825 11.2944444,5.68421053 10.8722222,5.61403509 C10.5555556,5.50877193 10.2740741,5.50877193 9.88703704,5.50877193 C9.64074074,5.50877193 9.32407407,5.54385965 9.07777778,5.64912281 C8.86666667,5.75438596 8.76111111,5.96491228 8.76111111,6.1754386 C8.76111111,6.52631579 9.21851852,6.73684211 10.0277778,6.98245614 C10.1685185,7.01754386 10.3444444,7.0877193 10.5555556,7.0877193 C11.3648148,7.22807018 12.0333333,7.61403509 12.6666667,8.07017544 C13.1240741,8.49122807 13.3351852,8.98245614 13.3351852,9.50877193 C13.3351852,10.1754386 13.0185185,10.7719298 12.4555556,11.2982456 C11.8925926,11.8245614 11.0833333,12.1052632 10.2388889,12.1754386 L10.2388889,12.9473684 C10.2388889,13.0877193 10.2037037,13.2631579 10.0981481,13.4035088 C9.99259259,13.5087719 9.85185185,13.6140351 9.64074074,13.5438596 C9.5,13.5438596 9.32407407,13.5438596 9.18333333,13.4385965 C9.07777778,13.2982456 9.04259259,13.122807 9.04259259,12.9824561 L9.04259259,12 L9.14814815,12 L9.14814815,11.9649123 Z" id="Shape" fill="#FFFFFF"></path>
                            </g>
                            <g transform="translate(21.111111, 11.578947)">
                                <path d="M19.9148148,10.4210526 C19.9148148,14.7017544 15.5518519,18.245614 10.1333333,18.245614 C4.71481481,18.245614 0.351851852,14.7719298 0.351851852,10.4210526 L0.351851852,8.52631579 C0.598148148,4.38596491 4.85555556,2.59649123 10.1333333,2.59649123 C15.3759259,2.63157895 19.6685185,4.24561404 19.9148148,8.31578947 L19.9148148,10.4210526 Z" id="Shape" fill="#E89472"></path>
                                <ellipse id="Oval" fill="#FFC18B" cx="10.0981481" cy="7.85964912" rx="9.78148148" ry="7.8245614"></ellipse>
                                <ellipse id="Oval" fill="#FFFFFF" opacity="0.2" cx="10.3796296" cy="4.98245614" rx="6.50925926" ry="4.24561404"></ellipse>
                                <path d="M9.5,11.3333333 C8.7962963,11.3333333 8.05740741,11.122807 7.38888889,10.877193 C6.86111111,10.6315789 6.57962963,10.3508772 6.57962963,10.0701754 C6.54444444,9.85964912 6.68518519,9.64912281 6.8962963,9.50877193 C7.10740741,9.36842105 7.42407407,9.26315789 7.70555556,9.26315789 C8.12777778,9.29824561 8.40925926,9.36842105 8.7962963,9.50877193 C9.2537037,9.61403509 9.67592593,9.71929825 10.1685185,9.75438596 C10.4851852,9.75438596 10.7666667,9.71929825 10.9777778,9.50877193 C11.1888889,9.36842105 11.2944444,9.15789474 11.2944444,8.94736842 C11.2944444,8.70175439 11.1537037,8.49122807 10.9425926,8.35087719 C10.5203704,8.10526316 10.062963,7.92982456 9.57037037,7.8245614 C8.55,7.57894737 7.81111111,7.29824561 7.42407407,6.94736842 C6.96666667,6.59649123 6.75555556,6.07017544 6.75555556,5.57894737 C6.72037037,4.98245614 7.00185185,4.38596491 7.45925926,4 C7.98703704,3.54385965 8.69074074,3.22807018 9.46481481,3.12280702 L9.46481481,2.56140351 C9.46481481,2.42105263 9.5,2.24561404 9.60555556,2.10526316 C9.71111111,2 9.85185185,1.89473684 10.062963,1.96491228 C10.2037037,1.96491228 10.3796296,1.96491228 10.5203704,2.07017544 C10.6259259,2.21052632 10.6611111,2.38596491 10.6611111,2.52631579 L10.6611111,3.05263158 C11.2592593,3.05263158 11.8925926,3.19298246 12.4555556,3.47368421 C12.912963,3.71929825 13.1240741,3.92982456 13.1240741,4.28070175 C13.1240741,4.49122807 13.0185185,4.70175439 12.8074074,4.84210526 C12.5962963,4.98245614 12.35,5.0877193 12.1037037,5.0877193 C11.962963,5.0877193 11.6462963,5.05263158 11.2240741,4.98245614 C10.8018519,4.77192982 10.5203704,4.77192982 10.2037037,4.77192982 C9.95740741,4.77192982 9.64074074,4.80701754 9.39444444,4.9122807 C9.18333333,5.01754386 9.07777778,5.22807018 9.07777778,5.43859649 C9.07777778,5.78947368 9.53518519,6 10.3444444,6.24561404 C10.4851852,6.28070175 10.6611111,6.35087719 10.8722222,6.35087719 C11.6814815,6.49122807 12.35,6.87719298 12.9833333,7.33333333 C13.4407407,7.75438596 13.6518519,8.24561404 13.6518519,8.77192982 C13.6518519,9.43859649 13.3351852,10.0350877 12.7722222,10.5614035 C12.2092593,11.0877193 11.4,11.3684211 10.5555556,11.4385965 L10.5555556,12.2105263 C10.5555556,12.3508772 10.5203704,12.5263158 10.4148148,12.6666667 C10.3092593,12.7719298 10.1685185,12.877193 9.95740741,12.8070175 C9.81666667,12.8070175 9.64074074,12.8070175 9.5,12.7017544 C9.39444444,12.5614035 9.35925926,12.3859649 9.35925926,12.245614 L9.35925926,11.3684211 C9.39444444,11.3333333 9.5,11.3333333 9.5,11.3333333 Z" id="Shape" fill="#E89472"></path>
                                <path d="M9.5,11.8596491 C8.7962963,11.8596491 8.05740741,11.6491228 7.38888889,11.4035088 C6.86111111,11.1578947 6.57962963,10.877193 6.57962963,10.5964912 C6.54444444,10.3859649 6.68518519,10.1754386 6.8962963,10.0350877 C7.10740741,9.89473684 7.42407407,9.78947368 7.70555556,9.78947368 C8.12777778,9.8245614 8.40925926,9.89473684 8.7962963,10.0350877 C9.2537037,10.1403509 9.67592593,10.245614 10.1685185,10.2807018 C10.4851852,10.2807018 10.7666667,10.245614 10.9777778,10.0350877 C11.1888889,9.89473684 11.2944444,9.68421053 11.2944444,9.47368421 C11.2944444,9.22807018 11.1537037,9.01754386 10.9425926,8.87719298 C10.5203704,8.63157895 10.062963,8.45614035 9.57037037,8.35087719 C8.55,8.10526316 7.81111111,7.8245614 7.42407407,7.47368421 C6.96666667,7.12280702 6.75555556,6.59649123 6.75555556,6.10526316 C6.72037037,5.50877193 7.00185185,4.9122807 7.45925926,4.52631579 C7.98703704,4.07017544 8.69074074,3.75438596 9.46481481,3.64912281 L9.46481481,3.0877193 C9.46481481,2.94736842 9.5,2.77192982 9.60555556,2.63157895 C9.71111111,2.52631579 9.85185185,2.42105263 10.062963,2.49122807 C10.2037037,2.49122807 10.3796296,2.49122807 10.5203704,2.59649123 C10.6259259,2.73684211 10.6611111,2.9122807 10.6611111,3.05263158 L10.6611111,3.57894737 C11.2592593,3.57894737 11.8925926,3.71929825 12.4555556,4 C12.912963,4.24561404 13.1240741,4.45614035 13.1240741,4.80701754 C13.1240741,5.01754386 13.0185185,5.22807018 12.8074074,5.36842105 C12.5962963,5.50877193 12.35,5.61403509 12.1037037,5.61403509 C11.962963,5.61403509 11.6462963,5.57894737 11.2240741,5.50877193 C10.8018519,5.29824561 10.5203704,5.29824561 10.2037037,5.29824561 C9.95740741,5.29824561 9.64074074,5.33333333 9.39444444,5.43859649 C9.18333333,5.54385965 9.07777778,5.75438596 9.07777778,5.96491228 C9.07777778,6.31578947 9.53518519,6.52631579 10.3444444,6.77192982 C10.4851852,6.80701754 10.6611111,6.87719298 10.8722222,6.87719298 C11.6814815,7.01754386 12.35,7.40350877 12.9833333,7.85964912 C13.4407407,8.28070175 13.6518519,8.77192982 13.6518519,9.29824561 C13.6518519,9.96491228 13.3351852,10.5614035 12.7722222,11.0877193 C12.2092593,11.6140351 11.4,11.8947368 10.5555556,11.9649123 L10.5555556,12.7368421 C10.5555556,12.877193 10.5203704,13.0526316 10.4148148,13.1929825 C10.3092593,13.2982456 10.1685185,13.4035088 9.95740741,13.3333333 C9.81666667,13.3333333 9.64074074,13.3333333 9.5,13.2280702 C9.39444444,13.0877193 9.35925926,12.9122807 9.35925926,12.7719298 L9.35925926,11.8947368 C9.39444444,11.8596491 9.5,11.8596491 9.5,11.8596491 Z" id="Shape" fill="#FFFFFF"></path>
                            </g>
                            <g transform="translate(21.111111, 8.070175)">
                                <path d="M19.9148148,10.4912281 C19.9148148,14.7719298 15.5518519,18.3157895 10.1333333,18.3157895 C4.71481481,18.3157895 0.351851852,14.8421053 0.351851852,10.4912281 L0.351851852,8.59649123 C0.598148148,4.45614035 4.85555556,2.66666667 10.1333333,2.66666667 C15.3759259,2.66666667 19.6333333,4.24561404 19.9148148,8.38596491 L19.9148148,10.4912281 Z" id="Shape" fill="#E89472"></path>
                                <ellipse id="Oval" fill="#FFC18B" cx="10.0981481" cy="7.89473684" rx="9.78148148" ry="7.8245614"></ellipse>
                                <ellipse id="Oval" fill="#FFFFFF" opacity="0.2" cx="10.3796296" cy="5.01754386" rx="6.50925926" ry="4.24561404"></ellipse>
                                <path d="M9.5,11.4035088 C8.7962963,11.4035088 8.05740741,11.1929825 7.38888889,10.9473684 C6.86111111,10.7017544 6.57962963,10.4210526 6.57962963,10.1403509 C6.54444444,9.92982456 6.68518519,9.71929825 6.8962963,9.57894737 C7.10740741,9.43859649 7.42407407,9.33333333 7.70555556,9.33333333 C8.12777778,9.36842105 8.40925926,9.43859649 8.7962963,9.57894737 C9.2537037,9.68421053 9.67592593,9.78947368 10.1685185,9.8245614 C10.4851852,9.8245614 10.7666667,9.78947368 10.9777778,9.57894737 C11.1888889,9.43859649 11.2944444,9.22807018 11.2944444,9.01754386 C11.2944444,8.77192982 11.1537037,8.56140351 10.9425926,8.42105263 C10.5203704,8.1754386 10.062963,8 9.57037037,7.89473684 C8.55,7.64912281 7.81111111,7.36842105 7.42407407,7.01754386 C6.96666667,6.66666667 6.75555556,6.14035088 6.75555556,5.64912281 C6.72037037,5.05263158 7.00185185,4.45614035 7.45925926,4.07017544 C7.98703704,3.61403509 8.69074074,3.29824561 9.46481481,3.19298246 L9.46481481,2.63157895 C9.46481481,2.49122807 9.5,2.31578947 9.60555556,2.1754386 C9.71111111,2.07017544 9.85185185,1.96491228 10.062963,2.03508772 C10.2037037,2.03508772 10.3796296,2.03508772 10.5203704,2.14035088 C10.6259259,2.28070175 10.6611111,2.45614035 10.6611111,2.59649123 L10.6611111,3.12280702 C11.2592593,3.12280702 11.8925926,3.26315789 12.4555556,3.54385965 C12.912963,3.78947368 13.1240741,4 13.1240741,4.35087719 C13.1240741,4.56140351 13.0185185,4.77192982 12.8074074,4.9122807 C12.5962963,5.05263158 12.35,5.15789474 12.1037037,5.15789474 C11.962963,5.15789474 11.6462963,5.12280702 11.2240741,5.05263158 C10.9074074,4.94736842 10.6259259,4.94736842 10.2388889,4.94736842 C9.99259259,4.94736842 9.67592593,4.98245614 9.42962963,5.0877193 C9.21851852,5.19298246 9.11296296,5.40350877 9.11296296,5.61403509 C9.11296296,5.96491228 9.57037037,6.1754386 10.3796296,6.42105263 C10.5203704,6.45614035 10.6962963,6.52631579 10.9074074,6.52631579 C11.7166667,6.66666667 12.3851852,7.05263158 13.0185185,7.50877193 C13.4759259,7.92982456 13.687037,8.42105263 13.687037,8.94736842 C13.687037,9.61403509 13.3703704,10.2105263 12.8074074,10.7368421 C12.2444444,11.2631579 11.4351852,11.5438596 10.5907407,11.6140351 L10.5907407,12.3859649 C10.5907407,12.5263158 10.5555556,12.7017544 10.45,12.8421053 C10.3444444,12.9473684 10.2037037,13.0526316 9.99259259,12.9824561 C9.85185185,12.9824561 9.67592593,12.9824561 9.53518519,12.877193 C9.42962963,12.7368421 9.39444444,12.5614035 9.39444444,12.4210526 L9.39444444,11.5438596 C9.39444444,11.4035088 9.5,11.4035088 9.5,11.4035088 Z" id="Shape" fill="#E89472"></path>
                                <path d="M9.5,11.9298246 C8.7962963,11.9298246 8.05740741,11.7192982 7.38888889,11.4736842 C6.86111111,11.2280702 6.57962963,10.9473684 6.57962963,10.6666667 C6.54444444,10.4561404 6.68518519,10.245614 6.8962963,10.1052632 C7.10740741,9.96491228 7.42407407,9.85964912 7.70555556,9.85964912 C8.12777778,9.89473684 8.40925926,9.96491228 8.7962963,10.1052632 C9.2537037,10.2105263 9.67592593,10.3157895 10.1685185,10.3508772 C10.4851852,10.3508772 10.7666667,10.3157895 10.9777778,10.1052632 C11.1888889,9.96491228 11.2944444,9.75438596 11.2944444,9.54385965 C11.2944444,9.29824561 11.1537037,9.0877193 10.9425926,8.94736842 C10.5203704,8.70175439 10.062963,8.52631579 9.57037037,8.42105263 C8.55,8.1754386 7.81111111,7.89473684 7.42407407,7.54385965 C6.96666667,7.19298246 6.75555556,6.66666667 6.75555556,6.1754386 C6.72037037,5.57894737 7.00185185,4.98245614 7.45925926,4.59649123 C7.98703704,4.14035088 8.69074074,3.8245614 9.46481481,3.71929825 L9.46481481,3.15789474 C9.46481481,3.01754386 9.5,2.84210526 9.60555556,2.70175439 C9.71111111,2.59649123 9.85185185,2.49122807 10.062963,2.56140351 C10.2037037,2.56140351 10.3796296,2.56140351 10.5203704,2.66666667 C10.6259259,2.80701754 10.6611111,2.98245614 10.6611111,3.12280702 L10.6611111,3.64912281 C11.2592593,3.64912281 11.8925926,3.78947368 12.4555556,4.07017544 C12.912963,4.31578947 13.1240741,4.52631579 13.1240741,4.87719298 C13.1240741,5.0877193 13.0185185,5.29824561 12.8074074,5.43859649 C12.5962963,5.57894737 12.35,5.68421053 12.1037037,5.68421053 C11.962963,5.68421053 11.6462963,5.64912281 11.2240741,5.57894737 C10.9074074,5.47368421 10.6259259,5.47368421 10.2388889,5.47368421 C9.99259259,5.47368421 9.67592593,5.50877193 9.42962963,5.61403509 C9.21851852,5.71929825 9.11296296,5.92982456 9.11296296,6.14035088 C9.11296296,6.49122807 9.57037037,6.70175439 10.3796296,6.94736842 C10.5203704,6.98245614 10.6962963,7.05263158 10.9074074,7.05263158 C11.7166667,7.19298246 12.3851852,7.57894737 13.0185185,8.03508772 C13.4759259,8.45614035 13.687037,8.94736842 13.687037,9.47368421 C13.687037,10.1403509 13.3703704,10.7368421 12.8074074,11.2631579 C12.2444444,11.7894737 11.4351852,12.0701754 10.5907407,12.1403509 L10.5907407,12.9122807 C10.5907407,13.0526316 10.5555556,13.2280702 10.45,13.3684211 C10.3444444,13.4736842 10.2037037,13.5789474 9.99259259,13.5087719 C9.85185185,13.5087719 9.67592593,13.5087719 9.53518519,13.4035088 C9.42962963,13.2631579 9.39444444,13.0877193 9.39444444,12.9473684 L9.39444444,12.0701754 C9.39444444,11.9298246 9.5,11.9298246 9.5,11.9298246 Z" id="Shape" fill="#FFF0E0"></path>
                            </g>
                            <g>
                                <path d="M19.562963,10.5263158 C19.562963,14.8070175 15.2,18.3508772 9.78148148,18.3508772 C4.36296296,18.3508772 0,14.877193 0,10.5263158 L0,8.63157895 C0.246296296,4.49122807 4.57407407,2.70175439 9.78148148,2.70175439 C14.9888889,2.70175439 19.2814815,4.28070175 19.562963,8.42105263 L19.562963,10.5263158 Z" id="Shape" fill="#E89472"></path>
                                <ellipse id="Oval" fill="#FFC18B" cx="9.78148148" cy="7.92982456" rx="9.78148148" ry="7.8245614"></ellipse>
                                <ellipse id="Oval" fill="#FFFFFF" opacity="0.2" cx="10.0277778" cy="5.05263158" rx="6.50925926" ry="4.24561404"></ellipse>
                                <path d="M9.14814815,11.4385965 C8.44444444,11.4385965 7.70555556,11.2280702 7.03703704,10.9824561 C6.50925926,10.7368421 6.22777778,10.4561404 6.22777778,10.1754386 C6.19259259,9.96491228 6.33333333,9.75438596 6.54444444,9.61403509 C6.75555556,9.47368421 7.07222222,9.36842105 7.3537037,9.36842105 C7.77592593,9.40350877 8.05740741,9.47368421 8.44444444,9.61403509 C8.90185185,9.71929825 9.32407407,9.8245614 9.81666667,9.85964912 C10.1333333,9.85964912 10.4148148,9.8245614 10.6259259,9.61403509 C10.837037,9.47368421 10.9425926,9.26315789 10.9425926,9.05263158 C10.9425926,8.80701754 10.8018519,8.59649123 10.5907407,8.45614035 C10.1685185,8.21052632 9.71111111,8.03508772 9.21851852,7.92982456 C8.19814815,7.68421053 7.45925926,7.40350877 7.07222222,7.05263158 C6.61481481,6.70175439 6.4037037,6.1754386 6.4037037,5.68421053 C6.36851852,5.0877193 6.65,4.49122807 7.10740741,4.10526316 C7.63518519,3.64912281 8.33888889,3.33333333 9.11296296,3.22807018 L9.11296296,2.66666667 C9.11296296,2.52631579 9.14814815,2.35087719 9.2537037,2.21052632 C9.35925926,2.07017544 9.5,2 9.71111111,2.07017544 C9.85185185,2.07017544 10.0277778,2.07017544 10.1685185,2.1754386 C10.2740741,2.31578947 10.3092593,2.49122807 10.3092593,2.63157895 L10.3092593,3.15789474 C10.9074074,3.15789474 11.5407407,3.29824561 12.1037037,3.57894737 C12.5611111,3.8245614 12.7722222,4.03508772 12.7722222,4.38596491 C12.7722222,4.59649123 12.6666667,4.80701754 12.4555556,4.94736842 C12.2444444,5.0877193 11.9981481,5.19298246 11.7518519,5.19298246 C11.6111111,5.19298246 11.2944444,5.15789474 10.8722222,5.0877193 C10.5555556,4.98245614 10.2740741,4.98245614 9.88703704,4.98245614 C9.64074074,4.98245614 9.32407407,5.01754386 9.07777778,5.12280702 C8.90185185,5.19298246 8.7962963,5.40350877 8.7962963,5.61403509 C8.7962963,5.96491228 9.2537037,6.1754386 10.062963,6.42105263 C10.2037037,6.45614035 10.3796296,6.52631579 10.5907407,6.52631579 C11.4,6.66666667 12.0685185,7.05263158 12.7018519,7.50877193 C13.1592593,7.92982456 13.3703704,8.42105263 13.3703704,8.94736842 C13.3703704,9.61403509 13.0537037,10.2105263 12.4907407,10.7368421 C11.9277778,11.2631579 11.1185185,11.5438596 10.2740741,11.6140351 L10.2740741,12.3859649 C10.2740741,12.5263158 10.2388889,12.7017544 10.1333333,12.8421053 C10.0277778,12.9473684 9.88703704,13.0526316 9.67592593,12.9824561 C9.53518519,12.9824561 9.35925926,12.9824561 9.21851852,12.877193 C9.11296296,12.7368421 9.07777778,12.5614035 9.07777778,12.4210526 L9.07777778,11.5438596 C9.07777778,11.4385965 9.14814815,11.4385965 9.14814815,11.4385965 Z" id="Shape" fill="#E89472"></path>
                                <path d="M9.14814815,11.9649123 C8.44444444,11.9649123 7.70555556,11.754386 7.03703704,11.5087719 C6.50925926,11.2631579 6.22777778,10.9824561 6.22777778,10.7017544 C6.19259259,10.4912281 6.33333333,10.2807018 6.54444444,10.1403509 C6.75555556,10 7.07222222,9.89473684 7.3537037,9.89473684 C7.77592593,9.92982456 8.05740741,10 8.44444444,10.1403509 C8.90185185,10.245614 9.32407407,10.3508772 9.81666667,10.3859649 C10.1333333,10.3859649 10.4148148,10.3508772 10.6259259,10.1403509 C10.837037,10 10.9425926,9.78947368 10.9425926,9.57894737 C10.9425926,9.33333333 10.8018519,9.12280702 10.5907407,8.98245614 C10.1685185,8.73684211 9.71111111,8.56140351 9.21851852,8.45614035 C8.19814815,8.21052632 7.45925926,7.92982456 7.07222222,7.57894737 C6.61481481,7.22807018 6.4037037,6.70175439 6.4037037,6.21052632 C6.36851852,5.61403509 6.65,5.01754386 7.10740741,4.63157895 C7.63518519,4.1754386 8.33888889,3.85964912 9.11296296,3.75438596 L9.11296296,3.15789474 C9.11296296,3.01754386 9.14814815,2.84210526 9.2537037,2.70175439 C9.35925926,2.56140351 9.5,2.49122807 9.71111111,2.56140351 C9.85185185,2.56140351 10.0277778,2.56140351 10.1685185,2.66666667 C10.2740741,2.80701754 10.3092593,2.98245614 10.3092593,3.12280702 L10.3092593,3.64912281 C10.9074074,3.64912281 11.5407407,3.78947368 12.1037037,4.07017544 C12.5611111,4.31578947 12.7722222,4.52631579 12.7722222,4.87719298 C12.7722222,5.0877193 12.6666667,5.29824561 12.4555556,5.43859649 C12.2444444,5.57894737 11.9981481,5.68421053 11.7518519,5.68421053 C11.6111111,5.68421053 11.2944444,5.64912281 10.8722222,5.57894737 C10.5555556,5.47368421 10.2740741,5.47368421 9.88703704,5.47368421 C9.64074074,5.47368421 9.32407407,5.50877193 9.07777778,5.61403509 C8.86666667,5.71929825 8.76111111,5.92982456 8.76111111,6.14035088 C8.76111111,6.49122807 9.21851852,6.70175439 10.0277778,6.94736842 C10.1685185,6.98245614 10.3444444,7.05263158 10.5555556,7.05263158 C11.3648148,7.19298246 12.0333333,7.57894737 12.6666667,8.03508772 C13.1240741,8.45614035 13.3351852,8.94736842 13.3351852,9.47368421 C13.3351852,10.1403509 13.0185185,10.7368421 12.4555556,11.2631579 C11.8925926,11.7894737 11.0833333,12.0701754 10.2388889,12.1403509 L10.2388889,12.9122807 C10.2388889,13.0526316 10.2037037,13.2280702 10.0981481,13.3684211 C9.99259259,13.4736842 9.85185185,13.5789474 9.64074074,13.5087719 C9.5,13.5087719 9.32407407,13.5087719 9.18333333,13.4035088 C9.07777778,13.2631579 9.04259259,13.0877193 9.04259259,12.9473684 L9.04259259,12.0701754 C9.07777778,11.9649123 9.14814815,11.9649123 9.14814815,11.9649123 Z" id="Shape" fill="#FFF0E0"></path>
                            </g>
                        </g>
                    </g>
                    <g id="Group" transform="translate(0.000000, 10.526316)">
                        <path d="M1.79444444,11.6842105 L6.33333333,17.5789474 C6.4037037,17.6491228 6.47407407,17.7192982 6.57962963,17.754386 C6.65,17.7894737 8.12777778,17.754386 8.19814815,17.754386 C8.33888889,17.754386 8.51481481,17.6842105 8.62037037,17.5789474 L14.7777778,11.6842105 C15.1648148,11.2982456 14.9185185,10.6315789 14.3555556,10.6315789 L11.7518519,10.6315789 C11.1888889,10.6315789 10.7666667,10.1754386 10.7666667,9.64912281 L10.7666667,0.771929825 C10.7666667,0.421052632 10.4851852,0.175438596 10.1685185,0.175438596 L6.43888889,0.175438596 C6.08703704,0.175438596 5.84074074,0.456140351 5.84074074,0.771929825 L5.84074074,9.64912281 C5.84074074,10.2105263 5.38333333,10.6315789 4.85555556,10.6315789 L2.25185185,10.6315789 C1.68888889,10.6315789 1.40740741,11.2982456 1.79444444,11.6842105 Z" id="Shape" fill="#DB3154"></path>
                        <path d="M0.211111111,11.6842105 L6.15740741,17.5789474 C6.4037037,17.8245614 6.75555556,17.8245614 7.00185185,17.5789474 L13.1592593,11.6842105 C13.5462963,11.2982456 13.3,10.6315789 12.737037,10.6315789 L10.1333333,10.6315789 C9.57037037,10.6315789 9.14814815,10.1754386 9.14814815,9.64912281 L9.14814815,0.771929825 C9.14814815,0.421052632 8.86666667,0.175438596 8.55,0.175438596 L4.82037037,0.175438596 C4.46851852,0.175438596 4.22222222,0.456140351 4.22222222,0.771929825 L4.22222222,9.64912281 C4.22222222,10.2105263 3.76481481,10.6315789 3.23703704,10.6315789 L0.633333333,10.6315789 C0.105555556,10.6315789 -0.175925926,11.2982456 0.211111111,11.6842105 Z" id="Shape" fill="#FD6281"></path>
                    </g>
                </g>
            </g>
        </g>
    </g>
</svg>