<?xml version="1.0" encoding="UTF-8"?>
<svg width="67px" height="81px" viewBox="0 0 67 81" version="1.1" xmlns="http://www.w3.org/2000/svg" xmlns:xlink="http://www.w3.org/1999/xlink">
    <!-- Generator: Sketch 49 (51002) - http://www.bohemiancoding.com/sketch -->
    <title>Group 25</title>
    <desc>Created with Sketch.</desc>
    <defs>
        <polygon id="path-1" points="4.93488761e-21 0.00010923913 4.93488761e-21 67 66.9999272 67 66.9999272 0.00010923913 0 0.00010923913"></polygon>
    </defs>
    <g id="Projeto" stroke="none" stroke-width="1" fill="none" fill-rule="evenodd">
        <g id="summit" transform="translate(-296.000000, -1046.000000)">
            <g id="Group-25" transform="translate(296.000000, 1046.000000)">
                <g id="Page-1" transform="translate(0.000000, 8.000000)">
                    <g id="Group-3">
                        <mask id="mask-2" fill="white">
                            <use xlink:href="#path-1"></use>
                        </mask>
                        <g id="Clip-2"></g>
                        <path d="M66.9999272,33.5001092 C66.9999272,52.0015766 52.0017587,67.0001092 33.4999272,67.0001092 C14.9984598,67.0001092 -7.28260869e-05,52.0015766 -7.28260869e-05,33.5001092 C-7.28260869e-05,14.9982777 14.9984598,0.00010923913 33.4999272,0.00010923913 C52.0017587,0.00010923913 66.9999272,14.9982777 66.9999272,33.5001092" id="Fill-1" fill="#EFEFEF" mask="url(#mask-2)"></path>
                    </g>
                </g>
                <g id="contaazul-contas-a-receber" transform="translate(8.000000, 0.000000)" fill-rule="nonzero">
                    <g id="Group">
                        <g id="Shape">
                            <path d="M46.2305556,35.1956463 L5.05277778,35.1956463 C2.45555556,35.1956463 0.377777778,33.1363265 0.377777778,30.5621769 L0.377777778,13.2451701 C0.377777778,10.6710204 2.45555556,8.61170068 5.05277778,8.61170068 L46.2305556,8.61170068 C48.8277778,8.61170068 50.9055556,10.6710204 50.9055556,13.2451701 L50.9055556,30.5621769 C50.9055556,33.0895238 48.8277778,35.1956463 46.2305556,35.1956463 Z" fill="#4AB574"></path>
                            <path d="M46.2305556,32.0598639 L5.05277778,32.0598639 C2.45555556,32.0598639 0.377777778,30.0005442 0.377777778,27.4263946 L0.377777778,10.1093878 C0.377777778,7.5352381 2.45555556,5.47591837 5.05277778,5.47591837 L46.2305556,5.47591837 C48.8277778,5.47591837 50.9055556,7.5352381 50.9055556,10.1093878 L50.9055556,27.4263946 C50.9055556,29.9537415 48.8277778,32.0598639 46.2305556,32.0598639 Z" fill="#4AB574"></path>
                            <path d="M46.2305556,29.0176871 L5.05277778,29.0176871 C2.45555556,29.0176871 0.377777778,26.9583673 0.377777778,24.3842177 L0.377777778,7.06721088 C0.377777778,4.49306122 2.45555556,2.4337415 5.05277778,2.4337415 L46.2305556,2.4337415 C48.8277778,2.4337415 50.9055556,4.49306122 50.9055556,7.06721088 L50.9055556,24.3842177 C50.9055556,26.9583673 48.8277778,29.0176871 46.2305556,29.0176871 Z" fill="#4AB574"></path>
                            <path d="M45.6638889,29.8601361 L5.61944444,29.8601361 C3.68333333,29.8601361 1.93611111,28.9240816 0.85,27.3327891 C0.708333333,27.0987755 0.755555556,26.7711565 0.991666667,26.5839456 C1.22777778,26.4435374 1.55833333,26.4903401 1.74722222,26.7243537 C2.64444444,28.0348299 4.10833333,28.7836735 5.66666667,28.7836735 L45.7111111,28.7836735 C47.2694444,28.7836735 48.7333333,28.0348299 49.6305556,26.7243537 C49.7722222,26.4903401 50.1027778,26.4435374 50.3861111,26.5839456 C50.6222222,26.7243537 50.6694444,27.0519728 50.5277778,27.3327891 C49.3944444,28.9240816 47.6,29.8601361 45.6638889,29.8601361 Z" fill="#92D4A9"></path>
                            <path d="M46.2305556,26.5839456 L5.05277778,26.5839456 C2.45555556,26.5839456 0.377777778,24.5246259 0.377777778,21.9504762 L0.377777778,4.63346939 C0.377777778,2.05931973 2.45555556,-1.77635684e-15 5.05277778,-1.77635684e-15 L46.2305556,-1.77635684e-15 C48.8277778,-1.77635684e-15 50.9055556,2.05931973 50.9055556,4.63346939 L50.9055556,21.9504762 C50.9055556,24.5246259 48.8277778,26.5839456 46.2305556,26.5839456 Z" fill="#92D4A9"></path>
                            <path d="M47.0333333,24.0565986 L3.30555556,24.0565986 L3.30555556,2.29333333 L47.0333333,2.29333333 L47.0333333,24.0565986 Z M4.39166667,23.0269388 L45.9944444,23.0269388 L45.9944444,3.3229932 L4.39166667,3.3229932 L4.39166667,23.0269388 Z" fill="#DEF0E2"></path>
                            <path d="M8.12222222,23.7289796 C8.12222222,21.3420408 6.18611111,19.4231293 3.77777778,19.4231293 L3.77777778,23.5885714 L8.12222222,23.7289796 Z" fill="#DEF0E2"></path>
                            <path d="M8.12222222,2.6677551 C8.12222222,5.05469388 6.18611111,6.97360544 3.77777778,6.97360544 L3.77777778,2.80816327 L8.12222222,2.6677551 Z" fill="#DEF0E2"></path>
                            <path d="M42.3583333,23.7289796 C42.3583333,21.3420408 44.2944444,19.4231293 46.7027778,19.4231293 L46.7027778,23.5885714 L42.3583333,23.7289796 Z" fill="#DEF0E2"></path>
                            <path d="M42.3583333,2.6677551 C42.3583333,5.05469388 44.2944444,6.97360544 46.7027778,6.97360544 L46.7027778,2.80816327 L42.3583333,2.6677551 Z" fill="#DEF0E2"></path>
                            <path d="M45.6638889,32.9959184 L5.61944444,32.9959184 C3.77777778,32.9959184 2.03055556,32.1066667 0.944444444,30.6089796 C0.755555556,30.374966 0.85,30.0473469 1.08611111,29.8601361 C1.32222222,29.6729252 1.65277778,29.7665306 1.84166667,30.0005442 C2.73888889,31.217415 4.15555556,31.9194558 5.66666667,31.9194558 L45.7111111,31.9194558 C47.2694444,31.9194558 48.7333333,31.1706122 49.6305556,29.8601361 C49.7722222,29.6261224 50.1027778,29.5793197 50.3861111,29.7197279 C50.6222222,29.8601361 50.6694444,30.1877551 50.5277778,30.4685714 C49.3944444,32.0598639 47.6,32.9959184 45.6638889,32.9959184 Z" fill="#92D4A9"></path>
                        </g>
                        <path d="M18.5583333,23.822585 C14.7805556,21.5292517 12.5611111,17.5042177 12.5611111,13.1515646 C12.5611111,8.84571429 14.7333333,4.86748299 18.4166667,2.57414966 L18.9833333,3.46340136 C15.6305556,5.56952381 13.6,9.22013605 13.6,13.1983673 C13.6,17.2234014 15.6777778,20.8740136 19.0777778,22.9801361 L18.5583333,23.822585 Z" id="Shape" fill="#DEF0E2"></path>
                        <path d="M31.9222222,23.822585 L31.3555556,22.9333333 C34.8027778,20.8272109 36.8333333,17.1765986 36.8333333,13.1515646 C36.8333333,9.22013605 34.8027778,5.56952381 31.45,3.41659864 L32.0166667,2.52734694 C35.7,4.86748299 37.8722222,8.79891156 37.8722222,13.1047619 C37.9194444,17.5510204 35.6527778,21.5292517 31.9222222,23.822585 Z" id="Shape" fill="#DEF0E2"></path>
                        <g id="Layer_2_2_" transform="translate(11.333333, 21.529252)">
                            <g id="Layer_3_2_">
                                <polygon id="Shape" fill="#D49C8D" points="7.03611111 35.8976871 7.03611111 50.7809524 7.03611111 53.4487075 25.9722222 53.4487075 25.9722222 47.5515646 25.9722222 35.8976871"></polygon>
                                <path d="M13.0805556,36.0380952 L5.47777778,36.0380952 L6.75277778,3.3229932 C6.75277778,1.73170068 8.075,0.42122449 9.68055556,0.42122449 L9.68055556,0.42122449 L9.68055556,0.42122449 C11.2861111,0.42122449 12.6083333,1.73170068 12.6083333,3.3229932 L12.6083333,3.3229932 L13.0805556,36.0380952 Z" id="Shape" fill="#D49C8D"></path>
                                <path d="M18.9361111,39.2206803 L11.6638889,39.2206803 L11.6638889,39.2206803 L11.6638889,25.0394558 C11.6638889,23.0737415 13.3166667,21.4356463 15.3,21.4356463 L15.3,21.4356463 C17.2833333,21.4356463 18.9361111,23.0737415 18.9361111,25.0394558 L18.9361111,39.2206803 L18.9361111,39.2206803 Z" id="Shape" fill="#D49C8D"></path>
                                <path d="M21.1555556,22.9333333 L21.1555556,22.9333333 C23.1388889,22.9333333 24.7916667,24.5714286 24.7916667,26.5371429 L24.7916667,40.7183673 L24.7916667,40.7183673 L17.5194444,40.7183673 L17.5194444,40.7183673 L17.5194444,26.5371429 C17.5194444,24.5714286 19.1722222,22.9333333 21.1555556,22.9333333 L21.1555556,22.9333333 Z" id="Shape" fill="#D49C8D"></path>
                                <path d="M10.3888889,43.6201361 L2.59722222,41.3736054 L0.566666667,33.8851701 C-0.141666667,31.217415 1.41666667,28.4560544 4.10833333,27.7540136 L11.1444444,25.835102 L10.3888889,43.6201361 Z" id="Shape" fill="#D49C8D"></path>
                                <path d="M23.375,41.7948299 L30.175,37.7229932 L30.175,28.5496599 C30.175,26.677551 28.6638889,25.1798639 26.775,25.1798639 L26.775,25.1798639 L26.775,25.1798639 C24.8861111,25.1798639 23.375,26.677551 23.375,28.5496599 L23.375,28.5496599 L23.375,41.7948299 Z" id="Shape" fill="#D49C8D"></path>
                                <path d="M30.175,33.9787755 L2.26666667,33.9787755 L2.26666667,38.4718367 C2.26666667,45.2582313 7.83888889,50.7809524 14.6861111,50.7809524 L14.6861111,50.7809524 L17.7555556,50.7809524 C24.6027778,50.7809524 30.175,45.2582313 30.175,38.4718367 L30.175,33.9787755 L30.175,33.9787755 Z" id="Shape" fill="#D49C8D"></path>
                                <ellipse id="Oval" fill="#FFFFFF" cx="23.6583333" cy="57.6141497" rx="1.65277778" ry="1.63809524"></ellipse>
                            </g>
                        </g>
                    </g>
                    <g id="Group" transform="translate(20.777778, 6.552381)" fill="#DEF0E2">
                        <path d="M4.29722222,0.187210884 L4.95833333,0.187210884 C5.14722222,0.187210884 5.33611111,0.374421769 5.33611111,0.561632653 L5.14722222,12.2155102 C5.14722222,12.4027211 4.95833333,12.589932 4.76944444,12.589932 L4.10833333,12.589932 C3.91944444,12.589932 3.73055556,12.4027211 3.73055556,12.2155102 L3.91944444,0.561632653 C3.91944444,0.327619048 4.10833333,0.187210884 4.29722222,0.187210884 Z" id="Shape"></path>
                        <path d="M0.472222222,9.26693878 L0.613888889,9.03292517 C0.897222222,8.61170068 1.46388889,8.47129252 1.93611111,8.75210884 C2.69166667,9.22013605 3.58888889,9.50095238 4.53333333,9.5477551 C5.66666667,9.5477551 6.18611111,9.17333333 6.18611111,8.56489796 C6.23333333,6.97360544 0.425,8.19047619 0.472222222,4.39945578 C0.519444444,2.76136054 1.93611111,1.40408163 4.53333333,1.40408163 C5.61944444,1.40408163 6.70555556,1.68489796 7.65,2.24653061 C8.12222222,2.52734694 8.26388889,3.08897959 7.98055556,3.5570068 L7.98055556,3.5570068 L7.93333333,3.65061224 C7.65,4.11863946 7.08333333,4.25904762 6.65833333,3.97823129 C5.99722222,3.60380952 5.28888889,3.41659864 4.53333333,3.36979592 C3.58888889,3.36979592 2.975,3.74421769 2.975,4.30585034 C2.92777778,5.70993197 8.73611111,4.63346939 8.68888889,8.51809524 C8.64166667,10.2965986 7.13055556,11.5602721 4.39166667,11.5134694 C3.11666667,11.5134694 1.88888889,11.1858503 0.802777778,10.5306122 C0.330555556,10.2497959 0.188888889,9.68816327 0.472222222,9.26693878 Z" id="Shape"></path>
                    </g>
                </g>
            </g>
        </g>
    </g>
</svg>