<?xml version="1.0" encoding="UTF-8"?>
<svg width="71px" height="76px" viewBox="0 0 71 76" version="1.1" xmlns="http://www.w3.org/2000/svg" xmlns:xlink="http://www.w3.org/1999/xlink">
    <!-- Generator: Sketch 49 (51002) - http://www.bohemiancoding.com/sketch -->
    <title>Group 34</title>
    <desc>Created with Sketch.</desc>
    <defs>
        <polygon id="path-1" points="4.93488761e-21 0.00010923913 4.93488761e-21 67 66.9999272 67 66.9999272 0.00010923913 0 0.00010923913"></polygon>
    </defs>
    <g id="Projeto" stroke="none" stroke-width="1" fill="none" fill-rule="evenodd">
        <g id="summit" transform="translate(-1076.000000, -1503.000000)">
            <g id="Group-34" transform="translate(1076.000000, 1503.000000)">
                <g id="Page-1" transform="translate(0.000000, 9.000000)">
                    <g id="Group-3">
                        <mask id="mask-2" fill="white">
                            <use xlink:href="#path-1"></use>
                        </mask>
                        <g id="Clip-2"></g>
                        <path d="M66.9999272,33.5001092 C66.9999272,52.0015766 52.0017587,67.0001092 33.4999272,67.0001092 C14.9984598,67.0001092 -7.28260869e-05,52.0015766 -7.28260869e-05,33.5001092 C-7.28260869e-05,14.9982777 14.9984598,0.00010923913 33.4999272,0.00010923913 C52.0017587,0.00010923913 66.9999272,14.9982777 66.9999272,33.5001092" id="Fill-1" fill="#EFEFEF" mask="url(#mask-2)"></path>
                    </g>
                </g>
                <g id="contaazul-dre-raio-x" transform="translate(2.000000, 0.000000)" fill-rule="nonzero">
                    <path d="M17.489476,48.9155354 L16.8405732,47.4622926 C16.2225705,46.10181 16.5006717,44.4939668 17.5512763,43.4117647 L17.1186744,43.071644 L23.3605016,36.6711916 C24.8128079,35.9600302 26.2033139,35.4343891 27.6247201,35.4962293 L36.4930587,36.0527903 C37.3273623,36.0837104 37.945365,36.7948718 37.9144648,37.6297134 L37.9144648,37.6297134 C37.7599642,40.5361991 35.2570533,42.7624434 32.3524407,42.6078431 L32.3524407,42.6078431 L27.4393193,42.3295626 L18.4164801,51.6365008 L17.489476,48.9155354 Z" id="Shape" fill="#E8AFAE"></path>
                    <path d="M15.2955665,44.7722474 L14.3994626,43.3499246 C13.5342588,42.020362 13.1634572,39.979638 14.0904613,38.7119155 L14.0904613,38.7119155 L20.0541872,31.5693816 C20.919391,30.3634992 22.2789969,29.5904977 23.7931034,29.4668175 L33.5266458,29.8996983 C34.8244514,29.9306184 36.0604568,31.1983409 36.0295567,32.0641026 L35.5969548,33.7956259 C35.875056,36.7948718 32.3833408,36.887632 29.3860278,36.7948718 L24.6274071,36.5165913 L16.5933721,47.4313725 L15.2955665,44.7722474 Z" id="Shape" fill="#F4D4CE"></path>
                    <g id="Group" transform="translate(30.096731, 0.000000)">
                        <path d="M12.0819525,41.5874811 L12.0819525,41.5874811 C11.2167488,39.9177979 9.11553963,39.2375566 7.44693238,40.1033183 L7.44693238,40.1033183 L5.56202418,40.9381599 C3.80071652,41.8348416 3.1518137,43.9992459 4.0479176,45.7616893 L4.0479176,45.7616893 C4.9440215,47.5241327 7.1070309,48.173454 8.80653829,47.2767722 L10.5987461,46.2564103 C12.2982535,45.3906486 12.9471563,43.2571644 12.0819525,41.5874811 L12.0819525,41.5874811 Z" id="Shape" fill="#F4CBB8"></path>
                        <path d="M11.4021496,35.7745098 L11.4021496,35.7745098 C9.79534259,34.7232278 7.69413345,35.1561086 6.64352888,36.7021116 L5.40752351,38.3408748 C4.32601881,39.979638 4.78952082,42.1749623 6.39632781,43.2571644 L6.39632781,43.2571644 L6.39632781,43.2571644 C8.03403493,44.3393665 10.2279445,43.8755656 11.3094492,42.2677225 L12.3909539,40.505279 C13.4106583,38.928356 12.9780564,36.7948718 11.4021496,35.7745098 Z" id="Shape" fill="#F4CBB8"></path>
                        <path d="M8.46663681,50.7707391 L8.46663681,50.7707391 C8.1885356,49.1319759 6.64352888,47.9879336 4.97492163,48.2971342 C4.97492163,48.2971342 4.97492163,48.2971342 4.9440215,48.2971342 L3.1518137,48.4826546 C1.42140618,48.7609351 0.309001343,50.3996983 0.618002687,52.0693816 L0.618002687,52.0693816 C0.896103896,53.800905 2.53381102,54.9140271 4.20241827,54.6048265 L5.96372593,54.2028658 C7.66323332,53.9864253 8.74473802,52.4095023 8.46663681,50.7707391 Z" id="Shape" fill="#E8AFAE"></path>
                        <path d="M11.031348,45.8544495 L11.031348,45.8544495 C10.3824451,44.061086 8.37393641,43.1644042 6.61262875,43.8137255 L6.61262875,43.8137255 L4.66592029,44.4012066 C2.84281236,45.112368 1.8849082,47.153092 2.59561129,48.9773756 L2.59561129,48.9773756 C3.30631438,50.8016591 5.34572324,51.760181 7.16883117,51.0490196 L9.0846395,50.2760181 C10.7841469,49.5957768 11.6802508,47.6168929 11.031348,45.8544495 Z" id="Shape" fill="#E8AFAE"></path>
                        <path d="M37.9144648,48.7918552 C37.9144648,49.7503771 37.1419615,50.5233786 36.1840573,50.5233786 L36.1840573,50.5233786 L1.73040752,50.5233786 C0.772503359,50.5233786 0,49.7503771 0,48.7918552 L0,48.7918552 L0,1.9479638 C0,0.989441931 0.772503359,0.216440422 1.73040752,0.216440422 L30.4366323,0.216440422 C31.2091357,0.216440422 31.9507389,0.494720965 32.4451411,1.05128205 L36.4003583,5.00904977 C37.3582624,5.96757164 37.9144648,7.35897436 37.9144648,8.75037707 L37.9144648,48.7918552 L37.9144648,48.7918552 Z" id="Shape" fill="#DDE5FB"></path>
                        <path d="M32.5687416,1.11312217 C31.9507389,0.494720965 31.1164353,0.154600302 30.2821317,0.154600302 L30.2821317,0.154600302 C31.054635,0.154600302 31.6726377,0.773001508 31.6726377,1.54600302 L31.6726377,5.78205128 C31.6726377,6.74057315 32.4451411,7.38989442 33.4030452,7.23529412 L35.9677564,6.74057315 C37.0801612,6.52413273 37.9762651,7.35897436 37.9762651,8.47209653 L37.9762651,8.47209653 C37.9762651,7.23529412 37.481863,5.96757164 36.5857591,5.07088989 L32.5687416,1.11312217 Z" id="Shape" fill="#AABFD7" opacity="0.5"></path>
                        <g transform="translate(2.472011, 10.512821)" fill="#699FEC" id="Shape">
                            <path d="M19.6524854,0.092760181 L5.56202418,0.092760181 C5.0367219,0.092760181 4.60412002,0.525641026 4.60412002,1.05128205 L4.60412002,1.05128205 C4.60412002,1.57692308 5.0367219,2.00980392 5.56202418,2.00980392 L19.6215853,2.00980392 C20.1468876,2.00980392 20.5794895,1.57692308 20.5794895,1.05128205 L20.5794895,1.05128205 C20.5794895,0.525641026 20.1468876,0.092760181 19.6524854,0.092760181 Z"></path>
                            <path d="M2.62651142,9.1214178 L1.05060457,9.1214178 C0.525302284,9.1214178 0.092700403,9.55429864 0.092700403,10.0799397 L0.092700403,10.0799397 C0.092700403,10.6055807 0.525302284,11.0384615 1.05060457,11.0384615 L2.62651142,11.0384615 C3.1518137,11.0384615 3.58441558,10.6055807 3.58441558,10.0799397 L3.58441558,10.0799397 C3.58441558,9.55429864 3.1518137,9.1214178 2.62651142,9.1214178 Z"></path>
                            <path d="M5.56202418,11.1312217 L19.6215853,11.1312217 C20.1468876,11.1312217 20.5794895,10.6983409 20.5794895,10.1726998 L20.5794895,10.1726998 C20.5794895,9.64705882 20.1468876,9.21417798 19.6215853,9.21417798 L5.56202418,9.21417798 C5.0367219,9.21417798 4.60412002,9.64705882 4.60412002,10.1726998 L4.60412002,10.1726998 C4.54231975,10.6983409 5.06762203,11.1312217 5.56202418,11.1312217 Z"></path>
                            <path d="M5.56202418,8.16289593 L19.6215853,8.16289593 C20.1468876,8.16289593 20.5794895,7.73001508 20.5794895,7.20437406 L20.5794895,7.11161388 C20.5794895,6.58597285 20.1468876,6.15309201 19.6215853,6.15309201 L5.56202418,6.15309201 C5.0367219,6.15309201 4.60412002,6.58597285 4.60412002,7.11161388 L4.60412002,7.20437406 C4.54231975,7.6372549 5.06762203,8.16289593 5.56202418,8.16289593 Z"></path>
                            <path d="M2.62651142,0.092760181 L1.05060457,0.092760181 C0.525302284,0.092760181 0.092700403,0.525641026 0.092700403,1.05128205 L0.092700403,1.05128205 C0.092700403,1.57692308 0.525302284,2.00980392 1.05060457,2.00980392 L2.62651142,2.00980392 C3.1518137,2.00980392 3.58441558,1.57692308 3.58441558,1.05128205 L3.58441558,1.05128205 C3.58441558,0.525641026 3.1518137,0.092760181 2.62651142,0.092760181 Z"></path>
                            <path d="M28.2427228,2.1025641 L32.0743395,2.1025641 C32.5996417,2.1025641 33.0322436,1.66968326 33.0322436,1.14404223 L33.0322436,1.14404223 C33.0322436,0.618401207 32.5996417,0.185520362 32.0743395,0.185520362 L28.2427228,0.185520362 C27.7174205,0.185520362 27.2848186,0.618401207 27.2848186,1.14404223 L27.2848186,1.14404223 C27.2848186,1.57692308 27.7174205,2.1025641 28.2427228,2.1025641 Z"></path>
                            <path d="M5.56202418,5.13273002 L19.6215853,5.13273002 C20.1468876,5.13273002 20.5794895,4.69984917 20.5794895,4.17420814 L20.5794895,4.08144796 C20.5794895,3.55580694 20.1468876,3.12292609 19.6215853,3.12292609 L5.56202418,3.12292609 C5.0367219,3.12292609 4.60412002,3.55580694 4.60412002,4.08144796 L4.60412002,4.17420814 C4.54231975,4.69984917 5.06762203,5.13273002 5.56202418,5.13273002 Z"></path>
                            <path d="M2.62651142,3.03016591 L1.05060457,3.03016591 C0.525302284,3.03016591 0.092700403,3.46304676 0.092700403,3.98868778 L0.092700403,4.08144796 C0.092700403,4.60708899 0.525302284,5.03996983 1.05060457,5.03996983 L2.62651142,5.03996983 C3.1518137,5.03996983 3.58441558,4.60708899 3.58441558,4.08144796 L3.58441558,3.98868778 C3.58441558,3.49396682 3.1518137,3.03016591 2.62651142,3.03016591 Z"></path>
                            <path d="M22.5879982,8.16289593 L25.2763099,8.16289593 C25.8016122,8.16289593 26.2342141,7.73001508 26.2342141,7.20437406 L26.2342141,7.11161388 C26.2342141,6.58597285 25.8016122,6.15309201 25.2763099,6.15309201 L22.5879982,6.15309201 C22.0626959,6.15309201 21.630094,6.58597285 21.630094,7.11161388 L21.630094,7.20437406 C21.630094,7.6372549 22.0626959,8.16289593 22.5879982,8.16289593 Z"></path>
                            <path d="M28.2427228,8.16289593 L32.0743395,8.16289593 C32.5996417,8.16289593 33.0322436,7.73001508 33.0322436,7.20437406 L33.0322436,7.11161388 C33.0322436,6.58597285 32.5996417,6.15309201 32.0743395,6.15309201 L28.2427228,6.15309201 C27.7174205,6.15309201 27.2848186,6.58597285 27.2848186,7.11161388 L27.2848186,7.20437406 C27.2848186,7.6372549 27.7174205,8.16289593 28.2427228,8.16289593 Z"></path>
                            <path d="M28.2427228,11.1312217 L32.0743395,11.1312217 C32.5996417,11.1312217 33.0322436,10.6983409 33.0322436,10.1726998 L33.0322436,10.1726998 C33.0322436,9.64705882 32.5996417,9.21417798 32.0743395,9.21417798 L28.2427228,9.21417798 C27.7174205,9.21417798 27.2848186,9.64705882 27.2848186,10.1726998 L27.2848186,10.1726998 C27.2848186,10.6983409 27.7174205,11.1312217 28.2427228,11.1312217 Z"></path>
                            <path d="M2.62651142,6.09125189 L1.05060457,6.09125189 C0.525302284,6.09125189 0.092700403,6.52413273 0.092700403,7.04977376 L0.092700403,7.14253394 C0.092700403,7.66817496 0.525302284,8.10105581 1.05060457,8.10105581 L2.62651142,8.10105581 C3.1518137,8.10105581 3.58441558,7.66817496 3.58441558,7.14253394 L3.58441558,7.14253394 C3.58441558,6.52413273 3.1518137,6.09125189 2.62651142,6.09125189 Z"></path>
                            <path d="M27.2848186,3.98868778 L27.2848186,4.08144796 C27.2848186,4.60708899 27.7174205,5.03996983 28.2427228,5.03996983 L32.0743395,5.03996983 C32.5996417,5.03996983 33.0322436,4.60708899 33.0322436,4.08144796 L33.0322436,3.98868778 C33.0322436,3.46304676 32.5996417,3.03016591 32.0743395,3.03016591 L28.2427228,3.03016591 C27.7174205,3.03016591 27.2848186,3.49396682 27.2848186,3.98868778 Z"></path>
                            <path d="M25.2763099,3.03016591 L22.5879982,3.03016591 C22.0626959,3.03016591 21.630094,3.46304676 21.630094,3.98868778 L21.630094,4.08144796 C21.630094,4.60708899 22.0626959,5.03996983 22.5879982,5.03996983 L25.2763099,5.03996983 C25.8016122,5.03996983 26.2342141,4.60708899 26.2342141,4.08144796 L26.2342141,3.98868778 C26.3269145,3.49396682 25.8943126,3.03016591 25.2763099,3.03016591 Z"></path>
                            <path d="M22.5879982,11.1312217 L25.2763099,11.1312217 C25.8016122,11.1312217 26.2342141,10.6983409 26.2342141,10.1726998 L26.2342141,10.1726998 C26.2342141,9.64705882 25.8016122,9.21417798 25.2763099,9.21417798 L22.5879982,9.21417798 C22.0626959,9.21417798 21.630094,9.64705882 21.630094,10.1726998 L21.630094,10.1726998 C21.630094,10.6983409 22.0626959,11.1312217 22.5879982,11.1312217 Z"></path>
                            <path d="M22.5879982,2.1025641 L25.2763099,2.1025641 C25.8016122,2.1025641 26.2342141,1.66968326 26.2342141,1.14404223 L26.2342141,1.14404223 C26.2342141,0.618401207 25.8016122,0.185520362 25.2763099,0.185520362 L22.5879982,0.185520362 C22.0626959,0.185520362 21.630094,0.618401207 21.630094,1.14404223 L21.630094,1.14404223 C21.630094,1.57692308 22.0626959,2.1025641 22.5879982,2.1025641 Z"></path>
                            <path d="M2.62651142,21.1184012 L1.05060457,21.1184012 C0.525302284,21.1184012 0.092700403,21.5512821 0.092700403,22.0769231 L0.092700403,22.1696833 C0.092700403,22.6953243 0.525302284,23.1282051 1.05060457,23.1282051 L2.62651142,23.1282051 C3.1518137,23.1282051 3.58441558,22.6953243 3.58441558,22.1696833 L3.58441558,22.0769231 C3.58441558,21.5512821 3.1518137,21.1184012 2.62651142,21.1184012 Z"></path>
                            <path d="M2.62651142,15.1199095 L1.05060457,15.1199095 C0.525302284,15.1199095 0.092700403,15.5527903 0.092700403,16.0784314 L0.092700403,16.1711916 C0.092700403,16.6968326 0.525302284,17.1297134 1.05060457,17.1297134 L2.62651142,17.1297134 C3.1518137,17.1297134 3.58441558,16.6968326 3.58441558,16.1711916 L3.58441558,16.0784314 C3.58441558,15.5527903 3.1518137,15.1199095 2.62651142,15.1199095 Z"></path>
                            <path d="M2.62651142,12.0897436 L1.05060457,12.0897436 C0.525302284,12.0897436 0.092700403,12.5226244 0.092700403,13.0482655 L0.092700403,13.1410256 C0.092700403,13.6666667 0.525302284,14.0995475 1.05060457,14.0995475 L2.62651142,14.0995475 C3.1518137,14.0995475 3.58441558,13.6666667 3.58441558,13.1410256 L3.58441558,13.0482655 C3.58441558,12.5226244 3.1518137,12.0897436 2.62651142,12.0897436 Z"></path>
                            <path d="M2.62651142,18.1500754 L1.05060457,18.1500754 C0.525302284,18.1500754 0.092700403,18.5829563 0.092700403,19.1085973 L0.092700403,19.1085973 C0.092700403,19.6342383 0.525302284,20.0671192 1.05060457,20.0671192 L2.62651142,20.0671192 C3.1518137,20.0671192 3.58441558,19.6342383 3.58441558,19.1085973 L3.58441558,19.1085973 C3.58441558,18.5829563 3.1518137,18.1500754 2.62651142,18.1500754 Z"></path>
                            <path d="M5.56202418,17.1915535 L19.6215853,17.1915535 C20.1468876,17.1915535 20.5794895,16.7586727 20.5794895,16.2330317 L20.5794895,16.1402715 C20.5794895,15.6146305 20.1468876,15.1817496 19.6215853,15.1817496 L5.56202418,15.1817496 C5.0367219,15.1817496 4.60412002,15.6146305 4.60412002,16.1402715 L4.60412002,16.2330317 C4.54231975,16.6968326 5.06762203,17.1915535 5.56202418,17.1915535 Z"></path>
                            <path d="M28.2427228,14.1613876 L32.0743395,14.1613876 C32.5996417,14.1613876 33.0322436,13.7285068 33.0322436,13.2028658 L33.0322436,13.1101056 C33.0322436,12.5844646 32.5996417,12.1515837 32.0743395,12.1515837 L28.2427228,12.1515837 C27.7174205,12.1515837 27.2848186,12.5844646 27.2848186,13.1101056 L27.2848186,13.2028658 C27.2848186,13.7285068 27.7174205,14.1613876 28.2427228,14.1613876 Z"></path>
                            <path d="M28.2427228,20.1598793 L32.0743395,20.1598793 C32.5996417,20.1598793 33.0322436,19.7269985 33.0322436,19.2013575 L33.0322436,19.2013575 C33.0322436,18.6757164 32.5996417,18.2428356 32.0743395,18.2428356 L28.2427228,18.2428356 C27.7174205,18.2428356 27.2848186,18.6757164 27.2848186,19.2013575 L27.2848186,19.2013575 C27.2848186,19.7269985 27.7174205,20.1598793 28.2427228,20.1598793 Z"></path>
                            <path d="M28.2427228,17.1915535 L32.0743395,17.1915535 C32.5996417,17.1915535 33.0322436,16.7586727 33.0322436,16.2330317 L33.0322436,16.1402715 C33.0322436,15.6146305 32.5996417,15.1817496 32.0743395,15.1817496 L28.2427228,15.1817496 C27.7174205,15.1817496 27.2848186,15.6146305 27.2848186,16.1402715 L27.2848186,16.2330317 C27.2848186,16.6968326 27.7174205,17.1915535 28.2427228,17.1915535 Z"></path>
                            <path d="M19.6524854,12.0897436 L5.56202418,12.0897436 C5.0367219,12.0897436 4.60412002,12.5226244 4.60412002,13.0482655 L4.60412002,13.1410256 C4.60412002,13.6666667 5.0367219,14.0995475 5.56202418,14.0995475 L19.6215853,14.0995475 C20.1468876,14.0995475 20.5794895,13.6666667 20.5794895,13.1410256 L20.5794895,13.0482655 C20.5794895,12.5226244 20.1468876,12.0897436 19.6524854,12.0897436 Z"></path>
                            <path d="M28.2427228,23.1900452 L32.0743395,23.1900452 C32.5996417,23.1900452 33.0322436,22.7571644 33.0322436,22.2315234 L33.0322436,22.1387632 C33.0322436,21.6131222 32.5996417,21.1802413 32.0743395,21.1802413 L28.2427228,21.1802413 C27.7174205,21.1802413 27.2848186,21.6131222 27.2848186,22.1387632 L27.2848186,22.2315234 C27.2848186,22.7571644 27.7174205,23.1900452 28.2427228,23.1900452 Z"></path>
                            <path d="M22.5879982,23.1900452 L25.2763099,23.1900452 C25.8016122,23.1900452 26.2342141,22.7571644 26.2342141,22.2315234 L26.2342141,22.1387632 C26.2342141,21.6131222 25.8016122,21.1802413 25.2763099,21.1802413 L22.5879982,21.1802413 C22.0626959,21.1802413 21.630094,21.6131222 21.630094,22.1387632 L21.630094,22.2315234 C21.630094,22.7571644 22.0626959,23.1900452 22.5879982,23.1900452 Z"></path>
                            <path d="M25.2763099,15.1199095 L22.5879982,15.1199095 C22.0626959,15.1199095 21.630094,15.5527903 21.630094,16.0784314 L21.630094,16.1711916 C21.630094,16.6968326 22.0626959,17.1297134 22.5879982,17.1297134 L25.2763099,17.1297134 C25.8016122,17.1297134 26.2342141,16.6968326 26.2342141,16.1711916 L26.2342141,16.0784314 C26.3269145,15.5527903 25.8943126,15.1199095 25.2763099,15.1199095 Z"></path>
                            <path d="M22.5879982,20.1598793 L25.2763099,20.1598793 C25.8016122,20.1598793 26.2342141,19.7269985 26.2342141,19.2013575 L26.2342141,19.2013575 C26.2342141,18.6757164 25.8016122,18.2428356 25.2763099,18.2428356 L22.5879982,18.2428356 C22.0626959,18.2428356 21.630094,18.6757164 21.630094,19.2013575 L21.630094,19.2013575 C21.630094,19.7269985 22.0626959,20.1598793 22.5879982,20.1598793 Z"></path>
                            <path d="M5.56202418,23.1900452 L19.6215853,23.1900452 C20.1468876,23.1900452 20.5794895,22.7571644 20.5794895,22.2315234 L20.5794895,22.1387632 C20.5794895,21.6131222 20.1468876,21.1802413 19.6215853,21.1802413 L5.56202418,21.1802413 C5.0367219,21.1802413 4.60412002,21.6131222 4.60412002,22.1387632 L4.60412002,22.2315234 C4.54231975,22.7571644 5.06762203,23.1900452 5.56202418,23.1900452 Z"></path>
                            <path d="M5.56202418,20.1598793 L19.6215853,20.1598793 C20.1468876,20.1598793 20.5794895,19.7269985 20.5794895,19.2013575 L20.5794895,19.2013575 C20.5794895,18.6757164 20.1468876,18.2428356 19.6215853,18.2428356 L5.56202418,18.2428356 C5.0367219,18.2428356 4.60412002,18.6757164 4.60412002,19.2013575 L4.60412002,19.2013575 C4.54231975,19.7269985 5.06762203,20.1598793 5.56202418,20.1598793 Z"></path>
                            <path d="M22.5879982,14.1613876 L25.2763099,14.1613876 C25.8016122,14.1613876 26.2342141,13.7285068 26.2342141,13.2028658 L26.2342141,13.1101056 C26.2342141,12.5844646 25.8016122,12.1515837 25.2763099,12.1515837 L22.5879982,12.1515837 C22.0626959,12.1515837 21.630094,12.5844646 21.630094,13.1101056 L21.630094,13.2028658 C21.630094,13.7285068 22.0626959,14.1613876 22.5879982,14.1613876 Z"></path>
                            <path d="M22.5879982,32.2187029 L25.2763099,32.2187029 C25.8016122,32.2187029 26.2342141,31.785822 26.2342141,31.260181 L26.2342141,31.1674208 C26.2342141,30.6417798 25.8016122,30.2088989 25.2763099,30.2088989 L22.5879982,30.2088989 C22.0626959,30.2088989 21.630094,30.6417798 21.630094,31.1674208 L21.630094,31.260181 C21.630094,31.785822 22.0626959,32.2187029 22.5879982,32.2187029 Z"></path>
                            <path d="M25.2763099,27.178733 L22.5879982,27.178733 C22.0626959,27.178733 21.630094,27.6116139 21.630094,28.1372549 L21.630094,28.1372549 C21.630094,28.6628959 22.0626959,29.0957768 22.5879982,29.0957768 L25.2763099,29.0957768 C25.8016122,29.0957768 26.2342141,28.6628959 26.2342141,28.1372549 L26.2342141,28.1372549 C26.3269145,27.6116139 25.8943126,27.178733 25.2763099,27.178733 Z"></path>
                            <path d="M25.2763099,24.1485671 L22.5879982,24.1485671 C22.0626959,24.1485671 21.630094,24.581448 21.630094,25.107089 L21.630094,25.1998492 C21.630094,25.7254902 22.0626959,26.158371 22.5879982,26.158371 L25.2763099,26.158371 C25.8016122,26.158371 26.2342141,25.7254902 26.2342141,25.1998492 L26.2342141,25.107089 C26.3269145,24.581448 25.8943126,24.1485671 25.2763099,24.1485671 Z"></path>
                            <path d="M19.6524854,24.1485671 L5.56202418,24.1485671 C5.0367219,24.1485671 4.60412002,24.581448 4.60412002,25.107089 L4.60412002,25.1998492 C4.60412002,25.7254902 5.0367219,26.158371 5.56202418,26.158371 L19.6215853,26.158371 C20.1468876,26.158371 20.5794895,25.7254902 20.5794895,25.1998492 L20.5794895,25.107089 C20.5794895,24.581448 20.1468876,24.1485671 19.6524854,24.1485671 Z"></path>
                            <path d="M19.6524854,27.178733 L5.56202418,27.178733 C5.0367219,27.178733 4.60412002,27.6116139 4.60412002,28.1372549 L4.60412002,28.1372549 C4.60412002,28.6628959 5.0367219,29.0957768 5.56202418,29.0957768 L19.6215853,29.0957768 C20.1468876,29.0957768 20.5794895,28.6628959 20.5794895,28.1372549 L20.5794895,28.1372549 C20.5794895,27.6116139 20.1468876,27.178733 19.6524854,27.178733 Z"></path>
                            <path d="M28.2427228,26.2511312 L32.0743395,26.2511312 C32.5996417,26.2511312 33.0322436,25.8182504 33.0322436,25.2926094 L33.0322436,25.1998492 C33.0322436,24.6742081 32.5996417,24.2413273 32.0743395,24.2413273 L28.2427228,24.2413273 C27.7174205,24.2413273 27.2848186,24.6742081 27.2848186,25.1998492 L27.2848186,25.2926094 C27.2848186,25.7873303 27.7174205,26.2511312 28.2427228,26.2511312 Z"></path>
                            <path d="M5.56202418,32.2187029 L19.6215853,32.2187029 C20.1468876,32.2187029 20.5794895,31.785822 20.5794895,31.260181 L20.5794895,31.1674208 C20.5794895,30.6417798 20.1468876,30.2088989 19.6215853,30.2088989 L5.56202418,30.2088989 C5.0367219,30.2088989 4.60412002,30.6417798 4.60412002,31.1674208 L4.60412002,31.260181 C4.54231975,31.785822 5.06762203,32.2187029 5.56202418,32.2187029 Z"></path>
                            <path d="M28.2427228,29.188537 L32.0743395,29.188537 C32.5996417,29.188537 33.0322436,28.7556561 33.0322436,28.2300151 L33.0322436,28.2300151 C33.0322436,27.7043741 32.5996417,27.2714932 32.0743395,27.2714932 L28.2427228,27.2714932 C27.7174205,27.2714932 27.2848186,27.7043741 27.2848186,28.2300151 L27.2848186,28.2300151 C27.2848186,28.7556561 27.7174205,29.188537 28.2427228,29.188537 Z"></path>
                            <path d="M2.62651142,30.1470588 L1.05060457,30.1470588 C0.525302284,30.1470588 0.092700403,30.5799397 0.092700403,31.1055807 L0.092700403,31.1983409 C0.092700403,31.7239819 0.525302284,32.1568627 1.05060457,32.1568627 L2.62651142,32.1568627 C3.1518137,32.1568627 3.58441558,31.7239819 3.58441558,31.1983409 L3.58441558,31.1055807 C3.58441558,30.5799397 3.1518137,30.1470588 2.62651142,30.1470588 Z"></path>
                            <path d="M2.62651142,27.178733 L1.05060457,27.178733 C0.525302284,27.178733 0.092700403,27.6116139 0.092700403,28.1372549 L0.092700403,28.1372549 C0.092700403,28.6628959 0.525302284,29.0957768 1.05060457,29.0957768 L2.62651142,29.0957768 C3.1518137,29.0957768 3.58441558,28.6628959 3.58441558,28.1372549 L3.58441558,28.1372549 C3.58441558,27.6116139 3.1518137,27.178733 2.62651142,27.178733 Z"></path>
                            <path d="M28.2427228,32.2187029 L32.0743395,32.2187029 C32.5996417,32.2187029 33.0322436,31.785822 33.0322436,31.260181 L33.0322436,31.1674208 C33.0322436,30.6417798 32.5996417,30.2088989 32.0743395,30.2088989 L28.2427228,30.2088989 C27.7174205,30.2088989 27.2848186,30.6417798 27.2848186,31.1674208 L27.2848186,31.260181 C27.2848186,31.785822 27.7174205,32.2187029 28.2427228,32.2187029 Z"></path>
                            <path d="M2.62651142,24.1485671 L1.05060457,24.1485671 C0.525302284,24.1485671 0.092700403,24.581448 0.092700403,25.107089 L0.092700403,25.1998492 C0.092700403,25.7254902 0.525302284,26.158371 1.05060457,26.158371 L2.62651142,26.158371 C3.1518137,26.158371 3.58441558,25.7254902 3.58441558,25.1998492 L3.58441558,25.107089 C3.58441558,24.581448 3.1518137,24.1485671 2.62651142,24.1485671 Z"></path>
                        </g>
                        <path d="M32.5687416,1.11312217 C31.9507389,0.494720965 31.1164353,0.154600302 30.2821317,0.154600302 L30.2821317,0.154600302 C31.054635,0.154600302 31.6726377,0.773001508 31.6726377,1.54600302 L31.6726377,4.73076923 C31.6726377,5.6892911 32.4451411,6.46229261 33.4030452,6.46229261 L33.4030452,6.46229261 L35.9677564,6.46229261 C37.0801612,6.46229261 37.9762651,7.35897436 37.9762651,8.47209653 L37.9762651,8.47209653 C37.9762651,7.23529412 37.481863,5.96757164 36.5857591,5.07088989 L32.5687416,1.11312217 Z" id="Shape" fill="#AABFD7"></path>
                    </g>
                    <g id="Group" transform="translate(0.432602, 36.176471)">
                        <path d="M38.6251679,0.618401207 L38.6251679,0.618401207 C38.9032691,0.89668175 38.9341693,1.32956259 38.6560681,1.60784314 L27.4702194,14.1613876 C27.1921182,14.4396682 26.7595163,14.4705882 26.4814151,14.1923077 L26.4814151,14.1923077 C26.2033139,13.9140271 26.1724138,13.4811463 26.450515,13.2028658 L37.6363636,0.649321267 C37.9144648,0.371040724 38.3470667,0.371040724 38.6251679,0.618401207 Z" id="Shape" fill="#FD6281"></path>
                        <polygon id="Shape" fill="#F4D4CE" points="28.520824 18.4901961 16.9950739 4.54524887 0.278101209 18.428356 11.7729512 32.3733032"></polygon>
                        <path d="M15.2955665,2.72096531 L32.7850425,17.1915535 C33.3721451,17.6862745 33.6811464,18.2119155 33.124944,18.8612368 L31.9507389,20.3453997 C26.9758173,26.158371 18.5400806,27.2714932 13.1325571,22.7571644 L13.1325571,22.7571644 C7.69413345,18.2737557 7.32333184,9.89441931 12.2673533,4.01960784 L14.0595611,1.9479638 C14.6157635,1.36048265 14.7084639,2.19532428 15.2955665,2.72096531 Z" id="Shape" fill="#F4D4CE"></path>
                        <path d="M32.1361397,10.2963801 C31.7962382,9.89441931 31.3636364,9.55429864 30.9310345,9.2760181 C29.8495298,11.1621418 28.2736229,12.7699849 26.2033139,13.2956259 C24.4111061,13.7285068 22.5261979,13.2647059 21.1356919,12.0588235 C20.9811912,14.4396682 20.7957904,18.0882353 20.7957904,18.0882353 C20.7957904,18.0882353 31.4563368,20.8710407 31.4872369,20.8401207 C34.5154501,17.8408748 35.0407524,13.3574661 32.1361397,10.2963801 Z" id="Shape" fill="#F4D4CE"></path>
                        <path d="M33.6193462,17.4698341 L39.8611733,2.62820513 C40.2628751,1.97888386 40.015674,1.14404223 39.3667712,0.742081448 L39.3667712,0.742081448 C37.0492611,-0.556561086 34.1446485,0.247360483 32.8468428,2.53544495 L25.4926108,12.9864253" id="Shape" fill="#F4D4CE"></path>
                        <path d="M31.3945365,4.54524887 L30.0658307,6.46229261 C27.9646216,9.67797888 22.773399,9.98717949 19.8378863,7.54449472 L18.9726825,6.83333333 L15.4500672,7.6372549 L18.2310793,15.5218703 L26.0488133,19.3559578 L32.9704433,11.9969834 L34.0210479,4.69984917 L31.3945365,4.54524887 Z" id="Shape" fill="#F4D4CE"></path>
                    </g>
                </g>
            </g>
        </g>
    </g>
</svg>