<?xml version="1.0" encoding="UTF-8"?>
<svg width="67px" height="67px" viewBox="0 0 67 67" version="1.1" xmlns="http://www.w3.org/2000/svg" xmlns:xlink="http://www.w3.org/1999/xlink">
    <!-- Generator: Sketch 49 (51002) - http://www.bohemiancoding.com/sketch -->
    <title>Group 33</title>
    <desc>Created with Sketch.</desc>
    <defs>
        <polygon id="path-1" points="4.93488761e-21 0.00010923913 4.93488761e-21 67 66.9999272 67 66.9999272 0.00010923913 0 0.00010923913"></polygon>
        <polygon id="path-3" points="0.226190476 5.49133827 0.226190476 42.0326388 56.8247024 42.0326388 56.8247024 0.161577079 0.226190476 0.161577079 0.226190476 5.49133827 0.226054762 42.0326162 48.4274714 42.0326162 48.4274714 5.49133827"></polygon>
        <polygon id="path-5" points="0.226190476 42.0970436 56.8247024 42.0970436 56.8247024 0.225981929 0.226190476 0.225981929"></polygon>
    </defs>
    <g id="Projeto" stroke="none" stroke-width="1" fill="none" fill-rule="evenodd">
        <g id="summit" transform="translate(-686.000000, -1512.000000)">
            <g id="Group-33" transform="translate(686.000000, 1512.000000)">
                <g id="Page-1">
                    <g id="Group-3">
                        <mask id="mask-2" fill="white">
                            <use xlink:href="#path-1"></use>
                        </mask>
                        <g id="Clip-2"></g>
                        <path d="M66.9999272,33.5001092 C66.9999272,52.0015766 52.0017587,67.0001092 33.4999272,67.0001092 C14.9984598,67.0001092 -7.28260869e-05,52.0015766 -7.28260869e-05,33.5001092 C-7.28260869e-05,14.9982777 14.9984598,0.00010923913 33.4999272,0.00010923913 C52.0017587,0.00010923913 66.9999272,14.9982777 66.9999272,33.5001092" id="Fill-1" fill="#EFEFEF" mask="url(#mask-2)"></path>
                    </g>
                </g>
                <g id="Page-1" transform="translate(8.000000, 7.000000)">
                    <path d="M5.51909286,4.8969832 C5.23364048,4.8969832 5.00224762,4.66580369 5.00224762,4.38061449 L5.00224762,1.80442051 C5.00224762,1.51945729 5.23364048,1.28827778 5.51909286,1.28827778 C5.80454524,1.28827778 6.0359381,1.51945729 6.0359381,1.80442051 L6.0359381,4.38061449 C6.0359381,4.66580369 5.80454524,4.8969832 5.51909286,4.8969832 Z" id="Fill-1" fill="#038ADA"></path>
                    <path d="M10.2690929,4.8969832 C9.98364048,4.8969832 9.75224762,4.66580369 9.75224762,4.38061449 L9.75224762,1.80442051 C9.75224762,1.51945729 9.98364048,1.28827778 10.2690929,1.28827778 C10.5545452,1.28827778 10.7859381,1.51945729 10.7859381,1.80442051 L10.7859381,4.38061449 C10.7859381,4.66580369 10.5545452,4.8969832 10.2690929,4.8969832" id="Fill-3" fill="#038ADA"></path>
                    <path d="M15.1321881,4.8969832 C14.8467357,4.8969832 14.6153429,4.66580369 14.6153429,4.38061449 L14.6153429,1.80442051 C14.6153429,1.51945729 14.8467357,1.28827778 15.1321881,1.28827778 C15.4176405,1.28827778 15.6490333,1.51945729 15.6490333,1.80442051 L15.6490333,4.38061449 C15.6490333,4.66580369 15.4176405,4.8969832 15.1321881,4.8969832" id="Fill-5" fill="#038ADA"></path>
                    <path d="M19.95,4.8969832 C19.6645476,4.8969832 19.4331548,4.66580369 19.4331548,4.38061449 L19.4331548,1.80442051 C19.4331548,1.51945729 19.6645476,1.28827778 19.95,1.28827778 C20.2354524,1.28827778 20.4668452,1.51945729 20.4668452,1.80442051 L20.4668452,4.38061449 C20.4668452,4.66580369 20.2354524,4.8969832 19.95,4.8969832" id="Fill-7" fill="#038ADA"></path>
                    <path d="M24.7,4.8969832 C24.4145476,4.8969832 24.1831548,4.66580369 24.1831548,4.38061449 L24.1831548,1.80442051 C24.1831548,1.51945729 24.4145476,1.28827778 24.7,1.28827778 C24.9854524,1.28827778 25.2168452,1.51945729 25.2168452,1.80442051 L25.2168452,4.38061449 C25.2168452,4.66580369 24.9854524,4.8969832 24.7,4.8969832" id="Fill-9" fill="#038ADA"></path>
                    <path d="M29.5178119,4.8969832 C29.2323595,4.8969832 29.0011929,4.66580369 29.0011929,4.38061449 L29.0011929,1.80442051 C29.0011929,1.51945729 29.2323595,1.28827778 29.5178119,1.28827778 C29.8032643,1.28827778 30.034431,1.51945729 30.034431,1.80442051 L30.034431,4.38061449 C30.034431,4.66580369 29.8032643,4.8969832 29.5178119,4.8969832" id="Fill-11" fill="#038ADA"></path>
                    <path d="M34.2905667,4.8969832 C34.0051143,4.8969832 33.7739476,4.66580369 33.7739476,4.38061449 L33.7739476,1.80442051 C33.7739476,1.51945729 34.0051143,1.28827778 34.2905667,1.28827778 C34.576019,1.28827778 34.8071857,1.51945729 34.8071857,1.80442051 L34.8071857,4.38061449 C34.8071857,4.66580369 34.576019,4.8969832 34.2905667,4.8969832" id="Fill-13" fill="#038ADA"></path>
                    <path d="M39.0405667,4.8969832 C38.7551143,4.8969832 38.5239476,4.66580369 38.5239476,4.38061449 L38.5239476,1.80442051 C38.5239476,1.51945729 38.7551143,1.28827778 39.0405667,1.28827778 C39.326019,1.28827778 39.5571857,1.51945729 39.5571857,1.80442051 L39.5571857,4.38061449 C39.5571857,4.66580369 39.326019,4.8969832 39.0405667,4.8969832" id="Fill-15" fill="#038ADA"></path>
                    <path d="M43.8583786,4.8969832 C43.5729262,4.8969832 43.3417595,4.66580369 43.3417595,4.38061449 L43.3417595,1.80442051 C43.3417595,1.51945729 43.5729262,1.28827778 43.8583786,1.28827778 C44.143831,1.28827778 44.3749976,1.51945729 44.3749976,1.80442051 L44.3749976,4.38061449 C44.3749976,4.66580369 44.143831,4.8969832 43.8583786,4.8969832" id="Fill-17" fill="#038ADA"></path>
                    <path d="M0.294070238,7.61217867 C0.294070238,6.50486722 1.1762131,5.55574312 2.35240357,5.55574312 L46.4369274,5.55574312 C47.5452607,5.55574312 48.4952607,6.43707264 48.4952607,7.61217867 L48.4952607,38.933274 C48.4952607,40.6959331 47.0928798,42.097021 45.328594,42.097021 L9.09287976,42.097021 C8.2107369,42.097021 7.32859405,41.7354499 6.74049881,41.1027005 L2.17145119,36.5378656 C0.995260714,35.3627595 0.407165476,33.8486806 0.407165476,32.1990125 L0.407165476,7.61217867 L0.294070238,7.61217867 Z" id="Fill-19" fill="#AABFD7"></path>
                    <g id="Group-23" transform="translate(0.000000, 0.064405)">
                        <mask id="mask-4" fill="white">
                            <use xlink:href="#path-3"></use>
                        </mask>
                        <g id="Clip-22"></g>
                        <path d="M48.4274714,7.54777382 C48.4274714,6.44046237 47.5453286,5.49133827 46.3689119,5.49133827 L2.28461429,5.49133827 C1.17628095,5.49133827 0.226054762,6.37266779 0.226054762,7.54777382 L0.226054762,38.6880836 C0.226054762,40.5637336 1.74175714,42.0326162 3.5739,42.0326162 L39.6286619,42.0326162 C40.5108048,42.0326162 41.3927214,41.6710451 41.9810429,41.0382957 L46.5498643,36.4734607 C47.7260548,35.2983547 48.3143762,33.7842758 48.3143762,32.1346077 L48.3143762,7.54777382 L48.4274714,7.54777382 Z" id="Fill-21" fill="#AABFD7" mask="url(#mask-4)"></path>
                    </g>
                    <path d="M1.33456905,6.61788079 C1.33456905,5.51056933 2.2167119,4.56144523 3.39290238,4.56144523 L47.4774262,4.56144523 C48.5855333,4.56144523 49.5357595,5.44277476 49.5357595,6.61788079 L49.5357595,38.4135382 C49.5357595,39.9276171 48.2917119,41.1705177 46.7760095,41.1705177 L10.1333786,41.1705177 C9.25123571,41.1705177 8.36909286,40.8089466 7.78099762,40.1761972 L3.21195,35.6113623 C2.03575952,34.4362562 1.44766429,32.9221773 1.44766429,31.2725092 L1.44766429,6.64047898 L1.33456905,6.64047898 L1.33456905,6.61788079 Z" id="Fill-24" fill="#AABFD7"></path>
                    <path d="M49.4903857,6.61788079 C49.4903857,5.51056933 48.608469,4.56144523 47.4320524,4.56144523 L3.34752857,4.56144523 C2.23942143,4.56144523 1.28919524,5.44277476 1.28919524,6.61788079 L1.28919524,38.4135382 C1.28919524,39.9276171 2.53324286,41.1705177 4.04894524,41.1705177 L40.6918024,41.1705177 C41.573719,41.1705177 42.4558619,40.8089466 43.0439571,40.1761972 L47.6130048,35.6113623 C48.7891952,34.4362562 49.3772905,32.9221773 49.3772905,31.2725092 L49.3772905,6.64047898 L49.4903857,6.64047898 L49.4903857,6.61788079 Z" id="Fill-26" fill="#AABFD7"></path>
                    <path d="M50.4857143,5.55572052 C50.4857143,4.44840907 49.6035714,3.49928497 48.427381,3.49928497 L4.38809524,3.49928497 C3.2797619,3.49928497 2.3297619,4.38061449 2.3297619,5.55572052 L2.3297619,38.0519219 C2.3297619,39.1592333 3.21190476,40.1083574 4.38809524,40.1083574 L41.7321429,40.1083574 C42.6142857,40.1083574 43.4964286,39.7467864 44.0845238,39.114037 L48.6535714,34.549202 C49.8297619,33.3743219 50.4178571,31.860017 50.4178571,30.2105749 L50.4178571,5.57831872 L50.4857143,5.57831872 L50.4857143,5.55572052 Z" id="Fill-28" fill="#DCE5F9"></path>
                    <path d="M7.39642857,5.48797114 C8.14579762,5.48797114 8.75357143,6.09518458 8.75357143,6.84386271 C8.75357143,7.59254084 8.14579762,8.19975429 7.39642857,8.19975429 C6.64705952,8.19975429 6.03928571,7.59254084 6.03928571,6.84386271 C6.03928571,6.09518458 6.64705952,5.48797114 7.39642857,5.48797114" id="Fill-30" fill="#AABFD7"></path>
                    <path d="M12.1464286,5.48797114 C12.8957976,5.48797114 13.5035714,6.09518458 13.5035714,6.84386271 C13.5035714,7.59254084 12.8957976,8.19975429 12.1464286,8.19975429 C11.3970595,8.19975429 10.7892857,7.59254084 10.7892857,6.84386271 C10.7892857,6.09518458 11.3970595,5.48797114 12.1464286,5.48797114" id="Fill-32" fill="#AABFD7"></path>
                    <path d="M12.1464286,7.1341817 C11.8609762,7.1341817 11.6295833,6.90300219 11.6295833,6.61781299 L11.6295833,1.32983586 C11.6295833,1.04487264 11.8609762,0.813693131 12.1464286,0.813693131 C12.431881,0.813693131 12.6632738,1.04487264 12.6632738,1.32983586 L12.6632738,6.61781299 C12.6632738,6.90300219 12.431881,7.1341817 12.1464286,7.1341817" id="Fill-34" fill="#038ADA"></path>
                    <path d="M16.9642405,5.48797114 C17.7138357,5.48797114 18.3213833,6.09518458 18.3213833,6.84386271 C18.3213833,7.59254084 17.7138357,8.19975429 16.9642405,8.19975429 C16.2148714,8.19975429 15.6070976,7.59254084 15.6070976,6.84386271 C15.6070976,6.09518458 16.2148714,5.48797114 16.9642405,5.48797114" id="Fill-36" fill="#AABFD7"></path>
                    <path d="M16.9642405,7.1341817 C16.6787881,7.1341817 16.4473952,6.90300219 16.4473952,6.61781299 L16.4473952,1.32983586 C16.4473952,1.04487264 16.6787881,0.813693131 16.9642405,0.813693131 C17.2496929,0.813693131 17.4810857,1.04487264 17.4810857,1.32983586 L17.4810857,6.61781299 C17.4810857,6.90300219 17.2496929,7.1341817 16.9642405,7.1341817" id="Fill-38" fill="#038ADA"></path>
                    <path d="M21.7142405,5.48797114 C22.4638357,5.48797114 23.0713833,6.09518458 23.0713833,6.84386271 C23.0713833,7.59254084 22.4638357,8.19975429 21.7142405,8.19975429 C20.9648714,8.19975429 20.3570976,7.59254084 20.3570976,6.84386271 C20.3570976,6.09518458 20.9648714,5.48797114 21.7142405,5.48797114" id="Fill-40" fill="#AABFD7"></path>
                    <path d="M21.7142405,7.1341817 C21.4287881,7.1341817 21.1973952,6.90300219 21.1973952,6.61781299 L21.1973952,1.32983586 C21.1973952,1.04487264 21.4287881,0.813693131 21.7142405,0.813693131 C21.9996929,0.813693131 22.2310857,1.04487264 22.2310857,1.32983586 L22.2310857,6.61781299 C22.2310857,6.90300219 21.9996929,7.1341817 21.7142405,7.1341817" id="Fill-42" fill="#038ADA"></path>
                    <path d="M26.5321655,5.48797114 C27.2815345,5.48797114 27.8893083,6.09518458 27.8893083,6.84386271 C27.8893083,7.59254084 27.2815345,8.19975429 26.5321655,8.19975429 C25.7825702,8.19975429 25.1750226,7.59254084 25.1750226,6.84386271 C25.1750226,6.09518458 25.7825702,5.48797114 26.5321655,5.48797114" id="Fill-44" fill="#AABFD7"></path>
                    <path d="M26.5321655,7.1341817 C26.2467131,7.1341817 26.0153202,6.90300219 26.0153202,6.61781299 L26.0153202,1.32983586 C26.0153202,1.04487264 26.2467131,0.813693131 26.5321655,0.813693131 C26.8176179,0.813693131 27.0490107,1.04487264 27.0490107,1.32983586 L27.0490107,6.61781299 C27.0490107,6.90300219 26.8176179,7.1341817 26.5321655,7.1341817" id="Fill-46" fill="#038ADA"></path>
                    <path d="M31.3500905,5.48797114 C32.0994595,5.48797114 32.7072333,6.09518458 32.7072333,6.84386271 C32.7072333,7.59254084 32.0994595,8.19975429 31.3500905,8.19975429 C30.6004952,8.19975429 29.9929476,7.59254084 29.9929476,6.84386271 C29.9929476,6.09518458 30.6004952,5.48797114 31.3500905,5.48797114" id="Fill-48" fill="#AABFD7"></path>
                    <path d="M31.2820524,7.1341817 C30.9966,7.1341817 30.7654333,6.90300219 30.7654333,6.61781299 L30.7654333,1.32983586 C30.7654333,1.04487264 30.9966,0.813693131 31.2820524,0.813693131 C31.5675048,0.813693131 31.7986714,1.04487264 31.7986714,1.32983586 L31.7986714,6.61781299 C31.7986714,6.90300219 31.5675048,7.1341817 31.2820524,7.1341817" id="Fill-50" fill="#038ADA"></path>
                    <path d="M36.1000905,5.48797114 C36.8494595,5.48797114 37.4572333,6.09518458 37.4572333,6.84386271 C37.4572333,7.59254084 36.8494595,8.19975429 36.1000905,8.19975429 C35.3504952,8.19975429 34.7429476,7.59254084 34.7429476,6.84386271 C34.7429476,6.09518458 35.3504952,5.48797114 36.1000905,5.48797114" id="Fill-52" fill="#AABFD7"></path>
                    <path d="M36.1000905,7.1341817 C35.8146381,7.1341817 35.5834714,6.90300219 35.5834714,6.61781299 L35.5834714,1.32983586 C35.5834714,1.04487264 35.8146381,0.813693131 36.1000905,0.813693131 C36.3855429,0.813693131 36.6167095,1.04487264 36.6167095,1.32983586 L36.6167095,6.61781299 C36.6167095,6.90300219 36.3855429,7.1341817 36.1000905,7.1341817" id="Fill-54" fill="#038ADA"></path>
                    <path d="M40.9179024,5.48797114 C41.6672714,5.48797114 42.2750452,6.09518458 42.2750452,6.84386271 C42.2750452,7.59254084 41.6672714,8.19975429 40.9179024,8.19975429 C40.1685333,8.19975429 39.5607595,7.59254084 39.5607595,6.84386271 C39.5607595,6.09518458 40.1685333,5.48797114 40.9179024,5.48797114" id="Fill-56" fill="#AABFD7"></path>
                    <path d="M40.8500905,7.1341817 C40.5646381,7.1341817 40.3334714,6.90300219 40.3334714,6.61781299 L40.3334714,1.32983586 C40.3334714,1.04487264 40.5646381,0.813693131 40.8500905,0.813693131 C41.1355429,0.813693131 41.3667095,1.04487264 41.3667095,1.32983586 L41.3667095,6.61781299 C41.3667095,6.90300219 41.1355429,7.1341817 40.8500905,7.1341817" id="Fill-58" fill="#038ADA"></path>
                    <path d="M45.6679024,5.48797114 C46.4172714,5.48797114 47.0250452,6.09518458 47.0250452,6.84386271 C47.0250452,7.59254084 46.4172714,8.19975429 45.6679024,8.19975429 C44.9185333,8.19975429 44.3107595,7.59254084 44.3107595,6.84386271 C44.3107595,6.09518458 44.9185333,5.48797114 45.6679024,5.48797114" id="Fill-60" fill="#AABFD7"></path>
                    <path d="M45.6679024,7.1341817 C45.38245,7.1341817 45.1512833,6.90300219 45.1512833,6.61781299 L45.1512833,1.32983586 C45.1512833,1.04487264 45.38245,0.813693131 45.6679024,0.813693131 C45.9533548,0.813693131 46.1845214,1.04487264 46.1845214,1.32983586 L46.1845214,6.61781299 C46.1845214,6.90300219 45.9533548,7.1341817 45.6679024,7.1341817" id="Fill-62" fill="#038ADA"></path>
                    <path d="M46.6179476,11.9510769 L5.33818571,11.9510769 C5.0441381,11.9510769 4.86295952,12.1770588 4.86295952,12.425639 L4.86295952,36.4701162 C4.86295952,36.7638927 5.08915,36.9446782 5.33818571,36.9446782 L44.6272452,36.9446782 C44.921519,36.9446782 45.1024714,36.7186963 45.1024714,36.4701162 C45.1024714,36.1763397 44.876281,35.9955541 44.6272452,35.9955541 L41.2796262,35.9955541 L41.2796262,36.2215361 C41.2796262,36.5153126 41.0534357,36.6960981 40.8048524,36.6960981 C40.5108048,36.6960981 40.3296262,36.4701162 40.3296262,36.2215361 L40.3296262,35.9955541 L35.3986738,35.9955541 L35.3986738,36.2215361 C35.3986738,36.5153126 35.1724833,36.6960981 34.9239,36.6960981 C34.6977095,36.6960981 34.4486738,36.4701162 34.4486738,36.2215361 L34.4486738,35.9955541 L29.5177214,35.9955541 L29.5177214,36.2215361 C29.5177214,36.5153126 29.291531,36.6960981 29.0429476,36.6960981 C28.7941381,36.6960981 28.5679476,36.4701162 28.5679476,36.2215361 L28.5679476,35.9955541 L23.636769,35.9955541 L23.636769,36.2215361 C23.636769,36.5153126 23.4105786,36.6960981 23.1619952,36.6960981 C22.9131857,36.6960981 22.6869952,36.4701162 22.6869952,36.2215361 L22.6869952,35.9955541 L17.7558167,35.9955541 L17.7558167,36.2215361 C17.7558167,36.5153126 17.5296262,36.6960981 17.2810429,36.6960981 C16.9869952,36.6960981 16.8060429,36.4701162 16.8060429,36.2215361 L16.8060429,35.9955541 L11.9203286,35.9955541 L11.9203286,36.2215361 C11.9203286,36.5153126 11.6941381,36.6960981 11.4453286,36.6960981 C11.151281,36.6960981 10.9701024,36.4701162 10.9701024,36.2215361 L10.9701024,35.9955541 L6.10700714,35.9955541 L6.10700714,30.9561571 L5.70009048,30.9561571 C5.40604286,30.9561571 5.22509048,30.7301752 5.22509048,30.4815951 C5.22509048,30.1878186 5.45128095,30.007033 5.70009048,30.007033 L6.10700714,30.007033 L6.10700714,25.0354306 L5.70009048,25.0354306 C5.40604286,25.0354306 5.22509048,24.8094487 5.22509048,24.5608685 C5.22509048,24.3122884 5.45128095,24.0863065 5.70009048,24.0863065 L6.10700714,24.0863065 L6.10700714,18.9791149 L5.70009048,18.9791149 C5.40604286,18.9791149 5.22509048,18.753133 5.22509048,18.5045528 C5.22509048,18.2107763 5.45128095,18.0299908 5.70009048,18.0299908 L6.10700714,18.0299908 L6.10700714,12.9227992 L10.9701024,12.9227992 L10.9701024,12.6968173 C10.9701024,12.4030408 11.1962929,12.2222552 11.4453286,12.2222552 C11.7393762,12.2222552 11.9203286,12.4482371 11.9203286,12.6968173 L11.9203286,12.9227992 L16.8510548,12.9227992 L16.8510548,12.6968173 C16.8510548,12.4030408 17.0772452,12.2222552 17.326281,12.2222552 C17.6203286,12.2222552 17.801281,12.4482371 17.801281,12.6968173 L17.801281,12.9227992 L22.7320071,12.9227992 L22.7320071,12.6968173 C22.7320071,12.4030408 22.9581976,12.2222552 23.2072333,12.2222552 C23.4560429,12.2222552 23.6822333,12.4482371 23.6822333,12.6968173 L23.6822333,12.9227992 L28.6129595,12.9227992 L28.6129595,12.6968173 C28.6129595,12.4030408 28.83915,12.2222552 29.0881857,12.2222552 C29.3369952,12.2222552 29.5631857,12.4482371 29.5631857,12.6968173 L29.5631857,12.9227992 L34.4939119,12.9227992 L34.4939119,12.6968173 C34.4939119,12.4030408 34.7201024,12.2222552 34.9691381,12.2222552 C35.1953286,12.2222552 35.4441381,12.4482371 35.4441381,12.6968173 L35.4441381,12.9227992 L40.3748643,12.9227992 L40.3748643,12.6968173 C40.3748643,12.4030408 40.6010548,12.2222552 40.8500905,12.2222552 C41.1441381,12.2222552 41.3250905,12.4482371 41.3250905,12.6968173 L41.3250905,12.9227992 L46.1881857,12.9227992 L46.1881857,18.0299908 L46.5951024,18.0299908 C46.88915,18.0299908 47.0703286,18.2559727 47.0703286,18.5045528 C47.0703286,18.7983293 46.8441381,18.9791149 46.5951024,18.9791149 L46.1881857,18.9791149 L46.1881857,23.9733155 L46.5951024,23.9733155 C46.88915,23.9733155 47.0703286,24.1992974 47.0703286,24.4478776 C47.0703286,24.6964577 46.8441381,24.9224396 46.5951024,24.9224396 L46.1881857,24.9224396 L46.1881857,29.9166402 L46.5951024,29.9166402 C46.88915,29.9166402 47.0703286,30.1426222 47.0703286,30.3912023 C47.0703286,30.6849788 46.8441381,30.8657643 46.5951024,30.8657643 L46.1881857,30.8657643 L46.1881857,34.0295113 C46.1881857,34.3232879 46.4143762,34.5040734 46.6629595,34.5040734 C46.9572333,34.5040734 47.1381857,34.2780915 47.1381857,34.0295113 L47.1381857,12.3352462 C47.1381857,12.1318624 46.9119952,11.9510769 46.6179476,11.9510769" id="Fill-64" fill="#FFFFFF"></path>
                    <mask id="mask-6" fill="white">
                        <use xlink:href="#path-5"></use>
                    </mask>
                    <g id="Clip-67"></g>
                    <polygon id="Fill-66" fill="#FFFFFF" mask="url(#mask-6)" points="10.7440476 29.961814 11.7392857 29.961814 11.7392857 24.9676134 10.7440476 24.9676134"></polygon>
                    <polygon id="Fill-68" fill="#FFFFFF" mask="url(#mask-6)" points="10.7440476 23.9732929 11.7392857 23.9732929 11.7392857 18.9790923 10.7440476 18.9790923"></polygon>
                    <polygon id="Fill-69" fill="#FFFFFF" mask="url(#mask-6)" points="10.7440476 18.0525664 11.7392857 18.0525664 11.7392857 12.9453748 10.7440476 12.9453748"></polygon>
                    <polygon id="Fill-70" fill="#FFFFFF" mask="url(#mask-6)" points="10.7440476 35.9955315 11.7392857 35.9955315 11.7392857 30.9561345 10.7440476 30.9561345"></polygon>
                    <path d="M10.7440024,36.2215135 C10.7440024,36.51529 10.9701929,36.6960755 11.2190024,36.6960755 C11.51305,36.6960755 11.6940024,36.4700936 11.6940024,36.2215135 L11.6940024,35.9955315 L10.6987643,35.9955315 L10.6987643,36.2215135 L10.7440024,36.2215135 Z" id="Fill-71" fill="#FFFFFF" mask="url(#mask-6)"></path>
                    <path d="M10.7440024,36.2215135 C10.7440024,36.51529 10.9701929,36.6960755 11.2190024,36.6960755 C11.51305,36.6960755 11.6940024,36.4700936 11.6940024,36.2215135 L11.6940024,35.9955315 L10.6987643,35.9955315 L10.6987643,36.2215135 L10.7440024,36.2215135 Z" id="Fill-72" fill="#FFFFFF" mask="url(#mask-6)"></path>
                    <path d="M11.739331,12.7193929 C11.739331,12.4256164 11.5131405,12.2448308 11.264331,12.2448308 C10.9702833,12.2448308 10.789331,12.4708127 10.789331,12.7193929 L10.789331,12.9453748 L11.784569,12.9453748 L11.784569,12.7193929 L11.739331,12.7193929 Z" id="Fill-73" fill="#FFFFFF" mask="url(#mask-6)"></path>
                    <path d="M11.739331,12.7193929 C11.739331,12.4256164 11.5131405,12.2448308 11.264331,12.2448308 C10.9702833,12.2448308 10.789331,12.4708127 10.789331,12.7193929 L10.789331,12.9453748 L11.784569,12.9453748 L11.784569,12.7193929 L11.739331,12.7193929 Z" id="Fill-74" fill="#FFFFFF" mask="url(#mask-6)"></path>
                    <polygon id="Fill-75" fill="#FFFFFF" mask="url(#mask-6)" points="16.6702381 29.961814 17.6654762 29.961814 17.6654762 24.9676134 16.6702381 24.9676134"></polygon>
                    <polygon id="Fill-76" fill="#FFFFFF" mask="url(#mask-6)" points="16.6702381 35.9955315 17.6654762 35.9955315 17.6654762 30.9561345 16.6702381 30.9561345"></polygon>
                    <polygon id="Fill-77" fill="#FFFFFF" mask="url(#mask-6)" points="16.6702381 18.0525664 17.6654762 18.0525664 17.6654762 12.9453748 16.6702381 12.9453748"></polygon>
                    <polygon id="Fill-78" fill="#FFFFFF" mask="url(#mask-6)" points="16.6702381 23.9732929 17.6654762 23.9732929 17.6654762 18.9790923 16.6702381 18.9790923"></polygon>
                    <path d="M17.6654536,12.7193929 C17.6654536,12.4256164 17.4392631,12.2448308 17.1904536,12.2448308 C16.896406,12.2448308 16.7154536,12.4708127 16.7154536,12.7193929 L16.7154536,12.9453748 L17.7106917,12.9453748 L17.7106917,12.7193929 L17.6654536,12.7193929 Z" id="Fill-79" fill="#FFFFFF" mask="url(#mask-6)"></path>
                    <path d="M17.6654536,12.7193929 C17.6654536,12.4256164 17.4392631,12.2448308 17.1904536,12.2448308 C16.896406,12.2448308 16.7154536,12.4708127 16.7154536,12.7193929 L16.7154536,12.9453748 L17.7106917,12.9453748 L17.7106917,12.7193929 L17.6654536,12.7193929 Z" id="Fill-80" fill="#FFFFFF" mask="url(#mask-6)"></path>
                    <path d="M16.6702381,36.2215135 C16.6702381,36.51529 16.8964286,36.6960755 17.1452381,36.6960755 C17.4392857,36.6960755 17.6202381,36.4700936 17.6202381,36.2215135 L17.6202381,35.9955315 L16.625,35.9955315 L16.625,36.2215135 L16.6702381,36.2215135 Z" id="Fill-81" fill="#FFFFFF" mask="url(#mask-6)"></path>
                    <path d="M16.6702381,36.2215135 C16.6702381,36.51529 16.8964286,36.6960755 17.1452381,36.6960755 C17.4392857,36.6960755 17.6202381,36.4700936 17.6202381,36.2215135 L17.6202381,35.9955315 L16.625,35.9955315 L16.625,36.2215135 L16.6702381,36.2215135 Z" id="Fill-82" fill="#FFFFFF" mask="url(#mask-6)"></path>
                    <polygon id="Fill-83" fill="#FFFFFF" mask="url(#mask-6)" points="22.5285714 23.9732929 23.5238095 23.9732929 23.5238095 18.9790923 22.5285714 18.9790923"></polygon>
                    <polygon id="Fill-84" fill="#FFFFFF" mask="url(#mask-6)" points="22.5285714 18.0525664 23.5238095 18.0525664 23.5238095 12.9453748 22.5285714 12.9453748"></polygon>
                    <polygon id="Fill-85" fill="#FFFFFF" mask="url(#mask-6)" points="22.5285714 29.961814 23.5238095 29.961814 23.5238095 24.9676134 22.5285714 24.9676134"></polygon>
                    <polygon id="Fill-86" fill="#FFFFFF" mask="url(#mask-6)" points="22.5285714 35.9955315 23.5238095 35.9955315 23.5238095 30.9561345 22.5285714 30.9561345"></polygon>
                    <path d="M23.546406,12.7193929 C23.546406,12.4256164 23.3202155,12.2448308 23.071406,12.2448308 C22.8225964,12.2448308 22.596406,12.4708127 22.596406,12.7193929 L22.596406,12.9453748 L23.591644,12.9453748 L23.591644,12.7193929 L23.546406,12.7193929 Z" id="Fill-87" fill="#FFFFFF" mask="url(#mask-6)"></path>
                    <path d="M23.546406,12.7193929 C23.546406,12.4256164 23.3202155,12.2448308 23.071406,12.2448308 C22.8225964,12.2448308 22.596406,12.4708127 22.596406,12.7193929 L22.596406,12.9453748 L23.591644,12.9453748 L23.591644,12.7193929 L23.546406,12.7193929 Z" id="Fill-88" fill="#FFFFFF" mask="url(#mask-6)"></path>
                    <path d="M22.5285488,36.2215135 C22.5285488,36.51529 22.7547393,36.6960755 23.0035488,36.6960755 C23.2523583,36.6960755 23.4785488,36.4700936 23.4785488,36.2215135 L23.4785488,35.9955315 L22.4833107,35.9955315 L22.4833107,36.2215135 L22.5285488,36.2215135 Z" id="Fill-89" fill="#FFFFFF" mask="url(#mask-6)"></path>
                    <path d="M22.5285488,36.2215135 C22.5285488,36.51529 22.7547393,36.6960755 23.0035488,36.6960755 C23.2523583,36.6960755 23.4785488,36.4700936 23.4785488,36.2215135 L23.4785488,35.9955315 L22.4833107,35.9955315 L22.4833107,36.2215135 L22.5285488,36.2215135 Z" id="Fill-90" fill="#FFFFFF" mask="url(#mask-6)"></path>
                    <polygon id="Fill-91" fill="#FFFFFF" mask="url(#mask-6)" points="28.477381 23.9732929 29.4723929 23.9732929 29.4723929 18.9790923 28.477381 18.9790923"></polygon>
                    <polygon id="Fill-92" fill="#FFFFFF" mask="url(#mask-6)" points="28.477381 35.9955315 29.4723929 35.9955315 29.4723929 30.9561345 28.477381 30.9561345"></polygon>
                    <polygon id="Fill-93" fill="#FFFFFF" mask="url(#mask-6)" points="28.477381 29.961814 29.4723929 29.961814 29.4723929 24.9676134 28.477381 24.9676134"></polygon>
                    <polygon id="Fill-94" fill="#FFFFFF" mask="url(#mask-6)" points="28.477381 18.0525664 29.4723929 18.0525664 29.4723929 12.9453748 28.477381 12.9453748"></polygon>
                    <path d="M29.4725286,12.7193929 C29.4725286,12.4256164 29.2463381,12.2448308 28.9975286,12.2448308 C28.7713381,12.2448308 28.5225286,12.4708127 28.5225286,12.7193929 L28.5225286,12.9453748 L29.5177667,12.9453748 L29.5177667,12.7193929 L29.4725286,12.7193929 Z" id="Fill-95" fill="#FFFFFF" mask="url(#mask-6)"></path>
                    <path d="M29.4725286,12.7193929 C29.4725286,12.4256164 29.2463381,12.2448308 28.9975286,12.2448308 C28.7713381,12.2448308 28.5225286,12.4708127 28.5225286,12.7193929 L28.5225286,12.9453748 L29.5177667,12.9453748 L29.5177667,12.7193929 L29.4725286,12.7193929 Z" id="Fill-96" fill="#FFFFFF" mask="url(#mask-6)"></path>
                    <path d="M28.4774262,36.2215135 C28.4774262,36.51529 28.7036167,36.6960755 28.9524262,36.6960755 C29.1786167,36.6960755 29.4274262,36.4700936 29.4274262,36.2215135 L29.4274262,35.9955315 L28.4774262,35.9955315 L28.4774262,36.2215135 Z" id="Fill-97" fill="#FFFFFF" mask="url(#mask-6)"></path>
                    <path d="M28.4774262,36.2215135 C28.4774262,36.51529 28.7036167,36.6960755 28.9524262,36.6960755 C29.1786167,36.6960755 29.4274262,36.4700936 29.4274262,36.2215135 L29.4274262,35.9955315 L28.4774262,35.9955315 L28.4774262,36.2215135 Z" id="Fill-98" fill="#FFFFFF" mask="url(#mask-6)"></path>
                    <polygon id="Fill-99" fill="#FFFFFF" mask="url(#mask-6)" points="34.4035714 18.0525664 35.3985833 18.0525664 35.3985833 12.9453748 34.4035714 12.9453748"></polygon>
                    <polygon id="Fill-100" fill="#FFFFFF" mask="url(#mask-6)" points="34.4035714 29.961814 35.3985833 29.961814 35.3985833 24.9676134 34.4035714 24.9676134"></polygon>
                    <polygon id="Fill-101" fill="#FFFFFF" mask="url(#mask-6)" points="34.4035714 23.9732929 35.3985833 23.9732929 35.3985833 18.9790923 34.4035714 18.9790923"></polygon>
                    <polygon id="Fill-102" fill="#FFFFFF" mask="url(#mask-6)" points="34.4035714 35.9955315 35.3985833 35.9955315 35.3985833 30.9561345 34.4035714 30.9561345"></polygon>
                    <path d="M35.3987643,12.7193929 C35.3987643,12.4256164 35.1725738,12.2448308 34.9237643,12.2448308 C34.6975738,12.2448308 34.4487643,12.4708127 34.4487643,12.7193929 L34.4487643,12.9453748 L35.4440024,12.9453748 L35.4440024,12.7193929 L35.3987643,12.7193929 Z" id="Fill-103" fill="#FFFFFF" mask="url(#mask-6)"></path>
                    <path d="M35.3987643,12.7193929 C35.3987643,12.4256164 35.1725738,12.2448308 34.9237643,12.2448308 C34.6975738,12.2448308 34.4487643,12.4708127 34.4487643,12.7193929 L34.4487643,12.9453748 L35.4440024,12.9453748 L35.4440024,12.7193929 L35.3987643,12.7193929 Z" id="Fill-104" fill="#FFFFFF" mask="url(#mask-6)"></path>
                    <path d="M34.4036619,36.2215135 C34.4036619,36.51529 34.6298524,36.6960755 34.8786619,36.6960755 C35.1048524,36.6960755 35.3534357,36.4700936 35.3534357,36.2215135 L35.3534357,35.9955315 L34.3584238,35.9955315 L34.3584238,36.2215135 L34.4036619,36.2215135 Z" id="Fill-105" fill="#FFFFFF" mask="url(#mask-6)"></path>
                    <path d="M34.4036619,36.2215135 C34.4036619,36.51529 34.6298524,36.6960755 34.8786619,36.6960755 C35.1048524,36.6960755 35.3534357,36.4700936 35.3534357,36.2215135 L35.3534357,35.9955315 L34.3584238,35.9955315 L34.3584238,36.2215135 L34.4036619,36.2215135 Z" id="Fill-106" fill="#FFFFFF" mask="url(#mask-6)"></path>
                    <polygon id="Fill-107" fill="#FFFFFF" mask="url(#mask-6)" points="40.2619048 35.9955315 41.2571429 35.9955315 41.2571429 30.9561345 40.2619048 30.9561345"></polygon>
                    <polygon id="Fill-108" fill="#FFFFFF" mask="url(#mask-6)" points="40.2619048 29.961814 41.2571429 29.961814 41.2571429 24.9676134 40.2619048 24.9676134"></polygon>
                    <polygon id="Fill-109" fill="#FFFFFF" mask="url(#mask-6)" points="40.2619048 18.0525664 41.2571429 18.0525664 41.2571429 12.9453748 40.2619048 12.9453748"></polygon>
                    <polygon id="Fill-110" fill="#FFFFFF" mask="url(#mask-6)" points="40.2619048 23.9732929 41.2571429 23.9732929 41.2571429 18.9790923 40.2619048 18.9790923"></polygon>
                    <path d="M40.2618595,36.2215135 C40.2618595,36.51529 40.48805,36.6960755 40.7370857,36.6960755 C41.0309071,36.6960755 41.2118595,36.4700936 41.2118595,36.2215135 L41.2118595,35.9955315 L40.2166214,35.9955315 L40.2166214,36.2215135 L40.2618595,36.2215135 Z" id="Fill-111" fill="#FFFFFF" mask="url(#mask-6)"></path>
                    <path d="M40.2618595,36.2215135 C40.2618595,36.51529 40.48805,36.6960755 40.7370857,36.6960755 C41.0309071,36.6960755 41.2118595,36.4700936 41.2118595,36.2215135 L41.2118595,35.9955315 L40.2166214,35.9955315 L40.2166214,36.2215135 L40.2618595,36.2215135 Z" id="Fill-112" fill="#FFFFFF" mask="url(#mask-6)"></path>
                    <path d="M41.2571881,12.7193929 C41.2571881,12.4256164 41.0309976,12.2448308 40.7819619,12.2448308 C40.4881405,12.2448308 40.3071881,12.4708127 40.3071881,12.7193929 L40.3071881,12.9453748 L41.3024262,12.9453748 L41.3024262,12.7193929 L41.2571881,12.7193929 Z" id="Fill-113" fill="#FFFFFF" mask="url(#mask-6)"></path>
                    <path d="M41.2571881,12.7193929 C41.2571881,12.4256164 41.0309976,12.2448308 40.7819619,12.2448308 C40.4881405,12.2448308 40.3071881,12.4708127 40.3071881,12.7193929 L40.3071881,12.9453748 L41.3024262,12.9453748 L41.3024262,12.7193929 L41.2571881,12.7193929 Z" id="Fill-114" fill="#FFFFFF" mask="url(#mask-6)"></path>
                    <polygon id="Fill-115" fill="#FFFFFF" mask="url(#mask-6)" points="17.6654762 18.9790923 22.5964286 18.9790923 22.5964286 17.9847718 17.6654762 17.9847718"></polygon>
                    <polygon id="Fill-116" fill="#FFFFFF" mask="url(#mask-6)" points="29.472619 18.9790923 34.4037976 18.9790923 34.4037976 17.9847718 29.472619 17.9847718"></polygon>
                    <polygon id="Fill-117" fill="#FFFFFF" mask="url(#mask-6)" points="11.7392857 18.9790923 16.6702381 18.9790923 16.6702381 17.9847718 11.7392857 17.9847718"></polygon>
                    <polygon id="Fill-118" fill="#FFFFFF" mask="url(#mask-6)" points="35.3988095 18.9790923 40.3297619 18.9790923 40.3297619 17.9847718 35.3988095 17.9847718"></polygon>
                    <polygon id="Fill-119" fill="#FFFFFF" mask="url(#mask-6)" points="41.2571429 18.9790923 46.1202381 18.9790923 46.1202381 17.9847718 41.2571429 17.9847718"></polygon>
                    <polygon id="Fill-120" fill="#FFFFFF" mask="url(#mask-6)" points="5.85833333 18.9790923 10.7214286 18.9790923 10.7214286 17.9847718 5.85833333 17.9847718"></polygon>
                    <polygon id="Fill-121" fill="#FFFFFF" mask="url(#mask-6)" points="23.5464286 18.9790923 28.477381 18.9790923 28.477381 17.9847718 23.5464286 17.9847718"></polygon>
                    <path d="M46.5499095,18.9791375 C46.8441833,18.9791375 47.0251357,18.7531556 47.0251357,18.5045754 C47.0251357,18.2107989 46.7989452,18.0300134 46.5499095,18.0300134 L46.1427667,18.0300134 L46.1427667,19.0243339 L46.5499095,19.0243339 L46.5499095,18.9791375 Z" id="Fill-122" fill="#FFFFFF" mask="url(#mask-6)"></path>
                    <path d="M46.5499095,18.9791375 C46.8441833,18.9791375 47.0251357,18.7531556 47.0251357,18.5045754 C47.0251357,18.2107989 46.7989452,18.0300134 46.5499095,18.0300134 L46.1427667,18.0300134 L46.1427667,19.0243339 L46.5499095,19.0243339 L46.5499095,18.9791375 Z" id="Fill-123" fill="#FFFFFF" mask="url(#mask-6)"></path>
                    <path d="M5.51909286,17.9847266 C5.22504524,17.9847266 5.04409286,18.2107085 5.04409286,18.4592887 C5.04409286,18.7530652 5.27028333,18.9338507 5.51909286,18.9338507 L5.92623571,18.9338507 L5.92623571,17.9395302 L5.51909286,17.9395302 L5.51909286,17.9847266 Z" id="Fill-124" fill="#FFFFFF" mask="url(#mask-6)"></path>
                    <path d="M5.51909286,17.9847266 C5.22504524,17.9847266 5.04409286,18.2107085 5.04409286,18.4592887 C5.04409286,18.7530652 5.27028333,18.9338507 5.51909286,18.9338507 L5.92623571,18.9338507 L5.92623571,17.9395302 L5.51909286,17.9395302 L5.51909286,17.9847266 Z" id="Fill-125" fill="#FFFFFF" mask="url(#mask-6)"></path>
                    <polygon id="Fill-126" fill="#FFFFFF" mask="url(#mask-6)" points="10.7440476 18.9790923 11.7392857 18.9790923 11.7392857 17.9847718 10.7440476 17.9847718"></polygon>
                    <polygon id="Fill-127" fill="#FFFFFF" mask="url(#mask-6)" points="10.7440476 18.9790923 11.7392857 18.9790923 11.7392857 17.9847718 10.7440476 17.9847718"></polygon>
                    <polygon id="Fill-128" fill="#FFFFFF" mask="url(#mask-6)" points="16.6702381 18.9790923 17.6654762 18.9790923 17.6654762 17.9847718 16.6702381 17.9847718"></polygon>
                    <polygon id="Fill-129" fill="#FFFFFF" mask="url(#mask-6)" points="16.6702381 18.9790923 17.6654762 18.9790923 17.6654762 17.9847718 16.6702381 17.9847718"></polygon>
                    <polygon id="Fill-130" fill="#FFFFFF" mask="url(#mask-6)" points="22.5285714 18.9790923 23.5238095 18.9790923 23.5238095 17.9847718 22.5285714 17.9847718"></polygon>
                    <polygon id="Fill-131" fill="#FFFFFF" mask="url(#mask-6)" points="22.5285714 18.9790923 23.5238095 18.9790923 23.5238095 17.9847718 22.5285714 17.9847718"></polygon>
                    <polygon id="Fill-132" fill="#FFFFFF" mask="url(#mask-6)" points="28.477381 18.9790923 29.4723929 18.9790923 29.4723929 17.9847718 28.477381 17.9847718"></polygon>
                    <polygon id="Fill-133" fill="#FFFFFF" mask="url(#mask-6)" points="28.477381 18.9790923 29.4723929 18.9790923 29.4723929 17.9847718 28.477381 17.9847718"></polygon>
                    <polygon id="Fill-134" fill="#FFFFFF" mask="url(#mask-6)" points="34.4035714 18.9790923 35.3985833 18.9790923 35.3985833 17.9847718 34.4035714 17.9847718"></polygon>
                    <polygon id="Fill-135" fill="#FFFFFF" mask="url(#mask-6)" points="34.4035714 18.9790923 35.3985833 18.9790923 35.3985833 17.9847718 34.4035714 17.9847718"></polygon>
                    <polygon id="Fill-136" fill="#FFFFFF" mask="url(#mask-6)" points="40.2619048 18.9790923 41.2571429 18.9790923 41.2571429 17.9847718 40.2619048 17.9847718"></polygon>
                    <polygon id="Fill-137" fill="#FFFFFF" mask="url(#mask-6)" points="40.2619048 18.9790923 41.2571429 18.9790923 41.2571429 17.9847718 40.2619048 17.9847718"></polygon>
                    <polygon id="Fill-138" fill="#FFFFFF" mask="url(#mask-6)" points="35.3988095 24.9676134 40.3297619 24.9676134 40.3297619 23.9732929 35.3988095 23.9732929"></polygon>
                    <polygon id="Fill-139" fill="#FFFFFF" mask="url(#mask-6)" points="11.7392857 24.9676134 16.6702381 24.9676134 16.6702381 23.9732929 11.7392857 23.9732929"></polygon>
                    <polygon id="Fill-140" fill="#FFFFFF" mask="url(#mask-6)" points="17.6654762 24.9676134 22.5964286 24.9676134 22.5964286 23.9732929 17.6654762 23.9732929"></polygon>
                    <polygon id="Fill-141" fill="#FFFFFF" mask="url(#mask-6)" points="23.5464286 24.9676134 28.477381 24.9676134 28.477381 23.9732929 23.5464286 23.9732929"></polygon>
                    <polygon id="Fill-142" fill="#FFFFFF" mask="url(#mask-6)" points="5.85833333 24.9676134 10.7214286 24.9676134 10.7214286 23.9732929 5.85833333 23.9732929"></polygon>
                    <polygon id="Fill-143" fill="#FFFFFF" mask="url(#mask-6)" points="41.2571429 24.9676134 46.1202381 24.9676134 46.1202381 23.9732929 41.2571429 23.9732929"></polygon>
                    <polygon id="Fill-144" fill="#FFFFFF" mask="url(#mask-6)" points="29.472619 24.9676134 34.4037976 24.9676134 34.4037976 23.9732929 29.472619 23.9732929"></polygon>
                    <path d="M46.5499095,24.9676586 C46.8441833,24.9676586 47.0251357,24.7416767 47.0251357,24.4928706 C47.0251357,24.2668886 46.7989452,24.0185345 46.5499095,24.0185345 L46.1427667,24.0185345 L46.1427667,25.012855 L46.5499095,25.012855 L46.5499095,24.9676586 Z" id="Fill-145" fill="#FFFFFF" mask="url(#mask-6)"></path>
                    <path d="M46.5499095,24.9676586 C46.8441833,24.9676586 47.0251357,24.7416767 47.0251357,24.4928706 C47.0251357,24.2668886 46.7989452,24.0185345 46.5499095,24.0185345 L46.1427667,24.0185345 L46.1427667,25.012855 L46.5499095,25.012855 L46.5499095,24.9676586 Z" id="Fill-146" fill="#FFFFFF" mask="url(#mask-6)"></path>
                    <path d="M5.51909286,23.9732477 C5.22504524,23.9732477 5.04409286,24.1992297 5.04409286,24.4480358 C5.04409286,24.6963899 5.27028333,24.9223718 5.51909286,24.9223718 L5.92623571,24.9223718 L5.92623571,23.9054531 L5.51909286,23.9054531 L5.51909286,23.9732477 Z" id="Fill-147" fill="#FFFFFF" mask="url(#mask-6)"></path>
                    <path d="M5.51909286,23.9732477 C5.22504524,23.9732477 5.04409286,24.1992297 5.04409286,24.4480358 C5.04409286,24.6963899 5.27028333,24.9223718 5.51909286,24.9223718 L5.92623571,24.9223718 L5.92623571,23.9054531 L5.51909286,23.9054531 L5.51909286,23.9732477 Z" id="Fill-148" fill="#FFFFFF" mask="url(#mask-6)"></path>
                    <polygon id="Fill-149" fill="#FFFFFF" mask="url(#mask-6)" points="10.7440476 24.9676134 11.7392857 24.9676134 11.7392857 23.9732929 10.7440476 23.9732929"></polygon>
                    <polygon id="Fill-150" fill="#FFFFFF" mask="url(#mask-6)" points="10.7440476 24.9676134 11.7392857 24.9676134 11.7392857 23.9732929 10.7440476 23.9732929"></polygon>
                    <polygon id="Fill-151" fill="#FFFFFF" mask="url(#mask-6)" points="16.6702381 24.9676134 17.6654762 24.9676134 17.6654762 23.9732929 16.6702381 23.9732929"></polygon>
                    <polygon id="Fill-152" fill="#FFFFFF" mask="url(#mask-6)" points="16.6702381 24.9676134 17.6654762 24.9676134 17.6654762 23.9732929 16.6702381 23.9732929"></polygon>
                    <polygon id="Fill-153" fill="#FFFFFF" mask="url(#mask-6)" points="22.5285714 24.9676134 23.5238095 24.9676134 23.5238095 23.9732929 22.5285714 23.9732929"></polygon>
                    <polygon id="Fill-154" fill="#FFFFFF" mask="url(#mask-6)" points="22.5285714 24.9676134 23.5238095 24.9676134 23.5238095 23.9732929 22.5285714 23.9732929"></polygon>
                    <polygon id="Fill-155" fill="#FFFFFF" mask="url(#mask-6)" points="28.477381 24.9676134 29.4723929 24.9676134 29.4723929 23.9732929 28.477381 23.9732929"></polygon>
                    <polygon id="Fill-156" fill="#FFFFFF" mask="url(#mask-6)" points="28.477381 24.9676134 29.4723929 24.9676134 29.4723929 23.9732929 28.477381 23.9732929"></polygon>
                    <polygon id="Fill-157" fill="#FFFFFF" mask="url(#mask-6)" points="34.4035714 24.9676134 35.3985833 24.9676134 35.3985833 23.9732929 34.4035714 23.9732929"></polygon>
                    <polygon id="Fill-158" fill="#FFFFFF" mask="url(#mask-6)" points="34.4035714 24.9676134 35.3985833 24.9676134 35.3985833 23.9732929 34.4035714 23.9732929"></polygon>
                    <polygon id="Fill-159" fill="#FFFFFF" mask="url(#mask-6)" points="40.2619048 24.9676134 41.2571429 24.9676134 41.2571429 23.9732929 40.2619048 23.9732929"></polygon>
                    <polygon id="Fill-160" fill="#FFFFFF" mask="url(#mask-6)" points="40.2619048 24.9676134 41.2571429 24.9676134 41.2571429 23.9732929 40.2619048 23.9732929"></polygon>
                    <polygon id="Fill-161" fill="#FFFFFF" mask="url(#mask-6)" points="5.85833333 30.9561345 10.7214286 30.9561345 10.7214286 29.961814 5.85833333 29.961814"></polygon>
                    <polygon id="Fill-162" fill="#FFFFFF" mask="url(#mask-6)" points="23.5464286 30.9561345 28.477381 30.9561345 28.477381 29.961814 23.5464286 29.961814"></polygon>
                    <polygon id="Fill-163" fill="#FFFFFF" mask="url(#mask-6)" points="11.7392857 30.9561345 16.6702381 30.9561345 16.6702381 29.961814 11.7392857 29.961814"></polygon>
                    <polygon id="Fill-164" fill="#FFFFFF" mask="url(#mask-6)" points="35.3988095 30.9561345 40.3297619 30.9561345 40.3297619 29.961814 35.3988095 29.961814"></polygon>
                    <polygon id="Fill-165" fill="#FFFFFF" mask="url(#mask-6)" points="29.472619 30.9561345 34.4037976 30.9561345 34.4037976 29.961814 29.472619 29.961814"></polygon>
                    <polygon id="Fill-166" fill="#FFFFFF" mask="url(#mask-6)" points="17.6654762 30.9561345 22.5964286 30.9561345 22.5964286 29.961814 17.6654762 29.961814"></polygon>
                    <polygon id="Fill-167" fill="#FFFFFF" mask="url(#mask-6)" points="41.2571429 30.9561345 46.1202381 30.9561345 46.1202381 29.961814 41.2571429 29.961814"></polygon>
                    <path d="M47.0250452,30.4814821 C47.0250452,30.1877056 46.7988548,30.00692 46.549819,30.00692 L46.1429024,30.00692 L46.1429024,31.0014665 L46.549819,31.0014665 C46.7760095,30.9562701 47.0250452,30.707464 47.0250452,30.4814821" id="Fill-168" fill="#FFFFFF" mask="url(#mask-6)"></path>
                    <path d="M47.0250452,30.4814821 C47.0250452,30.1877056 46.7988548,30.00692 46.549819,30.00692 L46.1429024,30.00692 L46.1429024,31.0014665 L46.549819,31.0014665 C46.7760095,30.9562701 47.0250452,30.707464 47.0250452,30.4814821" id="Fill-169" fill="#FFFFFF" mask="url(#mask-6)"></path>
                    <path d="M5.51909286,29.9617688 C5.22504524,29.9617688 5.04409286,30.1877508 5.04409286,30.4365569 C5.04409286,30.7301074 5.27028333,30.9108929 5.51909286,30.9108929 L5.92623571,30.9108929 L5.92623571,29.9165725 L5.51909286,29.9165725 L5.51909286,29.9617688 Z" id="Fill-170" fill="#FFFFFF" mask="url(#mask-6)"></path>
                    <path d="M5.51909286,29.9617688 C5.22504524,29.9617688 5.04409286,30.1877508 5.04409286,30.4365569 C5.04409286,30.7301074 5.27028333,30.9108929 5.51909286,30.9108929 L5.92623571,30.9108929 L5.92623571,29.9165725 L5.51909286,29.9165725 L5.51909286,29.9617688 Z" id="Fill-171" fill="#FFFFFF" mask="url(#mask-6)"></path>
                    <polygon id="Fill-172" fill="#FFFFFF" mask="url(#mask-6)" points="10.7440476 30.9561345 11.7392857 30.9561345 11.7392857 29.961814 10.7440476 29.961814"></polygon>
                    <polygon id="Fill-173" fill="#FFFFFF" mask="url(#mask-6)" points="10.7440476 30.9561345 11.7392857 30.9561345 11.7392857 29.961814 10.7440476 29.961814"></polygon>
                    <polygon id="Fill-174" fill="#FFFFFF" mask="url(#mask-6)" points="16.6702381 30.9561345 17.6654762 30.9561345 17.6654762 29.961814 16.6702381 29.961814"></polygon>
                    <polygon id="Fill-175" fill="#FFFFFF" mask="url(#mask-6)" points="16.6702381 30.9561345 17.6654762 30.9561345 17.6654762 29.961814 16.6702381 29.961814"></polygon>
                    <polygon id="Fill-176" fill="#FFFFFF" mask="url(#mask-6)" points="22.5285714 30.9561345 23.5238095 30.9561345 23.5238095 29.961814 22.5285714 29.961814"></polygon>
                    <polygon id="Fill-177" fill="#FFFFFF" mask="url(#mask-6)" points="22.5285714 30.9561345 23.5238095 30.9561345 23.5238095 29.961814 22.5285714 29.961814"></polygon>
                    <polygon id="Fill-178" fill="#FFFFFF" mask="url(#mask-6)" points="28.477381 30.9561345 29.4723929 30.9561345 29.4723929 29.961814 28.477381 29.961814"></polygon>
                    <polygon id="Fill-179" fill="#FFFFFF" mask="url(#mask-6)" points="28.477381 30.9561345 29.4723929 30.9561345 29.4723929 29.961814 28.477381 29.961814"></polygon>
                    <polygon id="Fill-180" fill="#FFFFFF" mask="url(#mask-6)" points="34.4035714 30.9561345 35.3985833 30.9561345 35.3985833 29.961814 34.4035714 29.961814"></polygon>
                    <polygon id="Fill-181" fill="#FFFFFF" mask="url(#mask-6)" points="34.4035714 30.9561345 35.3985833 30.9561345 35.3985833 29.961814 34.4035714 29.961814"></polygon>
                    <polygon id="Fill-182" fill="#FFFFFF" mask="url(#mask-6)" points="40.2619048 30.9561345 41.2571429 30.9561345 41.2571429 29.961814 40.2619048 29.961814"></polygon>
                    <polygon id="Fill-183" fill="#FFFFFF" mask="url(#mask-6)" points="40.2619048 30.9561345 41.2571429 30.9561345 41.2571429 29.961814 40.2619048 29.961814"></polygon>
                    <path d="M44.2654762,38.9785382 C43.5642857,39.6790822 42.5690476,40.0856237 41.5738095,40.0856237 C42.4559524,40.0856237 43.1571429,39.3175111 43.1571429,38.4361816 L43.1571429,34.7300779 C43.1571429,33.6227665 44.0392857,32.6736424 45.2154762,32.6736424 L48.2011905,32.6736424 C49.4904762,32.6736424 50.5535714,31.6113013 50.5535714,30.3912249 C50.5535714,31.8601074 49.9654762,33.2611954 48.902381,34.3230845 L44.2654762,38.9785382 Z" id="Fill-184" fill="#7D9DC4" mask="url(#mask-6)"></path>
                    <path d="M6.71720119,7.83474828 C6.46929643,7.83474828 6.25034405,7.65577059 6.20827262,7.40334877 C6.161225,7.12222725 6.351225,6.85602054 6.63283214,6.80924228 C6.77374881,6.78574016 6.902225,6.60834435 6.902225,6.43705005 L6.902225,1.69142954 C6.902225,1.44465727 6.71607024,1.25867415 6.46907024,1.25867415 C6.22207024,1.25867415 6.03591548,1.44465727 6.03591548,1.69142954 C6.03591548,1.97661874 5.80452262,2.20779825 5.51907024,2.20779825 C5.23361786,2.20779825 5.002225,1.97661874 5.002225,1.69142954 C5.002225,0.869759248 5.64664167,0.226162714 6.46907024,0.226162714 C7.29149881,0.226162714 7.93591548,0.869759248 7.93591548,1.69142954 L7.93591548,6.43705005 C7.93591548,7.11092816 7.43829643,7.72175731 6.80292738,7.82774284 C6.773975,7.83248846 6.745475,7.83474828 6.71720119,7.83474828" id="Fill-185" fill="#038ADA" mask="url(#mask-6)"></path>
                    <path d="M11.4672012,7.83474828 C11.2192964,7.83474828 11.000344,7.65577059 10.9582726,7.40334877 C10.911225,7.12222725 11.101225,6.85602054 11.3828321,6.80924228 C11.5237488,6.78574016 11.652225,6.60834435 11.652225,6.43705005 L11.652225,1.69142954 C11.652225,1.44465727 11.4660702,1.25867415 11.2190702,1.25867415 C10.9720702,1.25867415 10.7859155,1.44465727 10.7859155,1.69142954 C10.7859155,1.97661874 10.5545226,2.20779825 10.2690702,2.20779825 C9.98361786,2.20779825 9.752225,1.97661874 9.752225,1.69142954 C9.752225,0.869759248 10.3966417,0.226162714 11.2190702,0.226162714 C12.0414988,0.226162714 12.6859155,0.869759248 12.6859155,1.69142954 L12.6859155,6.43705005 C12.6859155,7.11092816 12.1882964,7.72175731 11.5529274,7.82774284 C11.523975,7.83248846 11.495475,7.83474828 11.4672012,7.83474828" id="Fill-186" fill="#038ADA" mask="url(#mask-6)"></path>
                    <path d="M16.3302964,7.83474828 C16.0823917,7.83474828 15.8634393,7.65577059 15.8213679,7.40334877 C15.7743202,7.12222725 15.9643202,6.85602054 16.2459274,6.80924228 C16.386844,6.78574016 16.5153202,6.60834435 16.5153202,6.43705005 L16.5153202,1.69142954 C16.5153202,1.44465727 16.3291655,1.25867415 16.0821655,1.25867415 C15.8351655,1.25867415 15.6490107,1.44465727 15.6490107,1.69142954 C15.6490107,1.97661874 15.4176179,2.20779825 15.1321655,2.20779825 C14.8467131,2.20779825 14.6153202,1.97661874 14.6153202,1.69142954 C14.6153202,0.869759248 15.2597369,0.226162714 16.0821655,0.226162714 C16.904594,0.226162714 17.5490107,0.869759248 17.5490107,1.69142954 L17.5490107,6.43705005 C17.5490107,7.11092816 17.0513917,7.72175731 16.4160226,7.82774284 C16.3870702,7.83248846 16.3585702,7.83474828 16.3302964,7.83474828" id="Fill-187" fill="#038ADA" mask="url(#mask-6)"></path>
                    <path d="M21.1481083,7.83474828 C20.9002036,7.83474828 20.6812512,7.65577059 20.6391798,7.40334877 C20.5921321,7.12222725 20.7821321,6.85602054 21.0637393,6.80924228 C21.204656,6.78574016 21.3331321,6.60834435 21.3331321,6.43705005 L21.3331321,1.69142954 C21.3331321,1.44465727 21.1469774,1.25867415 20.8999774,1.25867415 C20.6529774,1.25867415 20.4668226,1.44465727 20.4668226,1.69142954 C20.4668226,1.97661874 20.2354298,2.20779825 19.9499774,2.20779825 C19.664525,2.20779825 19.4331321,1.97661874 19.4331321,1.69142954 C19.4331321,0.869759248 20.0775488,0.226162714 20.8999774,0.226162714 C21.7226321,0.226162714 22.3668226,0.869759248 22.3668226,1.69142954 L22.3668226,6.43705005 C22.3668226,7.11092816 21.8692036,7.72175731 21.2338345,7.82774284 C21.2048821,7.83248846 21.1763821,7.83474828 21.1481083,7.83474828" id="Fill-188" fill="#038ADA" mask="url(#mask-6)"></path>
                    <path d="M25.8981083,7.83474828 C25.6502036,7.83474828 25.4312512,7.65577059 25.3891798,7.40334877 C25.3421321,7.12222725 25.5321321,6.85602054 25.8137393,6.80924228 C25.954656,6.78574016 26.0831321,6.60834435 26.0831321,6.43705005 L26.0831321,1.69142954 C26.0831321,1.44465727 25.8969774,1.25867415 25.6499774,1.25867415 C25.4029774,1.25867415 25.2168226,1.44465727 25.2168226,1.69142954 C25.2168226,1.97661874 24.9854298,2.20779825 24.6999774,2.20779825 C24.414525,2.20779825 24.1831321,1.97661874 24.1831321,1.69142954 C24.1831321,0.869759248 24.8275488,0.226162714 25.6499774,0.226162714 C26.4726321,0.226162714 27.1168226,0.869759248 27.1168226,1.69142954 L27.1168226,6.43705005 C27.1168226,7.11092816 26.6192036,7.72175731 25.9838345,7.82774284 C25.9548821,7.83248846 25.9263821,7.83474828 25.8981083,7.83474828" id="Fill-189" fill="#038ADA" mask="url(#mask-6)"></path>
                    <path d="M30.7159202,7.83474828 C30.4677893,7.83474828 30.2490631,7.65577059 30.2069917,7.40334877 C30.159944,7.12222725 30.3501702,6.85602054 30.6315512,6.80924228 C30.772694,6.78574016 30.9011702,6.60834435 30.9011702,6.43705005 L30.9011702,1.69142954 C30.9011702,1.44465727 30.7147893,1.25867415 30.4677893,1.25867415 C30.2210155,1.25867415 30.0344083,1.44465727 30.0344083,1.69142954 C30.0344083,1.97661874 29.8032417,2.20779825 29.5177893,2.20779825 C29.2323369,2.20779825 29.0011702,1.97661874 29.0011702,1.69142954 C29.0011702,0.869759248 29.6453607,0.226162714 30.4677893,0.226162714 C31.290444,0.226162714 31.9346345,0.869759248 31.9346345,1.69142954 L31.9346345,6.43705005 C31.9346345,7.11092816 31.4370155,7.72175731 30.8016464,7.82774284 C30.7729202,7.83248846 30.744194,7.83474828 30.7159202,7.83474828" id="Fill-190" fill="#038ADA" mask="url(#mask-6)"></path>
                    <path d="M35.488675,7.83474828 C35.240544,7.83474828 35.0218179,7.65577059 34.9797464,7.40334877 C34.9326988,7.12222725 35.122925,6.85602054 35.404306,6.80924228 C35.5452226,6.78574016 35.6736988,6.60834435 35.6736988,6.43705005 L35.6736988,1.69142954 C35.6736988,1.44465727 35.4873179,1.25867415 35.2403179,1.25867415 C34.993544,1.25867415 34.8071631,1.44465727 34.8071631,1.69142954 C34.8071631,1.97661874 34.5759964,2.20779825 34.290544,2.20779825 C34.0050917,2.20779825 33.773925,1.97661874 33.773925,1.69142954 C33.773925,0.869759248 34.4181155,0.226162714 35.2403179,0.226162714 C36.0629726,0.226162714 36.7071631,0.869759248 36.7071631,1.69142954 L36.7071631,6.43705005 C36.7071631,7.11092816 36.2097702,7.72175731 35.5744012,7.82774284 C35.545675,7.83248846 35.5169488,7.83474828 35.488675,7.83474828" id="Fill-191" fill="#038ADA" mask="url(#mask-6)"></path>
                    <path d="M40.238675,7.83474828 C39.990544,7.83474828 39.7718179,7.65577059 39.7297464,7.40334877 C39.6826988,7.12222725 39.872925,6.85602054 40.154306,6.80924228 C40.2952226,6.78574016 40.4236988,6.60834435 40.4236988,6.43705005 L40.4236988,1.69142954 C40.4236988,1.44465727 40.2373179,1.25867415 39.9903179,1.25867415 C39.743544,1.25867415 39.5571631,1.44465727 39.5571631,1.69142954 C39.5571631,1.97661874 39.3259964,2.20779825 39.040544,2.20779825 C38.7550917,2.20779825 38.523925,1.97661874 38.523925,1.69142954 C38.523925,0.869759248 39.1681155,0.226162714 39.9903179,0.226162714 C40.8129726,0.226162714 41.4571631,0.869759248 41.4571631,1.69142954 L41.4571631,6.43705005 C41.4571631,7.11092816 40.9597702,7.72175731 40.3244012,7.82774284 C40.295675,7.83248846 40.2669488,7.83474828 40.238675,7.83474828" id="Fill-192" fill="#038ADA" mask="url(#mask-6)"></path>
                    <path d="M45.0564869,7.83474828 C44.808356,7.83474828 44.5896298,7.65577059 44.5475583,7.40334877 C44.5005107,7.12222725 44.6907369,6.85602054 44.9721179,6.80924228 C45.1130345,6.78574016 45.2415107,6.60834435 45.2415107,6.43705005 L45.2415107,1.69142954 C45.2415107,1.44465727 45.055356,1.25867415 44.808356,1.25867415 C44.5615821,1.25867415 44.374975,1.44465727 44.374975,1.69142954 C44.374975,1.97661874 44.1438083,2.20779825 43.858356,2.20779825 C43.5729036,2.20779825 43.3417369,1.97661874 43.3417369,1.69142954 C43.3417369,0.869759248 43.9859274,0.226162714 44.808356,0.226162714 C45.6307845,0.226162714 46.274975,0.869759248 46.274975,1.69142954 L46.274975,6.43705005 C46.274975,7.11092816 45.7775821,7.72175731 45.1422131,7.82774284 C45.1134869,7.83248846 45.0847607,7.83474828 45.0564869,7.83474828" id="Fill-193" fill="#038ADA" mask="url(#mask-6)"></path>
                    <path d="M32.4870143,24.8683395 C32.2886452,24.8683395 32.0923119,24.8841583 31.8993714,24.9162477 C30.7822167,25.1022308 29.8451095,25.8726032 29.5680262,26.8330264 C29.3667167,27.4947015 29.5028833,28.2361482 29.939431,28.8738692 C30.4173714,29.5714754 31.18755,30.0410659 31.9498119,30.0989173 C33.288181,30.202869 34.2827405,29.6476314 34.7554786,28.5319586 C35.1429429,27.6174097 35.1067524,26.500381 34.7290143,25.5302406 C34.0248833,25.0981632 33.2429429,24.8683395 32.4870143,24.8683395 M32.2667048,31.0155 C32.1400381,31.0155 32.0111095,31.0105284 31.879919,31.0001332 C30.8362762,30.9205876 29.8313119,30.3165379 29.1927762,29.3841364 C28.6003833,28.5190776 28.4207881,27.4958314 28.7003595,26.5765369 C29.0704071,25.2947674 30.2968119,24.2667757 31.7505381,24.024749 C32.4349905,23.9106281 33.152919,23.9607961 33.8491333,24.1610161 C33.80005,24.111752 33.7493833,24.0645218 33.6973595,24.0186475 C33.5098476,23.8536807 33.4917524,23.5680395 33.6568714,23.3807005 C33.8219905,23.1935875 34.1074429,23.1752829 34.2954071,23.3402497 C34.7900857,23.7754909 35.1823,24.3232711 35.4593833,24.9273208 C35.4980619,24.9539867 35.5362881,24.9811045 35.5745143,25.0089003 C35.7588595,25.1426816 35.8120143,25.3896799 35.7086452,25.5851542 C36.0393357,26.6714494 36.0212405,27.863956 35.5887643,28.8842644 C35.0088119,30.2530369 33.8102286,31.015274 32.2667048,31.0155" id="Fill-194" fill="#038ADA" mask="url(#mask-6)"></path>
                    <path d="M48.1107143,18.6901518 C48.0057619,18.6901518 47.9008095,18.650379 47.8205119,18.5706074 C47.6590119,18.4106122 47.6581071,18.149829 47.8184762,17.9887039 L54.0613333,11.7061803 C54.3782262,11.3893536 54.5523929,10.9672194 54.5523929,10.5161595 C54.5523929,10.0650995 54.3782262,9.6427393 54.0622381,9.32704254 C53.9014167,9.16614341 53.9014167,8.90581223 54.0622381,8.74491309 C54.2228333,8.58423994 54.483631,8.58423994 54.6449048,8.74491309 C55.1165119,9.21608541 55.3761786,9.84499312 55.3761786,10.5161595 C55.3761786,11.1870998 55.1165119,11.8162335 54.6449048,12.2874058 L48.4029524,18.5685735 C48.3226548,18.6494751 48.2165714,18.6901518 48.1107143,18.6901518" id="Fill-195" fill="#FFC18B" mask="url(#mask-6)"></path>
                    <path d="M52.0690476,9.01331183 L52.0690476,9.01331183 C51.6392857,8.58394616 51.6392857,7.88340219 52.0690476,7.43143833 L54.9190476,4.58406602 C55.3488095,4.15470036 56.05,4.15470036 56.502381,4.58406602 C56.9321429,5.01343169 56.9321429,5.71397567 56.502381,6.16593953 L53.652381,9.01331183 C53.2,9.44267749 52.4988095,9.44267749 52.0690476,9.01331183" id="Fill-196" fill="#FFC18B" mask="url(#mask-6)"></path>
                    <path d="M39.9678571,23.837749 L51.0964286,12.7194381 L48.3595238,9.98505672 L37.2309524,21.1033676 L37.2083333,21.1259658 L39.9678571,23.837749 C39.9452381,23.8603472 39.9678571,23.837749 39.9678571,23.837749" id="Fill-197" fill="#699FEC" mask="url(#mask-6)"></path>
                    <path d="M39.9453286,23.8602568 L37.2081976,21.1258754 C36.8236738,21.5102707 36.2131857,22.8207399 35.7834238,23.8830809 L37.1858048,25.2839429 C38.2489,24.8545772 39.5379595,24.1992297 39.9453286,23.8602568" id="Fill-198" fill="#FFC18B" mask="url(#mask-6)"></path>
                    <path d="M35.7833333,23.8829905 C35.6702381,24.176767 35.2630952,24.7640941 35.172619,25.0129002 C34.9916667,25.5326586 35.5119048,26.0524171 36.0547619,25.8940037 C36.3261905,25.8038369 36.8916667,25.3968435 37.1857143,25.2838525 L35.7833333,23.8829905 Z" id="Fill-199" fill="#E89472" mask="url(#mask-6)"></path>
                    <path d="M54.9417119,8.87770007 C55.6881405,8.13195971 55.2131405,7.38621934 54.4440929,6.64047898 C53.6976643,5.89473861 52.9512357,5.39757837 52.204581,6.14331874 L48.3821881,9.96241333 L51.1190929,12.6967947 L54.9417119,8.87770007 Z" id="Fill-200" fill="#038ADA" mask="url(#mask-6)"></path>
                </g>
            </g>
        </g>
    </g>
</svg>