<?xml version="1.0" encoding="UTF-8"?>
<svg width="88px" height="67px" viewBox="0 0 88 67" version="1.1" xmlns="http://www.w3.org/2000/svg" xmlns:xlink="http://www.w3.org/1999/xlink">
    <!-- Generator: Sketch 49 (51002) - http://www.bohemiancoding.com/sketch -->
    <title>Group 28</title>
    <desc>Created with Sketch.</desc>
    <defs>
        <polygon id="path-1" points="4.93488761e-21 0.00010923913 4.93488761e-21 67 66.9999272 67 66.9999272 0.00010923913 0 0.00010923913"></polygon>
        <polygon id="path-3" points="0.231810526 0.5655 61.5423368 0.5655 61.5423368 42.441384 0.231810526 42.441384 0.231810526 0.5655"></polygon>
        <path d="M3.82163158,3.9295 C6.31052632,1.4355 9.55263158,0.1885 12.7947368,0.1885 C16.0368421,0.1885 19.2789474,1.4355 21.7684211,3.9295 C26.7473684,8.9175 26.7473684,16.9215 21.7684211,21.9095 C16.7894737,26.8975 8.8,26.8975 3.82163158,21.9095 C-1.15789474,16.9215 -1.15789474,8.9175 3.82163158,3.9295 Z" id="path-5"></path>
        <path d="M19.835552,14.803711 C19.5079446,15.0239599 19.1725889,15.2272616 18.8306775,15.413616 L6.75911929,15.413616 C5.70613967,14.8396667 4.71536384,14.1049614 3.82163158,13.2095 C0.341656838,9.72360337 -0.70631465,4.76469076 0.677717115,0.391616 L19.835552,0.391616 L19.835552,14.803711 L19.835552,14.803711 Z" id="path-7"></path>
        <path d="M0.589776752,11.2375 C-0.480301909,7.55183888 0.157691208,3.48658489 2.5037561,0.253558981 L19.9377827,0.253558981 L19.9377827,11.2375 L0.589776752,11.2375 L0.589776752,11.2375 Z" id="path-9"></path>
    </defs>
    <g id="Projeto" stroke="none" stroke-width="1" fill="none" fill-rule="evenodd">
        <g id="summit" transform="translate(-292.000000, -1288.000000)">
            <g id="Group-28" transform="translate(292.000000, 1288.000000)">
                <g id="Page-1" transform="translate(4.000000, 0.000000)">
                    <g id="Group-3">
                        <mask id="mask-2" fill="white">
                            <use xlink:href="#path-1"></use>
                        </mask>
                        <g id="Clip-2"></g>
                        <path d="M66.9999272,33.5001092 C66.9999272,52.0015766 52.0017587,67.0001092 33.4999272,67.0001092 C14.9984598,67.0001092 -7.28260869e-05,52.0015766 -7.28260869e-05,33.5001092 C-7.28260869e-05,14.9982777 14.9984598,0.00010923913 33.4999272,0.00010923913 C52.0017587,0.00010923913 66.9999272,14.9982777 66.9999272,33.5001092" id="Fill-1" fill="#EFEFEF" mask="url(#mask-2)"></path>
                    </g>
                </g>
                <g id="Page-1" transform="translate(0.000000, 8.000000)">
                    <g id="Group-50" transform="translate(0.000000, 0.014500)">
                        <g id="Group-3" transform="translate(7.526316, 0.000000)">
                            <mask id="mask-4" fill="white">
                                <use xlink:href="#path-3"></use>
                            </mask>
                            <g id="Clip-2"></g>
                            <path d="M57.4897053,42.441384 L4.28444211,42.441384 C2.02654737,42.441384 0.231810526,40.643384 0.231810526,38.381384 L0.231810526,4.625384 C0.231810526,2.363384 2.02654737,0.565384 4.28444211,0.565384 L57.4897053,0.565384 C59.7470211,0.565384 61.5423368,2.363384 61.5423368,4.625384 L61.5423368,38.439964 C61.5423368,40.643384 59.6897053,42.441384 57.4897053,42.441384" id="Fill-1" fill="#AABFD7" mask="url(#mask-4)"></path>
                        </g>
                        <path d="M64.6683053,4.8575 L12.1577789,4.8575 C11.4630421,4.8575 10.9419895,5.4375 10.9419895,6.0755 L10.9419895,9.0915 L10.9419895,39.1935 C10.9419895,39.8895 11.5209368,40.4115 12.1577789,40.4115 L64.6683053,40.4115 C65.3630421,40.4115 65.8846737,39.8315 65.8846737,39.1935 L65.8846737,9.1495 L65.8846737,6.1335 C65.8846737,5.4375 65.3630421,4.8575 64.6683053,4.8575" id="Fill-4" fill="#D6DCE5"></path>
                        <path d="M26.2842105,20.111384 L15.1684211,20.111384 C14.2421053,20.111384 13.4894737,19.357384 13.4894737,18.429384 L13.4894737,13.093384 C13.4894737,12.165384 14.2421053,11.411384 15.1684211,11.411384 L26.2842105,11.411384 C27.2105263,11.411384 27.9631579,12.165384 27.9631579,13.093384 L27.9631579,18.429384 C27.9631579,19.357384 27.2105263,20.111384 26.2842105,20.111384" id="Fill-6" fill="#FFFFFF"></path>
                        <path d="M43.0157316,20.111384 L31.8420474,20.111384 C30.9157316,20.111384 30.1631,19.357384 30.1631,18.429384 L30.1631,13.093384 C30.1631,12.165384 30.9157316,11.411384 31.8420474,11.411384 L42.9578368,11.411384 C43.8841526,11.411384 44.6367842,12.165384 44.6367842,13.093384 L44.6367842,18.429384 C44.6946789,19.357384 43.9420474,20.111384 43.0157316,20.111384" id="Fill-8" fill="#FFFFFF"></path>
                        <path d="M59.7472526,20.111384 L48.5735684,20.111384 C47.6478316,20.111384 46.8946211,19.357384 46.8946211,18.429384 L46.8946211,13.093384 C46.8946211,12.165384 47.6478316,11.411384 48.5735684,11.411384 L59.6893579,11.411384 C60.6156737,11.411384 61.3683053,12.165384 61.3683053,13.093384 L61.3683053,18.429384 C61.4262,19.357384 60.6741474,20.111384 59.7472526,20.111384" id="Fill-10" fill="#FFFFFF"></path>
                        <path d="M43.0157316,41.049732 L15.1104684,41.049732 C14.1841526,41.049732 13.4315211,40.295152 13.4315211,39.367732 L13.4315211,23.011152 C13.4315211,22.083732 14.1841526,21.329732 15.1104684,21.329732 L42.9578368,21.329732 C43.8841526,21.329732 44.6367842,22.083732 44.6367842,23.011152 L44.6367842,39.367732 C44.6946789,40.295152 43.9420474,41.049732 43.0157316,41.049732" id="Fill-12" fill="#FFFFFF"></path>
                        <path d="M59.7472526,29.971384 L48.5735684,29.971384 C47.6478316,29.971384 46.8946211,29.217384 46.8946211,28.289964 L46.8946211,22.953384 C46.8946211,22.025384 47.6478316,21.271384 48.5735684,21.271384 L59.6893579,21.271384 C60.6156737,21.271384 61.3683053,22.025384 61.3683053,22.953384 L61.3683053,28.289964 C61.4262,29.217384 60.6741474,29.971384 59.7472526,29.971384" id="Fill-14" fill="#FFFFFF"></path>
                        <path d="M59.7472526,39.889732 L48.5735684,39.889732 C47.6478316,39.889732 46.8946211,39.135152 46.8946211,38.207732 L46.8946211,32.871152 C46.8946211,31.943732 47.6478316,31.189732 48.5735684,31.189732 L59.6893579,31.189732 C60.6156737,31.189732 61.3683053,31.943732 61.3683053,32.871152 L61.3683053,38.207732 C61.4262,39.135152 60.6741474,39.889732 59.7472526,39.889732" id="Fill-16" fill="#FFFFFF"></path>
                        <path d="M65.8844421,6.133616 C65.8844421,5.437616 65.3054947,4.915616 64.6680737,4.915616 L12.1581263,4.915616 C11.4628105,4.915616 10.9423368,5.495616 10.9423368,6.133616 L10.9423368,8.395616 L65.9423368,8.395616 L65.9423368,6.133616 L65.8844421,6.133616 Z" id="Fill-18" fill="#038ADA"></path>
                        <path d="M38.3841526,1.6675 C38.8959421,1.6675 39.3104684,2.08278 39.3104684,2.5955 C39.3104684,3.10822 38.8959421,3.5235 38.3841526,3.5235 C37.8723632,3.5235 37.4578368,3.10822 37.4578368,2.5955 C37.4578368,2.08278 37.8723632,1.6675 38.3841526,1.6675" id="Fill-20" fill="#7D9DC4"></path>
                        <path d="M72.8894737,45.4575 L3.35789474,45.4575 C1.50526316,45.4575 0,43.9495 0,42.0935 C0,40.2375 1.50526316,38.7295 3.35789474,38.7295 L72.8894737,38.7295 C74.7421053,38.7295 76.2473684,40.2375 76.2473684,42.0935 C76.2473684,43.9495 74.7421053,45.4575 72.8894737,45.4575" id="Fill-22" fill="#AABFD7"></path>
                        <path d="M48.1683053,38.671384 L48.1683053,38.671384 C48.1683053,40.237384 46.8946211,41.513384 45.3320421,41.513384 L30.8577789,41.513384 C29.2946211,41.513384 28.0209368,40.237384 28.0209368,38.671384" id="Fill-24" fill="#7D9DC4"></path>
                        <path d="M21.5367263,31.015268 C21.4788316,31.015268 21.4209368,31.015268 21.3630421,30.957268 L16.4419895,28.753848 C16.2683053,28.695268 16.1525158,28.463848 16.2683053,28.289848 C16.3262,28.115268 16.5577789,27.999848 16.7314632,28.115268 L21.6525158,30.319848 C21.8262,30.377268 21.9419895,30.609848 21.8262,30.783848 C21.8262,30.957268 21.7104105,31.015268 21.5367263,31.015268" id="Fill-26" fill="#1CDFC8"></path>
                        <path d="M33.6369579,35.191384 C33.5790632,35.191384 33.4632737,35.133384 33.4053789,35.075384 L28.5422211,30.899964 L22.4632737,27.825384 L16.9632737,34.147384 C16.8474842,34.321384 16.6159053,34.321384 16.4422211,34.205384 C16.2685368,34.089964 16.2685368,33.857384 16.3843263,33.683384 L22.0580105,27.187384 C22.1738,27.071384 22.3474842,27.013384 22.5211684,27.071384 L28.8895895,30.261384 L28.9474842,30.319964 L33.6948526,34.379964 L40.7580105,31.885384 C40.9316947,31.827384 41.1632737,31.943384 41.2211684,32.117384 C41.2790632,32.291384 41.1632737,32.523384 40.9895895,32.581384 L33.7527474,35.191384 C33.6948526,35.133384 33.6948526,35.191384 33.6369579,35.191384" id="Fill-28" fill="#FD3861"></path>
                        <path d="M21.5946789,31.015268 C21.4788895,31.015268 21.3631,30.957268 21.2473105,30.841268 C21.1315211,30.667268 21.1894158,30.435268 21.4209947,30.319848 L27.9631,26.781268 C28.0788895,26.723848 28.1946789,26.723848 28.3104684,26.781268 L33.2315211,29.159848 L40.6999421,25.157268 C40.8736263,25.041268 41.1052053,25.099268 41.2209947,25.331268 C41.3367842,25.505268 41.2788895,25.737268 41.0473105,25.853848 L33.4631,29.971268 C33.3473105,30.029848 33.2315211,30.029848 33.1157316,29.971268 L28.1946789,27.593848 L21.8262579,31.073848 C21.7683632,31.015268 21.7104684,31.015268 21.5946789,31.015268" id="Fill-30" fill="#1CDFC8"></path>
                        <path d="M20.0893579,18.429442 L16.2683053,18.429442 C15.6314632,18.429442 15.1683053,17.907442 15.1683053,17.327442 C15.1683053,16.689442 15.6893579,16.225442 16.2683053,16.225442 L20.0893579,16.225442 C20.7262,16.225442 21.1893579,16.747442 21.1893579,17.327442 C21.1893579,17.907442 20.6683053,18.429442 20.0893579,18.429442" id="Fill-32" fill="#1CDFC8"></path>
                        <path d="M36.8211684,18.429442 L33.0001158,18.429442 C32.3632737,18.429442 31.9001158,17.907442 31.9001158,17.327442 C31.9001158,16.689442 32.4211684,16.225442 33.0001158,16.225442 L36.8211684,16.225442 C37.4580105,16.225442 37.9211684,16.747442 37.9211684,17.327442 C37.9211684,17.907442 37.4001158,18.429442 36.8211684,18.429442" id="Fill-34" fill="#FD3861"></path>
                        <path d="M21.1895895,13.963616 L15.6895895,13.963616 C15.4580105,13.963616 15.3422211,13.789616 15.3422211,13.615616 C15.3422211,13.383616 15.5159053,13.267616 15.6895895,13.267616 L21.1895895,13.267616 C21.4211684,13.267616 21.5369579,13.441616 21.5369579,13.615616 C21.5369579,13.789616 21.3632737,13.963616 21.1895895,13.963616" id="Fill-36" fill="#AABFD7"></path>
                        <path d="M37.7472526,13.963616 L32.2472526,13.963616 C32.0156737,13.963616 31.8998842,13.789616 31.8998842,13.615616 C31.8998842,13.383616 32.0735684,13.267616 32.2472526,13.267616 L37.7472526,13.267616 C37.9788316,13.267616 38.0946211,13.441616 38.0946211,13.615616 C38.1525158,13.789616 37.9788316,13.963616 37.7472526,13.963616" id="Fill-38" fill="#AABFD7"></path>
                        <path d="M54.3631579,13.963616 L48.8631579,13.963616 C48.6315789,13.963616 48.5157895,13.789616 48.5157895,13.615616 C48.5157895,13.383616 48.6894737,13.267616 48.8631579,13.267616 L54.3631579,13.267616 C54.5947368,13.267616 54.7105263,13.441616 54.7105263,13.615616 C54.7105263,13.789616 54.5368421,13.963616 54.3631579,13.963616" id="Fill-40" fill="#AABFD7"></path>
                        <path d="M54.3631579,23.939442 L48.8631579,23.939442 C48.6315789,23.939442 48.5157895,23.765442 48.5157895,23.591442 C48.5157895,23.417442 48.6894737,23.243442 48.8631579,23.243442 L54.3631579,23.243442 C54.5947368,23.243442 54.7105263,23.417442 54.7105263,23.591442 C54.7105263,23.765442 54.5368421,23.939442 54.3631579,23.939442" id="Fill-42" fill="#AABFD7"></path>
                        <path d="M54.3631579,33.5675 L48.8631579,33.5675 C48.6315789,33.5675 48.5157895,33.3935 48.5157895,33.2195 C48.5157895,32.9875 48.6894737,32.8715 48.8631579,32.8715 L54.3631579,32.8715 C54.5947368,32.8715 54.7105263,33.0455 54.7105263,33.2195 C54.7105263,33.3935 54.5368421,33.5675 54.3631579,33.5675" id="Fill-44" fill="#AABFD7"></path>
                        <path d="M45.0423368,15.065558 C38.6739158,21.445558 38.6739158,31.827558 45.0423368,38.207558 C51.4107579,44.587558 61.7733368,44.587558 68.1417579,38.207558 C74.5101789,31.827558 74.5101789,21.445558 68.1417579,15.065558 C61.7733368,8.685558 51.4107579,8.627558 45.0423368,15.065558" id="Fill-46" fill="#235EA1"></path>
                        <path d="M45.5885158,15.583556 C50.5402526,10.622816 58.5679368,10.622816 63.5196737,15.583556 C68.4702526,20.543716 68.4702526,28.585996 63.5196737,33.546736 C58.5679368,38.506896 50.5402526,38.506896 45.5885158,33.546736 C40.6373579,28.585996 40.6373579,20.543716 45.5885158,15.583556" id="Fill-48" fill="#B5CDF5"></path>
                    </g>
                    <g id="Group-60" transform="translate(41.684211, 11.614500)">
                        <g id="Group-53">
                            <mask id="mask-6" fill="white">
                                <use xlink:href="#path-5"></use>
                            </mask>
                            <g id="Clip-52"></g>
                            <path d="M24.5473684,35.075268 L-29.8736842,35.075268 C-30.8,35.075268 -31.5526316,34.321268 -31.5526316,33.393848 L-31.5526316,0.159268 C-31.5526316,-0.768732 -30.8,-1.522732 -29.8736842,-1.522732 L24.5473684,-1.522732 C25.4736842,-1.522732 26.2263158,-0.768732 26.2263158,0.159268 L26.2263158,33.335268 C26.2842105,34.263848 25.5315789,35.075268 24.5473684,35.075268" id="Fill-51" fill="#FFFFFF" mask="url(#mask-6)"></path>
                        </g>
                        <g id="Group-56" transform="translate(0.000000, 8.700000)">
                            <mask id="mask-8" fill="white">
                                <use xlink:href="#path-7"></use>
                            </mask>
                            <g id="Clip-55"></g>
                            <path d="M5.78924211,15.413616 C5.61555789,15.413616 5.49976842,15.355036 5.32608421,15.239616 L-3.6476,7.583616 L-14.9370737,1.957616 L-25.1259684,13.673616 C-25.3581263,13.963616 -25.8212842,13.963616 -26.1107579,13.731616 C-26.4002316,13.499616 -26.4002316,13.035036 -26.1686526,12.745036 L-15.6318105,0.623616 C-15.4002316,0.391616 -15.1107579,0.333616 -14.8212842,0.449616 L-3.01075789,6.365616 C-2.95286316,6.365616 -2.89496842,6.423616 -2.89496842,6.481616 L5.90503158,13.963616 L18.9313474,9.323616 C19.2792947,9.207616 19.6839789,9.381616 19.7997684,9.729616 C19.9155579,10.077616 19.7424526,10.483616 19.3945053,10.599616 L6.02082105,15.355036 C5.96350526,15.413616 5.90503158,15.413616 5.78924211,15.413616" id="Fill-54" fill="#FD3861" mask="url(#mask-8)"></path>
                        </g>
                        <g id="Group-59" transform="translate(0.000000, 5.220000)">
                            <mask id="mask-10" fill="white">
                                <use xlink:href="#path-9"></use>
                            </mask>
                            <g id="Clip-58"></g>
                            <path d="M-16.3843263,11.2375 C-16.6159053,11.2375 -16.8474842,11.1215 -16.9632737,10.8895 C-17.1369579,10.5415 -17.0211684,10.1355 -16.6738,9.9615 L-4.63169474,3.4075 C-4.45801053,3.2915 -4.22643158,3.2915 -3.99485263,3.4075 L5.15251579,7.8155 L18.9314632,0.3335 C19.2794105,0.1595 19.6840947,0.2755 19.8583579,0.6235 C20.0314632,0.9715 19.9156737,1.3775 19.5688842,1.5515 L5.49988421,9.0915 C5.3262,9.2075 5.0952,9.2075 4.86304211,9.0915 L-4.28432632,4.6835 L-16.0948526,11.1795 C-16.2106421,11.2375 -16.2685368,11.2375 -16.3843263,11.2375" id="Fill-57" fill="#1CDFC8" mask="url(#mask-10)"></path>
                        </g>
                    </g>
                    <g id="Group-75" transform="translate(37.631579, 8.134500)">
                        <polygon id="Fill-61" fill="#FFFFFF" points="7.23661053 6.539442 27.2687684 26.607442 32.2471368 21.619442 12.7950842 2.189442"></polygon>
                        <polygon id="Fill-63" fill="#FFFFFF" points="3.18426842 10.599442 23.2158474 30.667442 24.2000579 28.231442 4.74742632 8.743442"></polygon>
                        <path d="M26.8631579,26.433616 C21.8842105,31.421616 13.8947368,31.421616 8.91578947,26.433616 C3.93684211,21.445036 3.93684211,13.441616 8.91578947,8.453616 C13.8947368,3.465616 21.8842105,3.465616 26.8631579,8.453616 C31.8421053,13.441616 31.8421053,21.445036 26.8631579,26.433616 M6.36842105,5.901616 C1.33226763e-15,12.281616 1.33226763e-15,22.663616 6.36842105,29.043616 C12.7368421,35.423616 23.1,35.423616 29.4684211,29.043616 C35.8368421,22.663616 35.8368421,12.281616 29.4684211,5.901616 C23.1,-0.478384 12.7368421,-0.536384 6.36842105,5.901616" id="Fill-65" fill="#235EA1"></path>
                        <path d="M25.8211684,25.389732 C20.8416421,30.377732 12.8527474,30.377732 7.8738,25.389732 C2.89485263,20.401152 2.89485263,12.397732 7.8738,7.409732 C12.8527474,2.421152 20.8416421,2.421152 25.8211684,7.409732 C30.8001158,12.397732 30.8001158,20.401152 25.8211684,25.389732 M5.32643158,4.857732 C-1.04198947,11.237732 -1.04198947,21.619732 5.32643158,27.999732 C11.6948526,34.379732 22.0580105,34.379732 28.4264316,27.999732 C34.7948526,21.619732 34.7948526,11.237732 28.4264316,4.857732 C22.0580105,-1.522268 11.6948526,-1.580268 5.32643158,4.857732" id="Fill-67" fill="#4983BB"></path>
                        <path d="M34.7366105,34.089732 L34.7366105,34.089732 C34.1576632,34.669732 33.1740316,34.669732 32.5950842,34.089732 L29.0629263,30.551152 C28.4839789,29.971152 28.4839789,28.985152 29.0629263,28.405152 C29.6418737,27.825152 30.6260842,27.825152 31.2050316,28.405152 L34.7950842,32.001152 C35.3740316,32.581152 35.3155579,33.509732 34.7366105,34.089732" id="Fill-69" fill="#4983BB"></path>
                        <path d="M48.7472526,48.125268 L48.7472526,48.125268 C47.1840947,49.691268 44.5788316,49.691268 43.0162526,48.125268 L32.3057263,37.395268 C30.7419895,35.829848 30.7419895,33.219848 32.3057263,31.653848 C33.8683053,30.087268 36.4735684,30.087268 38.0367263,31.653848 L48.7472526,42.383848 C50.3104105,43.949848 50.3104105,46.559848 48.7472526,48.125268" id="Fill-71" fill="#235EA1"></path>
                        <path d="M47.8788316,43.833616 L47.8788316,43.833616 C47.2998842,44.413616 46.3735684,44.413616 45.7946211,43.833616 L35.4899368,33.509616 C34.9109895,32.929616 34.9109895,32.001616 35.4899368,31.421616 C36.0688842,30.841616 36.9946211,30.841616 37.5735684,31.421616 L47.8788316,41.745036 C48.4577789,42.267616 48.4577789,43.195036 47.8788316,43.833616" id="Fill-73" fill="#4983BB"></path>
                    </g>
                </g>
            </g>
        </g>
    </g>
</svg>