<?xml version="1.0" encoding="UTF-8"?>
<svg width="67px" height="67px" viewBox="0 0 67 67" version="1.1" xmlns="http://www.w3.org/2000/svg" xmlns:xlink="http://www.w3.org/1999/xlink">
    <!-- Generator: Sketch 49 (51002) - http://www.bohemiancoding.com/sketch -->
    <title>Group 29</title>
    <desc>Created with Sketch.</desc>
    <defs>
        <polygon id="path-1" points="4.93488761e-21 0.00010923913 4.93488761e-21 67 66.9999272 67 66.9999272 0.00010923913 0 0.00010923913"></polygon>
    </defs>
    <g id="Projeto" stroke="none" stroke-width="1" fill="none" fill-rule="evenodd">
        <g id="summit" transform="translate(-686.000000, -1288.000000)">
            <g id="Group-29" transform="translate(686.000000, 1288.000000)">
                <g id="Page-1">
                    <g id="Group-3">
                        <mask id="mask-2" fill="white">
                            <use xlink:href="#path-1"></use>
                        </mask>
                        <g id="Clip-2"></g>
                        <path d="M66.9999272,33.5001092 C66.9999272,52.0015766 52.0017587,67.0001092 33.4999272,67.0001092 C14.9984598,67.0001092 -7.28260869e-05,52.0015766 -7.28260869e-05,33.5001092 C-7.28260869e-05,14.9982777 14.9984598,0.00010923913 33.4999272,0.00010923913 C52.0017587,0.00010923913 66.9999272,14.9982777 66.9999272,33.5001092" id="Fill-1" fill="#EFEFEF" mask="url(#mask-2)"></path>
                    </g>
                </g>
                <g id="contaazul-gestao-e-emissao-de-vendas" transform="translate(2.000000, 0.000000)">
                    <g id="Layer_2_12_" transform="translate(7.670103, 0.000000)" fill-rule="nonzero">
                        <g id="Layer_3_8_">
                            <path d="M24.4484536,30.0275862 C24.5123711,30.5747126 24.0969072,31.0574713 23.5536082,31.1218391 L4.02680412,33.2137931 C3.48350515,33.2781609 3.00412371,32.8597701 2.94020619,32.3126437 L0.127835052,5.63218391 C0.0639175258,5.08505747 0.479381443,4.60229885 1.02268041,4.53793103 L17.257732,2.8 C17.7051546,2.76781609 18.1206186,2.86436782 18.4721649,3.15402299 L20.9649485,5.1816092 C21.5721649,5.69655172 21.9876289,6.4045977 22.0835052,7.2091954 L24.4484536,30.0275862 Z" id="Shape" fill="#D6DCE5"></path>
                            <path d="M3.9628866,8.7862069 L18.5680412,7.2091954 C18.7917526,7.17701149 18.9835052,7.33793103 19.0154639,7.56321839 L19.0154639,7.56321839 C19.0474227,7.78850575 18.8876289,7.9816092 18.6639175,8.0137931 L4.05876289,9.5908046 C3.83505155,9.62298851 3.64329897,9.46206897 3.61134021,9.23678161 L3.61134021,9.23678161 C3.57938144,9.01149425 3.73917526,8.8183908 3.9628866,8.7862069 Z" id="Shape" fill="#FFFFFF"></path>
                            <path d="M4.34639175,12.5517241 L18.9515464,10.9747126 C19.1752577,10.9425287 19.3670103,11.1034483 19.3989691,11.3287356 L19.3989691,11.3287356 C19.4309278,11.554023 19.271134,11.7471264 19.0474227,11.7793103 L4.44226804,13.3563218 C4.2185567,13.3885057 4.02680412,13.2275862 3.99484536,13.0022989 L3.99484536,13.0022989 C3.9628866,12.7770115 4.12268041,12.583908 4.34639175,12.5517241 Z" id="Shape" fill="#FFFFFF"></path>
                            <path d="M4.76185567,16.3494253 L19.3670103,14.7724138 C19.5907216,14.7402299 19.7824742,14.9011494 19.814433,15.1264368 L19.814433,15.1264368 C19.8463918,15.3517241 19.6865979,15.5448276 19.4628866,15.5770115 L4.85773196,17.154023 C4.63402062,17.1862069 4.44226804,17.0252874 4.41030928,16.8 L4.41030928,16.8 C4.37835052,16.5425287 4.53814433,16.3494253 4.76185567,16.3494253 Z" id="Shape" fill="#FFFFFF"></path>
                            <path d="M5.14536082,20.1149425 L19.7505155,18.537931 C19.9742268,18.5057471 20.1659794,18.6666667 20.1979381,18.891954 L20.1979381,18.891954 C20.2298969,19.1172414 20.0701031,19.3103448 19.8463918,19.3425287 L5.24123711,20.9195402 C5.01752577,20.9517241 4.8257732,20.7908046 4.79381443,20.5655172 L4.79381443,20.5655172 C4.76185567,20.308046 4.92164948,20.1149425 5.14536082,20.1149425 Z" id="Shape" fill="#FFFFFF"></path>
                            <path d="M5.56082474,23.8804598 L20.1659794,22.3034483 C20.3896907,22.2712644 20.5814433,22.4321839 20.6134021,22.6574713 L20.6134021,22.6574713 C20.6453608,22.8827586 20.485567,23.0758621 20.2618557,23.108046 L5.65670103,24.6850575 C5.43298969,24.7172414 5.24123711,24.5563218 5.20927835,24.3310345 L5.20927835,24.3310345 C5.17731959,24.0735632 5.3371134,23.8804598 5.56082474,23.8804598 Z" id="Shape" fill="#FFFFFF"></path>
                            <path d="M5.9443299,27.645977 L20.5494845,26.0689655 C20.7731959,26.0367816 20.9649485,26.1977011 20.9969072,26.4229885 L20.9969072,26.4229885 C21.028866,26.6482759 20.8690722,26.8413793 20.6453608,26.8735632 L6.04020619,28.4505747 C5.81649485,28.4827586 5.62474227,28.3218391 5.59278351,28.0965517 L5.59278351,28.0965517 C5.56082474,27.8712644 5.72061856,27.6781609 5.9443299,27.645977 Z" id="Shape" fill="#FFFFFF"></path>
                            <path d="M22.8824742,29.737931 C22.8185567,30.2850575 23.2020619,30.8 23.7453608,30.8643678 L43.2082474,33.5034483 C43.7515464,33.5678161 44.2628866,33.1816092 44.3268041,32.6344828 L47.8742268,6.05057471 C47.9381443,5.50344828 47.5546392,4.98850575 47.0113402,4.92413793 L30.8402062,2.73563218 C30.3927835,2.67126437 29.9773196,2.8 29.6257732,3.05747126 L27.1010309,4.98850575 C26.4618557,5.47126437 26.0463918,6.17931034 25.9505155,6.98390805 L22.8824742,29.737931 Z" id="Shape" fill="#D6DCE5"></path>
                            <path d="M28.9546392,7.43448276 L28.9546392,7.43448276 C28.9865979,7.2091954 29.1783505,7.04827586 29.4020619,7.08045977 L43.943299,9.04367816 C44.1670103,9.07586207 44.3268041,9.26896552 44.2948454,9.49425287 L44.2948454,9.49425287 C44.2628866,9.71954023 44.071134,9.88045977 43.8474227,9.84827586 L29.3061856,7.88505747 C29.0824742,7.88505747 28.9226804,7.69195402 28.9546392,7.43448276 Z" id="Shape" fill="#FFFFFF"></path>
                            <path d="M28.443299,11.2 L28.443299,11.2 C28.4752577,10.9747126 28.6670103,10.8137931 28.8907216,10.845977 L43.4319588,12.8091954 C43.6556701,12.8413793 43.8154639,13.0344828 43.7835052,13.2597701 L43.7835052,13.2597701 C43.7515464,13.4850575 43.5597938,13.645977 43.3360825,13.6137931 L28.7948454,11.6505747 C28.571134,11.6183908 28.4113402,11.4252874 28.443299,11.2 Z" id="Shape" fill="#FFFFFF"></path>
                            <path d="M27.9319588,14.9655172 L27.9319588,14.9655172 C27.9639175,14.7402299 28.1556701,14.5793103 28.3793814,14.6114943 L42.9206186,16.5747126 C43.1443299,16.6068966 43.3041237,16.8 43.2721649,17.0252874 L43.2721649,17.0252874 C43.2402062,17.2505747 43.0484536,17.4114943 42.8247423,17.3793103 L28.2835052,15.416092 C28.0597938,15.383908 27.9,15.1908046 27.9319588,14.9655172 Z" id="Shape" fill="#FFFFFF"></path>
                            <path d="M27.4206186,18.7310345 L27.4206186,18.7310345 C27.4525773,18.5057471 27.6443299,18.3448276 27.8680412,18.3770115 L42.4092784,20.3402299 C42.6329897,20.3724138 42.7927835,20.5655172 42.7608247,20.7908046 L42.7608247,20.7908046 C42.728866,21.016092 42.5371134,21.1770115 42.3134021,21.1448276 L27.7721649,19.1816092 C27.5484536,19.1494253 27.4206186,18.9241379 27.4206186,18.7310345 Z" id="Shape" fill="#FFFFFF"></path>
                            <path d="M26.9412371,22.4643678 L26.9412371,22.4643678 C26.9731959,22.2390805 27.1649485,22.0781609 27.3886598,22.1103448 L41.9298969,24.0735632 C42.1536082,24.1057471 42.3134021,24.2988506 42.2814433,24.5241379 L42.2814433,24.5241379 C42.2494845,24.7494253 42.057732,24.9103448 41.8340206,24.8781609 L27.2927835,22.9149425 C27.0690722,22.8827586 26.9092784,22.6896552 26.9412371,22.4643678 Z" id="Shape" fill="#FFFFFF"></path>
                            <path d="M26.4298969,26.2298851 L26.4298969,26.2298851 C26.4618557,26.0045977 26.6536082,25.8436782 26.8773196,25.8758621 L41.4185567,27.8390805 C41.642268,27.8712644 41.8020619,28.0643678 41.7701031,28.2896552 L41.7701031,28.2896552 C41.7381443,28.5149425 41.5463918,28.6758621 41.3226804,28.6436782 L26.7814433,26.6804598 C26.557732,26.6482759 26.3979381,26.4551724 26.4298969,26.2298851 Z" id="Shape" fill="#FFFFFF"></path>
                            <g id="Group" opacity="0.63" transform="translate(11.824742, 0.965517)" fill="#AABFD7">
                                <path d="M26.4938144,30.7034483 C26.5257732,31.3149425 26.0463918,31.7977011 25.4391753,31.7977011 L25.4072165,31.7977011 L20.4216495,31.2505747 C19.814433,31.2505747 2.14123711,31.0252874 2.10927835,30.4137931 L2.10927835,30.4137931 L0.319587629,1.31954023 C0.287628866,0.708045977 0.767010309,0.225287356 1.3742268,0.225287356 L19.6865979,0.225287356 C20.1659794,0.225287356 20.6453608,0.418390805 21.028866,0.740229885 L23.7134021,3.2183908 C24.3845361,3.82988506 24.7680412,4.66666667 24.8319588,5.53563218 L26.4938144,30.7034483 Z" id="Shape"></path>
                            </g>
                            <g id="Group" opacity="0.63" transform="translate(9.587629, 0.965517)" fill="#AABFD7">
                                <path d="M1.75773196,3.9908046 C1.82164948,3.12183908 2.20515464,2.28505747 2.87628866,1.67356322 L5.62474227,0.740229885 C5.97628866,0.418390805 6.4556701,0.225287356 6.96701031,0.225287356 L23.3298969,1.57701149 C23.9371134,1.57701149 24.4164948,2.05977011 24.3845361,2.67126437 L24.5123711,30.4137931 L24.5123711,30.4137931 C24.4804124,31.0252874 6.80721649,31.2505747 6.2,31.2505747 L1.21443299,31.7977011 L1.18247423,31.7977011 C0.575257732,31.7977011 0.0958762887,31.3149425 0.127835052,30.7034483 L1.75773196,3.9908046 Z" id="Shape"></path>
                            </g>
                            <path d="M36.1773196,31.3471264 C36.1773196,31.9586207 35.6659794,32.4735632 35.0587629,32.4735632 L35.0587629,32.4735632 L13.071134,32.4735632 C12.4639175,32.4735632 11.9525773,31.9586207 11.9525773,31.3471264 L11.9525773,31.3471264 L11.9525773,1.28735632 C11.9525773,0.675862069 12.4639175,0.16091954 13.071134,0.16091954 L31.3835052,0.16091954 C31.8628866,0.16091954 32.342268,0.354022989 32.6938144,0.708045977 L35.2185567,3.25057471 C35.857732,3.89425287 36.2092784,4.76321839 36.2092784,5.63218391 L36.2092784,31.3471264 L36.1773196,31.3471264 Z" id="Shape" fill="#D6DCE5"></path>
                            <path d="M32.7257732,0.772413793 C32.342268,0.386206897 31.7989691,0.16091954 31.2556701,0.16091954 L31.2556701,0.16091954 C31.7350515,0.16091954 32.1185567,0.579310345 32.1185567,1.06206897 L32.1185567,3.79770115 C32.1185567,4.4091954 32.6298969,4.82758621 33.2371134,4.73103448 L34.8989691,4.44137931 C35.6020619,4.31264368 36.1773196,4.82758621 36.1773196,5.56781609 L36.1773196,5.56781609 C36.1773196,4.73103448 35.857732,3.95862069 35.2824742,3.37931034 L32.7257732,0.772413793 Z" id="Shape" fill="#AABFD7"></path>
                            <path d="M32.7257732,0.772413793 C32.342268,0.386206897 31.7989691,0.16091954 31.2556701,0.16091954 L31.2556701,0.16091954 C31.7350515,0.16091954 32.1185567,0.579310345 32.1185567,1.06206897 L32.1185567,3.12183908 C32.1185567,3.73333333 32.6298969,4.24827586 33.2371134,4.24827586 L33.2371134,4.24827586 L34.8989691,4.24827586 C35.6020619,4.24827586 36.1773196,4.82758621 36.1773196,5.53563218 L36.1773196,5.53563218 C36.1773196,4.69885057 35.857732,3.92643678 35.2824742,3.34712644 L32.7257732,0.772413793 Z" id="Shape" fill="#7D9DC4"></path>
                            <path d="M15.8195876,5.24597701 L32.2783505,5.24597701 C32.5340206,5.24597701 32.7257732,5.43908046 32.7257732,5.69655172 L32.7257732,5.69655172 C32.7257732,5.95402299 32.5340206,6.14712644 32.2783505,6.14712644 L15.8195876,6.14712644 C15.5639175,6.14712644 15.3721649,5.95402299 15.3721649,5.69655172 L15.3721649,5.69655172 C15.3721649,5.47126437 15.5639175,5.24597701 15.8195876,5.24597701 Z" id="Shape" fill="#FFFFFF"></path>
                            <path d="M15.8195876,9.49425287 L32.2783505,9.49425287 C32.5340206,9.49425287 32.7257732,9.68735632 32.7257732,9.94482759 L32.7257732,9.94482759 C32.7257732,10.2022989 32.5340206,10.3954023 32.2783505,10.3954023 L15.8195876,10.3954023 C15.5639175,10.3954023 15.3721649,10.2022989 15.3721649,9.94482759 L15.3721649,9.94482759 C15.3721649,9.71954023 15.5639175,9.49425287 15.8195876,9.49425287 Z" id="Shape" fill="#FFFFFF"></path>
                            <path d="M15.8195876,13.7425287 L32.2783505,13.7425287 C32.5340206,13.7425287 32.7257732,13.9356322 32.7257732,14.1931034 L32.7257732,14.1931034 C32.7257732,14.4505747 32.5340206,14.6436782 32.2783505,14.6436782 L15.8195876,14.6436782 C15.5639175,14.6436782 15.3721649,14.4505747 15.3721649,14.1931034 L15.3721649,14.1931034 C15.3721649,13.9678161 15.5639175,13.7425287 15.8195876,13.7425287 Z" id="Shape" fill="#FFFFFF"></path>
                            <path d="M15.8195876,17.9908046 L32.2783505,17.9908046 C32.5340206,17.9908046 32.7257732,18.183908 32.7257732,18.4413793 L32.7257732,18.4413793 C32.7257732,18.6988506 32.5340206,18.891954 32.2783505,18.891954 L15.8195876,18.891954 C15.5639175,18.891954 15.3721649,18.6988506 15.3721649,18.4413793 L15.3721649,18.4413793 C15.3721649,18.183908 15.5639175,17.9908046 15.8195876,17.9908046 Z" id="Shape" fill="#FFFFFF"></path>
                            <path d="M15.8195876,22.2390805 L32.2783505,22.2390805 C32.5340206,22.2390805 32.7257732,22.4321839 32.7257732,22.6896552 L32.7257732,22.6896552 C32.7257732,22.9471264 32.5340206,23.1402299 32.2783505,23.1402299 L15.8195876,23.1402299 C15.5639175,23.1402299 15.3721649,22.9471264 15.3721649,22.6896552 L15.3721649,22.6896552 C15.3721649,22.4321839 15.5639175,22.2390805 15.8195876,22.2390805 Z" id="Shape" fill="#FFFFFF"></path>
                            <path d="M15.8195876,26.4873563 L32.2783505,26.4873563 C32.5340206,26.4873563 32.7257732,26.6804598 32.7257732,26.937931 L32.7257732,26.937931 C32.7257732,27.1954023 32.5340206,27.3885057 32.2783505,27.3885057 L15.8195876,27.3885057 C15.5639175,27.3885057 15.3721649,27.1954023 15.3721649,26.937931 L15.3721649,26.937931 C15.3721649,26.6804598 15.5639175,26.4873563 15.8195876,26.4873563 Z" id="Shape" fill="#FFFFFF"></path>
                        </g>
                    </g>
                    <g id="Group" transform="translate(0.000000, 18.988506)">
                        <g>
                            <path d="M54.0103093,34.2758621 L8.40515464,34.2758621 C7.22268041,34.2758621 6.29587629,33.3425287 6.29587629,32.1517241 L6.29587629,2.22068966 C6.29587629,1.02988506 7.22268041,0.0965517241 8.40515464,0.0965517241 L54.0103093,0.0965517241 C55.1927835,0.0965517241 56.1195876,1.02988506 56.1195876,2.22068966 L56.1195876,32.183908 C56.0876289,33.3425287 55.1608247,34.2758621 54.0103093,34.2758621 Z" id="Shape" fill="#AABFD7" fill-rule="nonzero"></path>
                            <path d="M52.5082474,3.63678161 L9.90721649,3.63678161 C9.33195876,3.63678161 8.88453608,4.08735632 8.88453608,4.66666667 L8.88453608,7.14482759 L8.88453608,31.7011494 C8.88453608,32.2804598 9.33195876,32.7310345 9.90721649,32.7310345 L52.5402062,32.7310345 C53.1154639,32.7310345 53.5628866,32.2804598 53.5628866,31.7011494 L53.5628866,7.08045977 L53.5628866,4.60229885 C53.5309278,4.08735632 53.0835052,3.63678161 52.5082474,3.63678161 Z" id="Shape" fill="#D6DCE5" fill-rule="nonzero"></path>
                            <path d="M35.1546392,16.091954 L11.8247423,16.091954 C11.3453608,16.091954 10.9618557,15.7057471 10.9618557,15.2229885 L10.9618557,9.84827586 C10.9618557,9.36551724 11.3453608,8.97931034 11.8247423,8.97931034 L35.1546392,8.97931034 C35.6340206,8.97931034 36.0175258,9.36551724 36.0175258,9.84827586 L36.0175258,15.1908046 C36.0175258,15.6735632 35.6340206,16.091954 35.1546392,16.091954 Z" id="Shape" fill="#FFFFFF" fill-rule="nonzero"></path>
                            <path d="M49.0247423,16.091954 L38.9896907,16.091954 C38.5103093,16.091954 38.1268041,15.7057471 38.1268041,15.2229885 L38.1268041,9.84827586 C38.1268041,9.36551724 38.5103093,8.97931034 38.9896907,8.97931034 L49.0247423,8.97931034 C49.5041237,8.97931034 49.8876289,9.36551724 49.8876289,9.84827586 L49.8876289,15.1908046 C49.8876289,15.6735632 49.5041237,16.091954 49.0247423,16.091954 Z" id="Shape" fill="#FFFFFF" fill-rule="nonzero"></path>
                            <path d="M35.442268,33.1816092 L11.8247423,33.1816092 C11.3453608,33.1816092 10.9618557,32.7954023 10.9618557,32.3126437 L10.9618557,17.9264368 C10.9618557,17.4436782 11.3453608,17.0574713 11.8247423,17.0574713 L35.442268,17.0574713 C35.9216495,17.0574713 36.3051546,17.4436782 36.3051546,17.9264368 L36.3051546,32.3126437 C36.3371134,32.7632184 35.9216495,33.1816092 35.442268,33.1816092 Z" id="Shape" fill="#FFFFFF" fill-rule="nonzero"></path>
                            <path d="M49.0247423,24.137931 L38.9896907,24.137931 C38.5103093,24.137931 38.1268041,23.7517241 38.1268041,23.2689655 L38.1268041,17.9264368 C38.1268041,17.4436782 38.5103093,17.0574713 38.9896907,17.0574713 L49.0247423,17.0574713 C49.5041237,17.0574713 49.8876289,17.4436782 49.8876289,17.9264368 L49.8876289,23.2689655 C49.8876289,23.7195402 49.5041237,24.137931 49.0247423,24.137931 Z" id="Shape" fill="#FFFFFF" fill-rule="nonzero"></path>
                            <path d="M49.0247423,32.216092 L38.9896907,32.216092 C38.5103093,32.216092 38.1268041,31.8298851 38.1268041,31.3471264 L38.1268041,26.0045977 C38.1268041,25.5218391 38.5103093,25.1356322 38.9896907,25.1356322 L49.0247423,25.1356322 C49.5041237,25.1356322 49.8876289,25.5218391 49.8876289,26.0045977 L49.8876289,31.3471264 C49.8876289,31.7977011 49.5041237,32.216092 49.0247423,32.216092 Z" id="Shape" fill="#FFFFFF" fill-rule="nonzero"></path>
                            <path d="M53.5309278,4.66666667 C53.5309278,4.08735632 53.0835052,3.63678161 52.5082474,3.63678161 L9.90721649,3.63678161 C9.33195876,3.63678161 8.88453608,4.08735632 8.88453608,4.66666667 L8.88453608,6.53333333 L53.5309278,6.53333333 L53.5309278,4.66666667 Z" id="Shape" fill="#038ADA" fill-rule="nonzero"></path>
                            <ellipse id="Oval" fill="#7D9DC4" fill-rule="nonzero" cx="31.1917526" cy="1.77011494" rx="1" ry="1"></ellipse>
                            <g transform="translate(0.000000, 31.218391)" fill-rule="nonzero" id="Shape">
                                <path d="M59.1876289,5.53563218 L2.74845361,5.53563218 C1.24639175,5.53563218 0.0319587629,4.31264368 0.0319587629,2.8 L0.0319587629,2.8 C0.0319587629,1.28735632 1.24639175,0.0643678161 2.74845361,0.0643678161 L59.2195876,0.0643678161 C60.7216495,0.0643678161 61.9360825,1.28735632 61.9360825,2.8 L61.9360825,2.8 C61.9041237,4.28045977 60.6896907,5.53563218 59.1876289,5.53563218 Z" fill="#AABFD7"></path>
                                <path d="M39.1494845,0.032183908 L39.1494845,0.032183908 C39.1494845,1.28735632 38.1268041,2.34942529 36.8484536,2.34942529 L25.0876289,2.34942529 C23.8412371,2.34942529 22.7865979,1.31954023 22.7865979,0.032183908 L22.7865979,0.032183908" fill="#7D9DC4"></path>
                            </g>
                            <path d="M46.2762887,2.63908046 C46.2762887,1.77011494 46.4360825,0.933333333 46.6917526,0.0965517241 L8.40515464,0.0965517241 C7.22268041,0.0965517241 6.29587629,1.02988506 6.29587629,2.22068966 L6.29587629,32.183908 C6.29587629,33.3747126 7.22268041,34.308046 8.40515464,34.308046 L54.0103093,34.308046 C55.1927835,34.308046 56.1195876,33.3747126 56.1195876,32.183908 L56.1195876,10.137931 C55.4484536,10.3310345 54.7773196,10.4275862 54.0103093,10.4275862 C49.7278351,10.3954023 46.2762887,6.95172414 46.2762887,2.63908046 Z" id="Shape"></path>
                        </g>
                        <path d="M16.3309278,14.6758621 L13.2309278,14.6758621 C12.7515464,14.6758621 12.3360825,14.2896552 12.3360825,13.7747126 L12.3360825,13.7747126 C12.3360825,13.291954 12.7195876,12.8735632 13.2309278,12.8735632 L16.3309278,12.8735632 C16.8103093,12.8735632 17.2257732,13.2597701 17.2257732,13.7747126 L17.2257732,13.7747126 C17.2257732,14.2574713 16.842268,14.6758621 16.3309278,14.6758621 Z" id="Shape" fill="#2CB96F" fill-rule="nonzero"></path>
                        <path d="M17.2257732,11.0390805 L12.7515464,11.0390805 C12.5597938,11.0390805 12.4639175,10.9103448 12.4639175,10.7494253 C12.4639175,10.5563218 12.5917526,10.4597701 12.7515464,10.4597701 L17.2257732,10.4597701 C17.4175258,10.4597701 17.5134021,10.5885057 17.5134021,10.7494253 C17.5134021,10.9103448 17.385567,11.0390805 17.2257732,11.0390805 Z" id="Shape" fill="#AABFD7" fill-rule="nonzero"></path>
                        <path d="M44.1670103,11.0390805 L39.6927835,11.0390805 C39.5010309,11.0390805 39.4051546,10.9103448 39.4051546,10.7494253 C39.4051546,10.5563218 39.5329897,10.4597701 39.6927835,10.4597701 L44.1670103,10.4597701 C44.3587629,10.4597701 44.4546392,10.5885057 44.4546392,10.7494253 C44.4546392,10.9103448 44.3268041,11.0390805 44.1670103,11.0390805 Z" id="Shape" fill="#AABFD7" fill-rule="nonzero"></path>
                        <path d="M44.1670103,19.1816092 L39.6927835,19.1816092 C39.5010309,19.1816092 39.4051546,19.0528736 39.4051546,18.891954 C39.4051546,18.6988506 39.5329897,18.6022989 39.6927835,18.6022989 L44.1670103,18.6022989 C44.3587629,18.6022989 44.4546392,18.7310345 44.4546392,18.891954 C44.4546392,19.0528736 44.3268041,19.1816092 44.1670103,19.1816092 Z" id="Shape" fill="#AABFD7" fill-rule="nonzero"></path>
                        <path d="M44.1670103,27.0344828 L39.6927835,27.0344828 C39.5010309,27.0344828 39.4051546,26.9057471 39.4051546,26.7448276 C39.4051546,26.5517241 39.5329897,26.4551724 39.6927835,26.4551724 L44.1670103,26.4551724 C44.3587629,26.4551724 44.4546392,26.583908 44.4546392,26.7448276 C44.4546392,26.9057471 44.3268041,27.0344828 44.1670103,27.0344828 Z" id="Shape" fill="#AABFD7" fill-rule="nonzero"></path>
                    </g>
                    <path d="M33.2051546,39.3287356 L13.2948454,39.3287356 C13.1350515,39.3287356 13.0072165,39.2 13.0072165,39.0390805 C13.0072165,38.8781609 13.1350515,38.7494253 13.2948454,38.7494253 L33.2051546,38.7494253 C33.3649485,38.7494253 33.4927835,38.8781609 33.4927835,39.0390805 C33.4927835,39.2 33.3649485,39.3287356 33.2051546,39.3287356 Z" id="Shape" fill="#AABFD7" fill-rule="nonzero"></path>
                    <path d="M33.2051546,41.1310345 L13.2948454,41.1310345 C13.1350515,41.1310345 13.0072165,41.0022989 13.0072165,40.8413793 C13.0072165,40.6804598 13.1350515,40.5517241 13.2948454,40.5517241 L33.2051546,40.5517241 C33.3649485,40.5517241 33.4927835,40.6804598 33.4927835,40.8413793 C33.4927835,41.0022989 33.3649485,41.1310345 33.2051546,41.1310345 Z" id="Shape" fill="#AABFD7" fill-rule="nonzero"></path>
                    <g id="Group" transform="translate(13.103093, 42.804598)" fill="#AABFD7" fill-rule="nonzero">
                        <path d="M5.04948454,4.37701149 L0.319587629,4.37701149 C0.159793814,4.37701149 0.0319587629,4.24827586 0.0319587629,4.08735632 C0.0319587629,3.92643678 0.159793814,3.79770115 0.319587629,3.79770115 L5.04948454,3.79770115 C5.20927835,3.79770115 5.3371134,3.92643678 5.3371134,4.08735632 C5.3371134,4.24827586 5.20927835,4.37701149 5.04948454,4.37701149 Z" id="Shape"></path>
                        <path d="M5.04948454,6.17931034 L0.319587629,6.17931034 C0.159793814,6.17931034 0.0319587629,6.05057471 0.0319587629,5.88965517 C0.0319587629,5.72873563 0.159793814,5.6 0.319587629,5.6 L5.04948454,5.6 C5.20927835,5.6 5.3371134,5.72873563 5.3371134,5.88965517 C5.3371134,6.05057471 5.20927835,6.17931034 5.04948454,6.17931034 Z" id="Shape"></path>
                        <path d="M5.04948454,0.772413793 L0.319587629,0.772413793 C0.159793814,0.772413793 0.0319587629,0.643678161 0.0319587629,0.482758621 C0.0319587629,0.32183908 0.159793814,0.193103448 0.319587629,0.193103448 L5.04948454,0.193103448 C5.20927835,0.193103448 5.3371134,0.32183908 5.3371134,0.482758621 C5.3371134,0.611494253 5.20927835,0.772413793 5.04948454,0.772413793 Z" id="Shape"></path>
                        <path d="M5.04948454,2.54252874 L0.319587629,2.54252874 C0.159793814,2.54252874 0.0319587629,2.4137931 0.0319587629,2.25287356 C0.0319587629,2.09195402 0.159793814,1.96321839 0.319587629,1.96321839 L5.04948454,1.96321839 C5.20927835,1.96321839 5.3371134,2.09195402 5.3371134,2.25287356 C5.3371134,2.4137931 5.20927835,2.54252874 5.04948454,2.54252874 Z" id="Shape"></path>
                    </g>
                    <g id="Group" transform="translate(20.453608, 42.804598)" fill="#AABFD7" fill-rule="nonzero">
                        <path d="M5.27319588,4.37701149 L0.543298969,4.37701149 C0.383505155,4.37701149 0.255670103,4.24827586 0.255670103,4.08735632 C0.255670103,3.92643678 0.383505155,3.79770115 0.543298969,3.79770115 L5.27319588,3.79770115 C5.43298969,3.79770115 5.56082474,3.92643678 5.56082474,4.08735632 C5.56082474,4.24827586 5.43298969,4.37701149 5.27319588,4.37701149 Z" id="Shape"></path>
                        <path d="M5.27319588,6.17931034 L0.543298969,6.17931034 C0.383505155,6.17931034 0.255670103,6.05057471 0.255670103,5.88965517 C0.255670103,5.72873563 0.383505155,5.6 0.543298969,5.6 L5.27319588,5.6 C5.43298969,5.6 5.56082474,5.72873563 5.56082474,5.88965517 C5.56082474,6.05057471 5.43298969,6.17931034 5.27319588,6.17931034 Z" id="Shape"></path>
                        <path d="M5.27319588,0.772413793 L0.543298969,0.772413793 C0.383505155,0.772413793 0.255670103,0.643678161 0.255670103,0.482758621 C0.255670103,0.32183908 0.383505155,0.193103448 0.543298969,0.193103448 L5.27319588,0.193103448 C5.43298969,0.193103448 5.56082474,0.32183908 5.56082474,0.482758621 C5.56082474,0.611494253 5.43298969,0.772413793 5.27319588,0.772413793 Z" id="Shape"></path>
                        <path d="M5.27319588,2.54252874 L0.543298969,2.54252874 C0.383505155,2.54252874 0.255670103,2.4137931 0.255670103,2.25287356 C0.255670103,2.09195402 0.383505155,1.96321839 0.543298969,1.96321839 L5.27319588,1.96321839 C5.43298969,1.96321839 5.56082474,2.09195402 5.56082474,2.25287356 C5.56082474,2.4137931 5.43298969,2.54252874 5.27319588,2.54252874 Z" id="Shape"></path>
                    </g>
                    <g id="Group" transform="translate(28.123711, 42.804598)" fill="#AABFD7" fill-rule="nonzero">
                        <path d="M5.11340206,4.37701149 L0.383505155,4.37701149 C0.22371134,4.37701149 0.0958762887,4.24827586 0.0958762887,4.08735632 C0.0958762887,3.92643678 0.22371134,3.79770115 0.383505155,3.79770115 L5.11340206,3.79770115 C5.27319588,3.79770115 5.40103093,3.92643678 5.40103093,4.08735632 C5.40103093,4.24827586 5.27319588,4.37701149 5.11340206,4.37701149 Z" id="Shape"></path>
                        <path d="M5.11340206,6.17931034 L0.383505155,6.17931034 C0.22371134,6.17931034 0.0958762887,6.05057471 0.0958762887,5.88965517 C0.0958762887,5.72873563 0.22371134,5.6 0.383505155,5.6 L5.11340206,5.6 C5.27319588,5.6 5.40103093,5.72873563 5.40103093,5.88965517 C5.40103093,6.05057471 5.27319588,6.17931034 5.11340206,6.17931034 Z" id="Shape"></path>
                        <path d="M5.11340206,0.772413793 L0.383505155,0.772413793 C0.22371134,0.772413793 0.0958762887,0.643678161 0.0958762887,0.482758621 C0.0958762887,0.32183908 0.22371134,0.193103448 0.383505155,0.193103448 L5.11340206,0.193103448 C5.27319588,0.193103448 5.40103093,0.32183908 5.40103093,0.482758621 C5.43298969,0.611494253 5.27319588,0.772413793 5.11340206,0.772413793 Z" id="Shape"></path>
                        <path d="M5.11340206,2.54252874 L0.383505155,2.54252874 C0.22371134,2.54252874 0.0958762887,2.4137931 0.0958762887,2.25287356 C0.0958762887,2.09195402 0.22371134,1.96321839 0.383505155,1.96321839 L5.11340206,1.96321839 C5.27319588,1.96321839 5.40103093,2.09195402 5.40103093,2.25287356 C5.43298969,2.4137931 5.27319588,2.54252874 5.11340206,2.54252874 Z" id="Shape"></path>
                    </g>
                </g>
            </g>
        </g>
    </g>
</svg>