<?xml version="1.0" encoding="UTF-8"?>
<svg width="99px" height="67px" viewBox="0 0 99 67" version="1.1" xmlns="http://www.w3.org/2000/svg" xmlns:xlink="http://www.w3.org/1999/xlink">
    <!-- Generator: Sketch 49 (51002) - http://www.bohemiancoding.com/sketch -->
    <title>Group 30</title>
    <desc>Created with Sketch.</desc>
    <defs>
        <polygon id="path-1" points="4.93488761e-21 0.00010923913 4.93488761e-21 67 66.9999272 67 66.9999272 0.00010923913 0 0.00010923913"></polygon>
    </defs>
    <g id="Projeto" stroke="none" stroke-width="1" fill="none" fill-rule="evenodd">
        <g id="summit" transform="translate(-1063.000000, -1288.000000)">
            <g id="Group-30" transform="translate(1063.000000, 1288.000000)">
                <g id="Page-1" transform="translate(13.000000, 0.000000)">
                    <g id="Group-3">
                        <mask id="mask-2" fill="white">
                            <use xlink:href="#path-1"></use>
                        </mask>
                        <g id="Clip-2"></g>
                        <path d="M66.9999272,33.5001092 C66.9999272,52.0015766 52.0017587,67.0001092 33.4999272,67.0001092 C14.9984598,67.0001092 -7.28260869e-05,52.0015766 -7.28260869e-05,33.5001092 C-7.28260869e-05,14.9982777 14.9984598,0.00010923913 33.4999272,0.00010923913 C52.0017587,0.00010923913 66.9999272,14.9982777 66.9999272,33.5001092" id="Fill-1" fill="#EFEFEF" mask="url(#mask-2)"></path>
                    </g>
                </g>
                <g id="contaazul-integracao-bancaria" transform="translate(0.000000, 22.000000)" fill-rule="nonzero">
                    <g id="Group" transform="translate(61.665254, 2.521739)">
                        <path d="M34.4402542,11.3898551 L29.4483051,2.10144928 L20.8487288,6.59855072 C18.8771186,4.83333333 16.4860169,3.53043478 14.1788136,3.86666667 C14.1788136,3.86666667 14.1788136,3.86666667 14.1368644,3.86666667 L5.57923729,4.70724638 C5.24364407,4.74927536 5.03389831,5.04347826 5.07584746,5.37971014 C5.24364407,7.01884058 6.71186441,8.19565217 8.3059322,8.02753623 L11.6618644,7.69130435 C12.0394068,7.64927536 12.375,7.8173913 12.5427966,8.1115942 C12.8364407,8.57391304 12.6266949,9.12028986 12.1652542,9.37246377 L8.13813559,11.473913 C8.01228814,11.515942 7.84449153,11.557971 7.71864407,11.6 L4.53050847,13.3231884 L3.64957627,13.7855072 L3.64957627,13.7855072 L1.17457627,15.1304348 C0.33559322,15.5927536 -1.20459198e-14,16.6855072 0.461440678,17.5681159 L0.461440678,17.5681159 C0.838983051,18.2826087 1.5940678,18.5768116 2.34915254,18.4507246 L1.5940678,18.8710145 C0.755084746,19.3333333 0.419491525,20.426087 0.880932203,21.3086957 L0.880932203,21.3086957 C1.34237288,22.1492754 2.43305085,22.4855072 3.31398305,22.0231884 L4.23686441,21.5188406 C3.73347458,22.0652174 3.56567797,22.8637681 3.94322034,23.5782609 L3.94322034,23.5782609 C4.40466102,24.4188406 5.49533898,24.7550725 6.37627119,24.2927536 L7.34110169,23.7463768 C6.96355932,24.2507246 6.92161017,24.9652174 7.25720339,25.5536232 C7.71864407,26.3942029 8.80932203,26.7304348 9.69025424,26.2681159 L13.465678,24.2086957 L13.465678,24.2086957 L21.4779661,19.9217391 C22.3588983,19.4594203 23.0720339,18.7869565 23.6173729,18.0304348 C24.7080508,16.6434783 26.134322,15.5086957 27.6864407,14.6681159 L34.4402542,11.3898551 Z" id="Shape" fill="#F4D4CE"></path>
                        <g opacity="0.5" transform="translate(23.911017, 5.043478)" fill="#E9AE94" id="Shape">
                            <polyline points="0.209745763 0.084057971 3.90127119 9.75072464 8.09618644 7.35507246 4.44661017 0.630434783"></polyline>
                        </g>
                        <path d="M36.7055085,11.9782609 L31.3360169,15.1304348 C30.7487288,15.4666667 29.9936441,15.2565217 29.6580508,14.6681159 L24.1627119,5.12753623 C23.8271186,4.53913043 24.0368644,3.7826087 24.6241525,3.44637681 L29.9936441,0.294202899 C30.5809322,-0.0420289855 31.3360169,0.168115942 31.6716102,0.756521739 L37.1669492,10.2971014 C37.5025424,10.8855072 37.2927966,11.684058 36.7055085,11.9782609 Z" id="Shape" fill="#699FEC"></path>
                    </g>
                    <g id="Group" transform="translate(11.326271, 0.000000)">
                        <path d="M20.890678,0.126086957 C20.5131356,0.084057971 13.5076271,0.084057971 13.1300847,0.084057971 L13.1300847,0.084057971 C6.5440678,0.084057971 1.13262712,5.04347826 0.33559322,11.3898551 C0.251694915,12.2304348 0.880932203,12.9449275 1.6779661,12.9449275 L21.4779661,12.9449275 C22.1911017,12.9449275 22.820339,12.4405797 22.8622881,11.684058 C23.1559322,8.82608696 24.3724576,6.22028986 26.1762712,4.20289855 L20.890678,0.126086957 Z" id="Shape" fill="#FF89A1"></path>
                        <path d="M61.7072034,15.2985507 C57.8478814,13.3231884 53.7788136,9.62463768 50.590678,6.47246377 L50.5067797,6.47246377 C50.4648305,6.30434783 50.3809322,6.17826087 50.2550847,6.05217391 L48.0737288,3.86666667 C45.5987288,1.38695652 42.2847458,0.0420289855 38.8449153,0.0420289855 L14.2627119,0.0420289855 L14.304661,0.084057971 C17.2830508,0.37826087 20.1355932,1.68115942 22.2330508,3.82463768 C22.5686441,4.16086957 23.365678,4.95942029 25.0016949,6.59855072 C25.1275424,6.72463768 25.2533898,6.85072464 25.4211864,6.93478261 C29.3224576,10.8014493 34.3983051,15.1724638 38.8449153,16.4333333 C39.4322034,16.6014493 40.0614407,16.6855072 40.7326271,16.6855072 L61.4135593,16.6855072 C62.1266949,16.6855072 62.3783898,15.6347826 61.7072034,15.2985507 Z" id="Shape" fill="#FDB3C0"></path>
                    </g>
                    <g id="Group" transform="translate(37.334746, 2.521739)" fill="#FFFFFF">
                        <path d="M22.9461864,7.39710145 L7.38305085,7.39710145 C7.21525424,7.39710145 7.04745763,7.22898551 7.04745763,7.06086957 C7.04745763,6.89275362 7.21525424,6.72463768 7.38305085,6.72463768 L22.9461864,6.72463768 C23.1139831,6.72463768 23.2817797,6.89275362 23.2817797,7.06086957 C23.2817797,7.22898551 23.1559322,7.39710145 22.9461864,7.39710145 Z" id="Shape"></path>
                        <path d="M27.3088983,10.7173913 L11.7457627,10.7173913 C11.5779661,10.7173913 11.4101695,10.5492754 11.4101695,10.3811594 C11.4101695,10.2130435 11.5779661,10.0449275 11.7457627,10.0449275 L27.3088983,10.0449275 C27.4766949,10.0449275 27.6444915,10.2130435 27.6444915,10.3811594 C27.6444915,10.5492754 27.4766949,10.7173913 27.3088983,10.7173913 Z" id="Shape"></path>
                        <path d="M19.8419492,4.07681159 L4.32076271,4.07681159 C4.1529661,4.07681159 3.98516949,3.90869565 3.98516949,3.74057971 C3.98516949,3.57246377 4.1529661,3.40434783 4.32076271,3.40434783 L19.8419492,3.40434783 C20.0097458,3.40434783 20.1775424,3.57246377 20.1775424,3.74057971 C20.1775424,3.90869565 20.0097458,4.07681159 19.8419492,4.07681159 Z" id="Shape"></path>
                        <path d="M16.0665254,0.714492754 L0.545338983,0.714492754 C0.377542373,0.714492754 0.209745763,0.546376812 0.209745763,0.37826087 C0.209745763,0.210144928 0.377542373,0.0420289855 0.545338983,0.0420289855 L16.0665254,0.0420289855 C16.234322,0.0420289855 16.4021186,0.210144928 16.4021186,0.37826087 C16.4021186,0.546376812 16.2762712,0.714492754 16.0665254,0.714492754 Z" id="Shape"></path>
                    </g>
                    <g id="Group" transform="translate(0.000000, 2.101449)">
                        <path d="M2.93644068,11.557971 L7.92838983,2.26956522 L16.5279661,6.76666667 C18.4995763,5.00144928 20.890678,3.69855072 23.1978814,4.03478261 L23.2398305,4.03478261 L31.8394068,4.83333333 C32.175,4.87536232 32.3847458,5.16956522 32.3427966,5.5057971 C32.175,7.14492754 30.7067797,8.32173913 29.1127119,8.15362319 L25.7567797,7.8173913 C25.3792373,7.77536232 25.0436441,7.94347826 24.8758475,8.23768116 C24.5822034,8.7 24.7919492,9.24637681 25.2533898,9.49855072 L29.2805085,11.6 C29.4063559,11.642029 29.5741525,11.684058 29.7,11.726087 L32.8881356,13.4492754 L33.7690678,13.9115942 L33.7690678,13.9115942 L36.2440678,15.2565217 C37.0830508,15.7188406 37.4186441,16.8115942 36.9572034,17.6942029 L36.9572034,17.6942029 C36.579661,18.4086957 35.8245763,18.7028986 35.0694915,18.5768116 L35.8245763,18.9971014 C36.6635593,19.4594203 36.9991525,20.5521739 36.5377119,21.4347826 L36.5377119,21.4347826 C36.0762712,22.2753623 34.9855932,22.6115942 34.104661,22.1492754 L33.1817797,21.6449275 C33.6851695,22.1913043 33.8529661,22.9898551 33.4754237,23.7043478 L33.4754237,23.7043478 C33.0139831,24.5449275 31.9233051,24.8811594 31.0423729,24.4188406 L30.0775424,23.8724638 C30.4550847,24.3768116 30.4970339,25.0913043 30.1614407,25.6797101 C29.7,26.5202899 28.609322,26.8565217 27.7283898,26.3942029 L23.9529661,24.3347826 L23.9529661,24.3347826 L15.940678,20.0478261 C15.0597458,19.5855072 14.3466102,18.9130435 13.8012712,18.1565217 C12.7105932,16.7695652 11.284322,15.6347826 9.73220339,14.7942029 L2.93644068,11.557971 Z" id="Shape" fill="#FFD9E0"></path>
                        <g opacity="0.5" transform="translate(5.033898, 5.043478)" fill="#FDB3C0" id="Shape">
                            <polyline points="8.2220339 0.252173913 4.53050847 9.96086957 0.33559322 7.56521739 3.98516949 0.84057971"></polyline>
                        </g>
                        <path d="M0.713135593,12.1884058 L6.08262712,15.3405797 C6.66991525,15.6768116 7.425,15.4666667 7.76059322,14.8782609 L13.2559322,5.33768116 C13.5915254,4.74927536 13.3817797,3.99275362 12.7944915,3.65652174 L7.425,0.504347826 C6.83771186,0.168115942 6.08262712,0.37826087 5.7470339,0.966666667 L0.251694915,10.5072464 C-0.0838983051,11.0536232 0.0838983051,11.8521739 0.713135593,12.1884058 Z" id="Shape" fill="#FF61B1"></path>
                    </g>
                    <path d="M78.2351695,16.2652174 L78.1932203,16.2652174 C78.1512712,16.2652174 73.2432203,15.5086957 73.8724576,10.2130435 C73.9144068,10.0449275 74.0822034,9.87681159 74.25,9.91884058 C74.4177966,9.96086957 74.5855932,10.1289855 74.5436441,10.2971014 C73.9983051,14.9202899 78.109322,15.5507246 78.2771186,15.5927536 C78.4449153,15.6347826 78.5707627,15.8028986 78.5707627,15.9710145 C78.5288136,16.1391304 78.3610169,16.2652174 78.2351695,16.2652174 Z" id="Shape" fill="#E9AE94"></path>
                    <g id="Group" transform="translate(63.343220, 17.231884)" fill="#E9AE94">
                        <path d="M0.671186441,4.07681159 C0.545338983,4.07681159 0.419491525,4.03478261 0.377542373,3.90869565 C0.293644068,3.74057971 0.33559322,3.53043478 0.503389831,3.44637681 L6.16652542,0.294202899 C6.33432203,0.210144928 6.5440678,0.252173913 6.6279661,0.420289855 C6.71186441,0.588405797 6.66991525,0.798550725 6.50211864,0.882608696 L0.838983051,4.03478261 C0.797033898,4.07681159 0.713135593,4.07681159 0.671186441,4.07681159 Z" id="Shape"></path>
                        <path d="M2.34915254,7.06086957 C2.22330508,7.06086957 2.09745763,7.01884058 2.05550847,6.89275362 C1.97161017,6.72463768 2.01355932,6.51449275 2.18135593,6.43043478 L7.84449153,3.27826087 C8.01228814,3.1942029 8.2220339,3.23623188 8.3059322,3.40434783 C8.38983051,3.57246377 8.34788136,3.7826087 8.18008475,3.86666667 L2.51694915,7.01884058 C2.475,7.06086957 2.43305085,7.06086957 2.34915254,7.06086957 Z" id="Shape"></path>
                        <path d="M4.78220339,9.87681159 C4.65635593,9.87681159 4.53050847,9.83478261 4.48855932,9.70869565 C4.40466102,9.54057971 4.44661017,9.33043478 4.61440678,9.24637681 L10.2775424,6.0942029 C10.445339,6.01014493 10.6550847,6.05217391 10.7389831,6.22028986 C10.8228814,6.3884058 10.7809322,6.59855072 10.6131356,6.6826087 L4.95,9.83478261 C4.90805085,9.87681159 4.82415254,9.87681159 4.78220339,9.87681159 Z" id="Shape"></path>
                    </g>
                    <g id="Group" transform="translate(21.813559, 15.550725)" fill="#FDB3C0">
                        <path d="M12.920339,5.42173913 C12.8783898,5.42173913 12.7944915,5.42173913 12.7525424,5.37971014 L4.1529661,0.630434783 C3.98516949,0.546376812 3.94322034,0.336231884 4.02711864,0.168115942 C4.11101695,-2.2164235e-15 4.32076271,-0.0420289855 4.48855932,0.0420289855 L13.1300847,4.83333333 C13.2978814,4.9173913 13.3398305,5.12753623 13.2559322,5.29565217 C13.1720339,5.37971014 13.0461864,5.42173913 12.920339,5.42173913 Z" id="Shape"></path>
                        <path d="M11.0745763,8.74202899 C11.0326271,8.74202899 10.9487288,8.74202899 10.9067797,8.7 L2.22330508,3.95072464 C2.05550847,3.86666667 2.01355932,3.65652174 2.09745763,3.4884058 C2.18135593,3.32028986 2.39110169,3.27826087 2.55889831,3.36231884 L11.2423729,8.15362319 C11.4101695,8.23768116 11.4521186,8.44782609 11.3682203,8.61594203 C11.284322,8.7 11.2004237,8.74202899 11.0745763,8.74202899 Z" id="Shape"></path>
                        <path d="M8.64152542,11.557971 C8.59957627,11.557971 8.51567797,11.557971 8.47372881,11.515942 L0.503389831,6.97681159 C0.33559322,6.89275362 0.293644068,6.6826087 0.377542373,6.51449275 C0.461440678,6.34637681 0.671186441,6.30434783 0.838983051,6.3884058 L8.80932203,10.9275362 C8.97711864,11.0115942 9.0190678,11.2217391 8.93516949,11.3898551 C8.85127119,11.515942 8.76737288,11.557971 8.64152542,11.557971 Z" id="Shape"></path>
                    </g>
                    <ellipse id="Oval" fill="#FFFFFF" cx="4.90805085" cy="12.8608696" rx="1.17457627" ry="1.17681159"></ellipse>
                </g>
            </g>
        </g>
    </g>
</svg>