<?xml version="1.0" encoding="UTF-8"?>
<svg width="135px" height="24px" viewBox="0 0 135 24" version="1.1" xmlns="http://www.w3.org/2000/svg" xmlns:xlink="http://www.w3.org/1999/xlink">
    <!-- Generator: Sketch 49 (51002) - http://www.bohemiancoding.com/sketch -->
    <title>logo</title>
    <desc>Created with Sketch.</desc>
    <defs></defs>
    <g id="Projeto" stroke="none" stroke-width="1" fill="none" fill-rule="evenodd">
        <g id="summit" transform="translate(-653.000000, -103.000000)" fill="#FFFFFF">
            <g id="logo" transform="translate(653.000000, 103.000000)">
                <path d="M16.9453069,21.3635294 C15.2459448,22.7826838 13.0075583,23.4911029 10.2311042,23.4911029 C6.99823369,23.4911029 4.53211737,22.4822426 2.83307422,20.4602206 C1.13339317,18.5245588 0.284031067,15.6657353 0.284031067,11.8820956 C0.284031067,8.01275735 1.15444383,5.11025735 2.89526934,3.17525735 C4.67660142,1.15455882 7.24701418,0.143713235 10.604275,0.143713235 C13.3399035,0.143713235 15.5157759,0.854117647 17.1322112,2.27327206 C18.6650817,3.64908088 19.5358134,5.58474265 19.7431305,8.07761029 L17.0700161,8.07761029 C16.0752131,8.07761029 15.3700161,7.625625 14.9563388,6.72330882 C14.6657759,6.16411765 14.3130179,5.66977941 13.8993406,5.23930147 C13.0700723,4.59441176 11.9719298,4.27213235 10.604275,4.27213235 C8.6975958,4.27213235 7.22596353,4.91669118 6.19033501,6.20746324 C5.19585095,7.49691176 4.69828998,9.38856618 4.69828998,11.8820956 C4.69828998,14.29125 5.19585095,16.1385662 6.19033501,17.4293382 C7.14335565,18.7618015 8.57320555,19.4285294 10.4798847,19.4285294 C11.8057571,19.4285294 12.9045376,19.0844118 13.7749504,18.3961765 C14.5614795,17.7516176 15.1215545,16.7195956 15.4535808,15.3001103 L19.7431305,15.3001103 C19.5358134,17.8803309 18.6028866,19.9023529 16.9453069,21.3635294 Z M21.4986277,18.2992279 C21.1257759,16.9886029 20.9391905,15.6227206 20.9391905,14.2042279 C20.9391905,13.0441544 21.0945189,11.8820956 21.4054945,10.7210294 C21.7161511,9.560625 22.2035057,8.59378676 22.8669204,7.81919118 C23.9436934,6.52941176 25.3314419,5.76639706 27.0323988,5.52981618 C28.7308041,5.29422794 30.2649504,5.43286765 31.6332431,5.94871324 C33.207577,6.59360294 34.3679147,7.71198529 35.1132994,9.301875 C35.8181774,10.7210294 36.1709354,12.3777574 36.1709354,14.2684191 C36.1709354,15.6455515 36.0245376,16.8277941 35.7362074,17.8168015 C35.4450067,18.8054779 35.071517,19.6432721 34.6160573,20.3315074 C33.6212543,21.7509926 32.357577,22.6324632 30.8237496,22.9749265 C29.4567328,23.3623897 28.0772768,23.3941544 26.6898472,23.071875 C25.3008228,22.7499265 24.1931117,22.2019853 23.3641624,21.4270588 C22.4931117,20.6541176 21.8717984,19.6115074 21.4986277,18.2992279 Z M25.1668641,14.4950735 C25.0836183,12.5379044 25.4775207,11.0668015 26.3482525,10.0768015 C26.6369016,9.77636029 27.093956,9.52919118 27.7152693,9.33529412 C28.3378585,9.14139706 28.9594907,9.15330882 29.5808041,9.36705882 C30.2021174,9.58246324 30.7510292,10.0768015 31.2291343,10.8500735 C31.7040498,11.625 31.9435808,12.7854044 31.9435808,14.3332721 C31.9021174,16.0531985 31.6332431,17.300625 31.1356821,18.0738971 C30.6384401,18.8484926 30.0672018,19.3315809 29.4245189,19.5251471 C28.7824738,19.7187132 28.1512731,19.696875 27.528684,19.4599632 C26.9070517,19.224375 26.4726427,18.9338603 26.2232243,18.5897426 C25.601592,17.8168015 25.249472,16.4522426 25.1668641,14.4950735 Z M49.7387215,22.9749265 C49.1177271,22.9749265 48.6090029,22.7730882 48.2160573,22.3621324 C47.8218359,21.9548162 47.6253631,21.4270588 47.6253631,20.7821691 L47.6253631,12.0121324 C47.6253631,10.9797794 47.3245939,10.2270221 46.7240123,9.75419118 C46.1227928,9.28202206 45.4491718,9.04477941 44.7031493,9.04477941 C43.9568078,9.04477941 43.2937121,9.28202206 42.7141812,9.75419118 C42.1333744,10.2270221 41.8434495,10.9797794 41.8434495,12.0121324 L41.8434495,22.9749265 L37.4917046,22.9749265 L37.4917046,12.9137868 C37.4917046,9.99143382 38.2272018,8.03459559 39.6985151,7.04558824 C41.1691905,6.05691176 42.7964701,5.51922794 44.579078,5.43286765 C46.4018735,5.43286765 48.0808228,5.926875 49.6149692,6.91588235 C51.1472018,7.90555147 51.9152318,9.90441176 51.9152318,12.9137868 L51.9152318,22.9749265 L49.7387215,22.9749265 Z M56.12632,22.9117279 C54.5306164,22.7826838 53.7326052,21.7291544 53.7326052,19.7501471 L53.7326052,0.788933824 L55.9706727,0.788933824 C56.5087403,0.788933824 56.9858885,1.00400735 57.4005226,1.43349265 C57.8141999,1.86430147 58.0221549,2.38014706 58.0221549,2.98136029 L58.0221549,5.88386029 L60.571517,5.88386029 L60.571517,6.78683824 C60.571517,7.43139706 60.3632431,7.95915441 59.9492468,8.36680147 C59.5346127,8.77577206 59.0373707,8.97959559 58.4575207,8.97959559 L58.0221549,8.97959559 L58.0221549,18.5245588 C58.0221549,19.2574632 58.4364701,19.6220956 59.2657384,19.6220956 L60.571517,19.6220956 L60.571517,22.9749265 C59.2038622,23.0619485 57.7217046,23.0401103 56.12632,22.9117279 Z M69.3828116,23.1370588 C68.4090592,23.2439338 67.5494907,23.2975368 66.8031493,23.2975368 C65.3111042,23.2975368 64.0059635,22.8779779 62.8861324,22.0401838 C61.7672581,21.2017279 61.2078209,19.8153309 61.2078209,17.8803309 C61.2078209,16.0750368 61.7143125,14.7842647 62.7308041,14.0109926 C63.7457009,13.2363971 65.0409541,12.7202206 66.6168828,12.4627941 C66.823562,12.4627941 67.0723425,12.4310294 67.3625864,12.3661765 C67.6518735,12.3013235 67.9842187,12.2477206 68.3573894,12.204375 C70.1808228,11.9469485 71.09238,11.3890809 71.09238,10.5274632 C71.09238,9.88323529 70.771517,9.46367647 70.129153,9.27011029 C69.4858322,9.07654412 68.895138,8.97959559 68.3573894,8.97959559 C67.7762637,8.97959559 67.2589279,9.06661765 66.8031493,9.23834559 C66.3464138,9.41007353 66.0153444,9.73268382 65.8083463,10.2051838 L61.6425489,10.2051838 C61.8077647,8.87238971 62.3885714,7.77716912 63.3836934,6.91588235 C64.5028866,5.926875 66.0973144,5.43286765 68.1704851,5.43286765 C70.4911605,5.43286765 72.232305,5.84183824 73.3932806,6.65845588 C74.5944438,7.51841912 75.1963012,8.7225 75.1963012,10.2703676 L75.1963012,16.1385662 C75.1963012,17.8598162 74.8942562,19.2025368 74.2949504,20.1697059 C73.693093,21.1378676 72.9783275,21.8376838 72.1500161,22.2668382 C71.2789654,22.7393382 70.356245,23.0285294 69.3828116,23.1370588 Z M68.7299222,15.1713971 C69.7658697,14.9143015 70.5740874,14.6337132 71.1552131,14.3332721 L71.1552131,15.9463235 C71.1552131,17.1504044 70.8228678,18.0957353 70.1604101,18.7833088 C69.4963575,19.4715441 68.5848003,19.8153309 67.4247815,19.8153309 C66.7199035,19.8153309 66.181198,19.6432721 65.8083463,19.2994853 C65.4348566,18.9123529 65.2482712,18.3961765 65.2482712,17.7516176 C65.2482712,17.2787868 65.3933932,16.8062868 65.683956,16.3321324 C66.0153444,15.9896691 66.5546877,15.7090809 67.3010292,15.4940074 L68.7299222,15.1713971 Z M89.1369391,0.788933824 L96.9084588,22.9749265 L92.2454194,22.9749265 L90.8155695,18.3961765 L82.4846127,18.3961765 L81.1166389,22.9749265 L76.4539185,22.9749265 L83.5419298,2.27327206 C83.9144626,1.28459559 84.6187027,0.788933824 85.6556071,0.788933824 L89.1369391,0.788933824 Z M83.6656821,14.6555515 L86.6497722,5.23930147 L89.6341812,14.6555515 L83.6656821,14.6555515 Z M98.5398847,19.5565809 L107.42996,9.36705882 L101.151123,9.36705882 C100.569997,9.36705882 100.072755,9.16323529 99.658759,8.75426471 C99.2441249,8.34628676 99.0374457,7.84069853 99.0374457,7.23783088 L99.0374457,5.82 L112.590241,5.82 L112.590241,9.49544118 L103.824875,19.2346324 L112.901217,19.2346324 L112.901217,22.9749265 L98.5398847,22.9749265 L98.5398847,19.5565809 Z M128.645194,15.8811397 C128.645194,18.9338603 127.877483,20.9340441 126.344932,21.8797059 C124.810785,22.8247059 123.132155,23.2975368 121.30904,23.2975368 C119.526433,23.2121691 117.899153,22.6963235 116.428478,21.7509926 C114.957164,20.8056618 114.221348,18.8484926 114.221348,15.8811397 L114.221348,5.82 L118.573412,5.82 L118.573412,16.7844485 C118.573412,17.8168015 118.863018,18.5682353 119.444144,19.0407353 C120.023994,19.5148897 120.687089,19.7501471 121.433112,19.7501471 C122.179134,19.7501471 122.852755,19.5148897 123.453975,19.0407353 C124.054237,18.5682353 124.355326,17.8168015 124.355326,16.7844485 L124.355326,8.01275735 C124.355326,7.41154412 124.551798,6.89569853 124.94602,6.46488971 C125.338965,6.03540441 125.847371,5.82 126.468684,5.82 L128.645194,5.82 L128.645194,15.8811397 Z M132.389979,0.788933824 C132.969509,0.788933824 133.46707,0.994080882 133.881386,1.40172794 C134.295382,1.81069853 134.503656,2.31628676 134.503656,2.9175 L134.503656,22.9749265 L130.151592,22.9749265 L130.151592,0.788933824 L132.389979,0.788933824 Z" id="Fill-1"></path>
            </g>
        </g>
    </g>
</svg>