<?xml version="1.0" encoding="UTF-8"?>
<svg width="77px" height="75px" viewBox="0 0 77 75" version="1.1" xmlns="http://www.w3.org/2000/svg" xmlns:xlink="http://www.w3.org/1999/xlink">
    <!-- Generator: Sketch 49 (51002) - http://www.bohemiancoding.com/sketch -->
    <title>Group 26</title>
    <desc>Created with Sketch.</desc>
    <defs>
        <polygon id="path-1" points="4.93488761e-21 0.00010923913 4.93488761e-21 67 66.9999272 67 66.9999272 0.00010923913 0 0.00010923913"></polygon>
    </defs>
    <g id="Projeto" stroke="none" stroke-width="1" fill="none" fill-rule="evenodd">
        <g id="summit" transform="translate(-676.000000, -1046.000000)">
            <g id="Group-26" transform="translate(676.000000, 1046.000000)">
                <g id="Page-1" transform="translate(10.000000, 8.000000)">
                    <g id="Group-3">
                        <mask id="mask-2" fill="white">
                            <use xlink:href="#path-1"></use>
                        </mask>
                        <g id="Clip-2"></g>
                        <path d="M66.9999272,33.5001092 C66.9999272,52.0015766 52.0017587,67.0001092 33.4999272,67.0001092 C14.9984598,67.0001092 -7.28260869e-05,52.0015766 -7.28260869e-05,33.5001092 C-7.28260869e-05,14.9982777 14.9984598,0.00010923913 33.4999272,0.00010923913 C52.0017587,0.00010923913 66.9999272,14.9982777 66.9999272,33.5001092" id="Fill-1" fill="#EFEFEF" mask="url(#mask-2)"></path>
                    </g>
                </g>
                <g id="contaazul-emissao-de-nfe" fill-rule="nonzero">
                    <g id="Group" transform="translate(37.796020, 43.919316)">
                        <path d="M19.3925373,25.0056752 L12.7870647,25.0056752 C12.2218905,25.0056752 11.79801,24.5452308 11.79801,24.0139487 L11.79801,14.7342222 C11.79801,14.1675214 12.2572139,13.7424957 12.7870647,13.7424957 L19.3925373,13.7424957 C22.1477612,13.7424957 24.3731343,8.07548718 24.3731343,5.31282051 L24.3731343,20.0470427 C24.3731343,22.8097094 22.1477612,25.0056752 19.3925373,25.0056752 Z" id="Shape" fill="#8EB8F1"></path>
                        <path d="M19.3925373,4.95863248 L11.8333333,4.95863248 L11.8333333,16.8593504 L19.3925373,16.8593504 C22.1477612,16.8593504 24.3731343,18.6657094 24.3731343,20.897094 L24.3731343,8.99637607 C24.3731343,6.76499145 22.1477612,4.95863248 19.3925373,4.95863248 Z" id="Shape" fill="#83A9DE"></path>
                        <path d="M19.3925373,0.247931624 L7.06467662,0.247931624 C6.49950249,0.247931624 6.07562189,0.708376068 6.07562189,1.23965812 L6.07562189,13.9904274 C6.07562189,14.5571282 6.53482587,14.9821538 7.06467662,14.9821538 L19.3925373,14.9821538 C22.1477612,14.9821538 24.3731343,17.2135385 24.3731343,19.9762051 L24.3731343,5.24198291 C24.3731343,2.47931624 22.1477612,0.247931624 19.3925373,0.247931624 Z" id="Shape" fill="#B5CDF5"></path>
                        <g transform="translate(0.000000, 18.063590)" fill="#8EB8F1" id="Shape">
                            <path d="M9.04278607,1.41675214 L1.02437811,1.41675214 C0.635820896,1.41675214 0.317910448,1.09798291 0.317910448,0.708376068 C0.317910448,0.318769231 0.635820896,0 1.02437811,0 L9.04278607,0 C9.43134328,0 9.74925373,0.318769231 9.74925373,0.708376068 C9.74925373,1.09798291 9.43134328,1.41675214 9.04278607,1.41675214 Z"></path>
                            <path d="M9.04278607,3.54188034 L4.20348259,3.54188034 C3.81492537,3.54188034 3.49701493,3.22311111 3.49701493,2.83350427 C3.49701493,2.44389744 3.81492537,2.12512821 4.20348259,2.12512821 L9.04278607,2.12512821 C9.43134328,2.12512821 9.74925373,2.44389744 9.74925373,2.83350427 C9.74925373,3.22311111 9.43134328,3.54188034 9.04278607,3.54188034 Z"></path>
                        </g>
                        <path d="M12.3985075,12.609094 C12.0099502,12.609094 11.6920398,12.2903248 11.6920398,11.9007179 L11.6920398,2.79808547 C11.6920398,2.40847863 12.0099502,2.0897094 12.3985075,2.0897094 C12.7870647,2.0897094 13.1049751,2.40847863 13.1049751,2.79808547 L13.1049751,11.9007179 C13.1049751,12.2903248 12.7870647,12.609094 12.3985075,12.609094 Z" id="Shape" fill="#537CB0"></path>
                        <path d="M9.21940299,12.609094 C8.83084577,12.609094 8.51293532,12.2903248 8.51293532,11.9007179 L8.51293532,7.2608547 C8.51293532,6.87124786 8.83084577,6.55247863 9.21940299,6.55247863 C9.6079602,6.55247863 9.92587065,6.87124786 9.92587065,7.2608547 L9.92587065,11.9007179 C9.92587065,12.2903248 9.6079602,12.609094 9.21940299,12.609094 Z" id="Shape" fill="#537CB0"></path>
                        <path d="M9.21940299,4.63986325 C8.83084577,4.63986325 8.51293532,4.32109402 8.51293532,3.93148718 L8.51293532,2.79808547 C8.51293532,2.40847863 8.83084577,2.0897094 9.21940299,2.0897094 C9.6079602,2.0897094 9.92587065,2.40847863 9.92587065,2.79808547 L9.92587065,3.93148718 C9.92587065,4.32109402 9.6079602,4.63986325 9.21940299,4.63986325 Z" id="Shape" fill="#537CB0"></path>
                        <path d="M15.5776119,12.609094 C15.1890547,12.609094 14.8711443,12.2903248 14.8711443,11.9007179 L14.8711443,2.79808547 C14.8711443,2.40847863 15.1890547,2.0897094 15.5776119,2.0897094 C15.9661692,2.0897094 16.2840796,2.40847863 16.2840796,2.79808547 L16.2840796,11.9007179 C16.2840796,12.2903248 15.9661692,12.609094 15.5776119,12.609094 Z" id="Shape" fill="#537CB0"></path>
                        <path d="M18.7567164,12.609094 C18.3681592,12.609094 18.0502488,12.2903248 18.0502488,11.9007179 L18.0502488,2.79808547 C18.0502488,2.40847863 18.3681592,2.0897094 18.7567164,2.0897094 C19.1452736,2.0897094 19.4631841,2.40847863 19.4631841,2.79808547 L19.4631841,11.9007179 C19.4631841,12.2903248 19.1452736,12.609094 18.7567164,12.609094 Z" id="Shape" fill="#537CB0"></path>
                        <path d="M21.9358209,13.4945641 C21.5472637,13.4945641 21.2293532,13.1757949 21.2293532,12.786188 L21.2293532,3.68355556 C21.2293532,3.29394872 21.5472637,2.97517949 21.9358209,2.97517949 C22.3243781,2.97517949 22.6422886,3.29394872 22.6422886,3.68355556 L22.6422886,12.786188 C22.6422886,13.1757949 22.3243781,13.4945641 21.9358209,13.4945641 Z" id="Shape" fill="#537CB0"></path>
                    </g>
                    <path d="M31.8970149,54.5095385 L23.3487562,54.5095385 C22.6422886,54.5095385 22.041791,53.9428376 22.041791,53.1990427 L22.041791,41.1566496 C22.041791,40.4482735 22.6069652,39.8461538 23.3487562,39.8461538 L31.8970149,39.8461538 C35.4646766,39.8461538 38.3258706,32.5144615 38.3258706,28.9371624 L38.3258706,48.0278974 C38.3258706,51.6406154 35.4293532,54.5095385 31.8970149,54.5095385 Z" id="Shape" fill="#8EB8F1"></path>
                    <path d="M31.8970149,28.5475556 L22.0771144,28.5475556 L22.0771144,43.954735 L31.8616915,43.954735 C35.4293532,43.954735 38.2905473,46.2923761 38.2905473,49.1612991 L38.2905473,33.7541197 C38.3258706,30.8497778 35.4293532,28.5475556 31.8970149,28.5475556 Z" id="Shape" fill="#83A9DE"></path>
                    <path d="M31.8970149,22.4201026 L15.9308458,22.4201026 C15.2243781,22.4201026 14.6238806,22.9868034 14.6238806,23.7305983 L14.6238806,40.2357607 C14.6238806,40.9441368 15.1890547,41.5462564 15.9308458,41.5462564 L31.8970149,41.5462564 C35.4646766,41.5462564 38.3258706,44.4151795 38.3258706,47.9924786 L38.3258706,28.8663248 C38.3258706,25.3244444 35.4293532,22.4201026 31.8970149,22.4201026 Z" id="Shape" fill="#B5CDF5"></path>
                    <g id="Group" transform="translate(0.000000, 30.105983)" fill="#8EB8F1">
                        <path d="M11.3034826,1.62926496 L0.91840796,1.62926496 C0.529850746,1.62926496 0.211940299,1.31049573 0.211940299,0.920888889 C0.211940299,0.531282051 0.529850746,0.212512821 0.91840796,0.212512821 L11.3034826,0.212512821 C11.6920398,0.212512821 12.0099502,0.531282051 12.0099502,0.920888889 C12.0099502,1.31049573 11.6920398,1.62926496 11.3034826,1.62926496 Z" id="Shape"></path>
                        <path d="M11.3034826,4.39193162 L5.05124378,4.39193162 C4.66268657,4.39193162 4.34477612,4.07316239 4.34477612,3.68355556 C4.34477612,3.29394872 4.66268657,2.97517949 5.05124378,2.97517949 L11.3034826,2.97517949 C11.6920398,2.97517949 12.0099502,3.29394872 12.0099502,3.68355556 C12.0099502,4.07316239 11.6920398,4.39193162 11.3034826,4.39193162 Z" id="Shape"></path>
                    </g>
                    <g id="Group" transform="translate(7.417910, 45.690256)" fill="#8EB8F1">
                        <path d="M11.0915423,1.41675214 L0.706467662,1.41675214 C0.317910448,1.41675214 0,1.09798291 0,0.708376068 C0,0.318769231 0.317910448,0 0.706467662,0 L11.0915423,0 C11.4800995,0 11.79801,0.318769231 11.79801,0.708376068 C11.79801,1.09798291 11.4800995,1.41675214 11.0915423,1.41675214 Z" id="Shape"></path>
                        <path d="M11.0915423,4.1794188 L4.8039801,4.1794188 C4.41542289,4.1794188 4.09751244,3.86064957 4.09751244,3.47104274 C4.09751244,3.0814359 4.41542289,2.76266667 4.8039801,2.76266667 L11.0915423,2.76266667 C11.4800995,2.76266667 11.79801,3.0814359 11.79801,3.47104274 C11.79801,3.86064957 11.4800995,4.1794188 11.0915423,4.1794188 Z" id="Shape"></path>
                    </g>
                    <path d="M22.8542289,38.2523077 C22.4656716,38.2523077 22.1477612,37.9335385 22.1477612,37.5439316 L22.1477612,25.7494701 C22.1477612,25.3598632 22.4656716,25.041094 22.8542289,25.041094 C23.2427861,25.041094 23.5606965,25.3598632 23.5606965,25.7494701 L23.5606965,37.5439316 C23.5606965,37.9335385 23.2427861,38.2523077 22.8542289,38.2523077 Z" id="Shape" fill="#537CB0"></path>
                    <path d="M18.721393,38.2523077 C18.3328358,38.2523077 18.0149254,37.9335385 18.0149254,37.5439316 L18.0149254,31.168547 C18.0149254,30.7789402 18.3328358,30.4601709 18.721393,30.4601709 C19.1099502,30.4601709 19.4278607,30.7789402 19.4278607,31.168547 L19.4278607,37.5439316 C19.4278607,37.9335385 19.1099502,38.2523077 18.721393,38.2523077 Z" id="Shape" fill="#537CB0"></path>
                    <path d="M18.721393,27.9808547 C18.3328358,27.9808547 18.0149254,27.6620855 18.0149254,27.2724786 L18.0149254,25.6786325 C18.0149254,25.2890256 18.3328358,24.9702564 18.721393,24.9702564 C19.1099502,24.9702564 19.4278607,25.2890256 19.4278607,25.6786325 L19.4278607,27.2724786 C19.4278607,27.6620855 19.1099502,27.9808547 18.721393,27.9808547 Z" id="Shape" fill="#537CB0"></path>
                    <path d="M26.9517413,38.2523077 C26.5631841,38.2523077 26.2452736,37.9335385 26.2452736,37.5439316 L26.2452736,25.7494701 C26.2452736,25.3598632 26.5631841,25.041094 26.9517413,25.041094 C27.3402985,25.041094 27.658209,25.3598632 27.658209,25.7494701 L27.658209,37.5439316 C27.658209,37.9335385 27.3402985,38.2523077 26.9517413,38.2523077 Z" id="Shape" fill="#537CB0"></path>
                    <path d="M31.0492537,38.2523077 C30.6606965,38.2523077 30.3427861,37.9335385 30.3427861,37.5439316 L30.3427861,25.7494701 C30.3427861,25.3598632 30.6606965,25.041094 31.0492537,25.041094 C31.4378109,25.041094 31.7557214,25.3598632 31.7557214,25.7494701 L31.7557214,37.5439316 C31.7557214,37.9335385 31.4378109,38.2523077 31.0492537,38.2523077 Z" id="Shape" fill="#537CB0"></path>
                    <path d="M35.1820896,39.3857094 C34.7935323,39.3857094 34.4756219,39.0669402 34.4756219,38.6773333 L34.4756219,26.8828718 C34.4756219,26.493265 34.7935323,26.1744957 35.1820896,26.1744957 C35.5706468,26.1744957 35.8885572,26.493265 35.8885572,26.8828718 L35.8885572,38.6773333 C35.8885572,39.0669402 35.5706468,39.3857094 35.1820896,39.3857094 Z" id="Shape" fill="#537CB0"></path>
                    <path d="M63.158209,39.2086154 L52.7378109,39.2086154 C51.8547264,39.2086154 51.1482587,38.5002393 51.1482587,37.6147692 L51.1482587,22.9868034 C51.1482587,22.1013333 51.8547264,21.3929573 52.7378109,21.3929573 L63.158209,21.3929573 C67.4676617,21.3929573 71,12.432 71,8.11090598 L71,31.345641 C71,35.7021538 67.5029851,39.2086154 63.158209,39.2086154 Z" id="Shape" fill="#8EB8F1"></path>
                    <path d="M63.158209,7.57962393 L51.2189055,7.57962393 L51.2189055,26.3515897 L63.158209,26.3515897 C67.4676617,26.3515897 71,29.185094 71,32.6915556 L71,13.9195897 C71,10.4131282 67.5029851,7.57962393 63.158209,7.57962393 Z" id="Shape" fill="#83A9DE"></path>
                    <path d="M63.158209,0.141675214 L43.7303483,0.141675214 C42.8472637,0.141675214 42.140796,0.850051282 42.140796,1.73552137 L42.140796,21.8179829 C42.140796,22.703453 42.8472637,23.4118291 43.7303483,23.4118291 L63.158209,23.4118291 C67.4676617,23.4118291 71,26.9182906 71,31.2748034 L71,8.00464957 C71,3.64813675 67.5029851,0.141675214 63.158209,0.141675214 Z" id="Shape" fill="#B5CDF5"></path>
                    <g id="Group" transform="translate(24.726368, 9.917265)" fill="#8EB8F1">
                        <path d="M13.3875622,1.41675214 L0.741791045,1.41675214 C0.353233831,1.41675214 0.0353233831,1.09798291 0.0353233831,0.708376068 C0.0353233831,0.318769231 0.353233831,0 0.741791045,0 L13.3875622,0 C13.7761194,0 14.0940299,0.318769231 14.0940299,0.708376068 C14.0940299,1.09798291 13.7761194,1.41675214 13.3875622,1.41675214 Z" id="Shape"></path>
                        <path d="M13.3875622,4.74611966 L5.75771144,4.74611966 C5.36915423,4.74611966 5.05124378,4.42735043 5.05124378,4.03774359 C5.05124378,3.64813675 5.36915423,3.32936752 5.75771144,3.32936752 L13.3875622,3.32936752 C13.7761194,3.32936752 14.0940299,3.64813675 14.0940299,4.03774359 C14.0940299,4.42735043 13.7761194,4.74611966 13.3875622,4.74611966 Z" id="Shape"></path>
                    </g>
                    <g id="Group" transform="translate(39.562189, 28.335043)" fill="#8EB8F1">
                        <path d="M7.3119403,1.70010256 L4.41542289,1.70010256 C4.02686567,1.70010256 3.70895522,1.38133333 3.70895522,0.991726496 C3.70895522,0.602119658 4.02686567,0.283350427 4.41542289,0.283350427 L7.3119403,0.283350427 C7.70049751,0.283350427 8.01840796,0.602119658 8.01840796,0.991726496 C8.01840796,1.38133333 7.70049751,1.70010256 7.3119403,1.70010256 Z" id="Shape"></path>
                        <path d="M7.3119403,5.06488889 L0.741791045,5.06488889 C0.353233831,5.06488889 0.0353233831,4.74611966 0.0353233831,4.35651282 C0.0353233831,3.96690598 0.353233831,3.64813675 0.741791045,3.64813675 L7.3119403,3.64813675 C7.70049751,3.64813675 8.01840796,3.96690598 8.01840796,4.35651282 C8.01840796,4.74611966 7.70049751,5.06488889 7.3119403,5.06488889 Z" id="Shape"></path>
                    </g>
                    <path d="M52.1726368,19.2324103 C51.7840796,19.2324103 51.4661692,18.913641 51.4661692,18.5240342 L51.4661692,4.1794188 C51.4661692,3.78981197 51.7840796,3.47104274 52.1726368,3.47104274 C52.561194,3.47104274 52.8791045,3.78981197 52.8791045,4.1794188 L52.8791045,18.5240342 C52.8791045,18.913641 52.561194,19.2324103 52.1726368,19.2324103 Z" id="Shape" fill="#537CB0"></path>
                    <path d="M47.1567164,19.2324103 C46.7681592,19.2324103 46.4502488,18.913641 46.4502488,18.5240342 L46.4502488,10.6610598 C46.4502488,10.271453 46.7681592,9.95268376 47.1567164,9.95268376 C47.5452736,9.95268376 47.8631841,10.271453 47.8631841,10.6610598 L47.8631841,18.5240342 C47.8631841,18.913641 47.5452736,19.2324103 47.1567164,19.2324103 Z" id="Shape" fill="#537CB0"></path>
                    <path d="M47.1567164,7.2254359 C46.7681592,7.2254359 46.4502488,6.90666667 46.4502488,6.51705983 L46.4502488,4.42735043 C46.4502488,4.03774359 46.7681592,3.71897436 47.1567164,3.71897436 C47.5452736,3.71897436 47.8631841,4.03774359 47.8631841,4.42735043 L47.8631841,6.51705983 C47.8631841,6.90666667 47.5452736,7.2254359 47.1567164,7.2254359 Z" id="Shape" fill="#537CB0"></path>
                    <path d="M57.1532338,19.2324103 C56.7646766,19.2324103 56.4467662,18.913641 56.4467662,18.5240342 L56.4467662,4.1794188 C56.4467662,3.78981197 56.7646766,3.47104274 57.1532338,3.47104274 C57.541791,3.47104274 57.8597015,3.78981197 57.8597015,4.1794188 L57.8597015,18.5240342 C57.8597015,18.913641 57.541791,19.2324103 57.1532338,19.2324103 Z" id="Shape" fill="#537CB0"></path>
                    <path d="M62.1691542,19.2324103 C61.780597,19.2324103 61.4626866,18.913641 61.4626866,18.5240342 L61.4626866,4.1794188 C61.4626866,3.78981197 61.780597,3.47104274 62.1691542,3.47104274 C62.5577114,3.47104274 62.8756219,3.78981197 62.8756219,4.1794188 L62.8756219,18.5240342 C62.8756219,18.913641 62.5577114,19.2324103 62.1691542,19.2324103 Z" id="Shape" fill="#537CB0"></path>
                    <path d="M67.1850746,20.6137436 C66.7965174,20.6137436 66.478607,20.2949744 66.478607,19.9053675 L66.478607,5.56075214 C66.478607,5.1711453 66.7965174,4.85237607 67.1850746,4.85237607 C67.5736318,4.85237607 67.8915423,5.1711453 67.8915423,5.56075214 L67.8915423,19.9053675 C67.8915423,20.2949744 67.5736318,20.6137436 67.1850746,20.6137436 Z" id="Shape" fill="#537CB0"></path>
                </g>
            </g>
        </g>
    </g>
</svg>